<svg width="50" height="47" viewBox="0 0 50 47" fill="none" xmlns="http://www.w3.org/2000/svg">
<path d="M9.35938 8.60547C10.1522 7.69803 11.017 6.85602 11.9452 6.08762" stroke="url(#paint0_linear_549_10550)" stroke-opacity="0.6" stroke-width="1.5" stroke-miterlimit="10" stroke-linecap="round" stroke-linejoin="round"/>
<path d="M4.4104 18.2874C4.96173 15.8908 5.9062 13.6021 7.20546 11.5142" stroke="url(#paint1_linear_549_10550)" stroke-opacity="0.6" stroke-width="1.5" stroke-miterlimit="10" stroke-linecap="round" stroke-linejoin="round"/>
<path d="M11.8061 40.4702C6.93689 36.3728 3.84033 30.2183 3.84033 23.3369C3.84033 23.0756 3.84483 22.8152 3.85365 22.5561" stroke="url(#paint2_linear_549_10550)" stroke-opacity="0.6" stroke-width="1.5" stroke-miterlimit="10" stroke-linecap="round" stroke-linejoin="round"/>
<path d="M36.8398 42.8808C33.649 44.6604 29.9765 45.6738 26.0686 45.6738C22.1739 45.6738 18.5133 44.6673 15.3301 42.8989" stroke="url(#paint3_linear_549_10550)" stroke-opacity="0.6" stroke-width="1.5" stroke-miterlimit="10" stroke-linecap="round" stroke-linejoin="round"/>
<path d="M44.9173 11.4906C47.059 14.9244 48.2973 18.9853 48.2973 23.3368C48.2973 30.2081 45.2098 36.3547 40.3528 40.4521" stroke="url(#paint4_linear_549_10550)" stroke-opacity="0.6" stroke-width="1.5" stroke-miterlimit="10" stroke-linecap="round" stroke-linejoin="round"/>
<path d="M39.9949 5.92615C40.8174 6.59145 41.5918 7.31417 42.3123 8.08887" stroke="url(#paint5_linear_549_10550)" stroke-opacity="0.6" stroke-width="1.5" stroke-miterlimit="10" stroke-linecap="round" stroke-linejoin="round"/>
<path d="M15.4695 3.69824C18.62 1.97746 22.231 0.99993 26.0691 0.99993C29.8087 0.99993 33.3327 1.92796 36.4253 3.56727" stroke="url(#paint6_linear_549_10550)" stroke-opacity="0.6" stroke-width="1.5" stroke-miterlimit="10" stroke-linecap="round" stroke-linejoin="round"/>
<path d="M27.9294 8.80835C30.433 7.25032 33.191 6.02576 36.1548 5.20835" stroke="url(#paint7_linear_549_10550)" stroke-opacity="0.6" stroke-width="1.5" stroke-miterlimit="10" stroke-linecap="round" stroke-linejoin="round"/>
<path d="M18.8223 17.4216C20.4296 15.1395 22.3318 13.0801 24.4793 11.297" stroke="url(#paint8_linear_549_10550)" stroke-opacity="0.6" stroke-width="1.5" stroke-miterlimit="10" stroke-linecap="round" stroke-linejoin="round"/>
<path d="M13.2632 39.5383C12.463 32.9965 13.7281 26.6111 16.5857 21.1008" stroke="url(#paint9_linear_549_10550)" stroke-opacity="0.6" stroke-width="1.5" stroke-miterlimit="10" stroke-linecap="round" stroke-linejoin="round"/>
<path d="M24.2071 8.80859C21.6188 7.19788 18.7588 5.94359 15.6804 5.12703" stroke="url(#paint10_linear_549_10550)" stroke-opacity="0.6" stroke-width="1.5" stroke-miterlimit="10" stroke-linecap="round" stroke-linejoin="round"/>
<path d="M36.3697 22.8008C34.3924 18.3619 31.4133 14.4131 27.6582 11.2972" stroke="url(#paint11_linear_549_10550)" stroke-opacity="0.6" stroke-width="1.5" stroke-miterlimit="10" stroke-linecap="round" stroke-linejoin="round"/>
<path d="M38.7713 31.053C38.56 29.6252 38.2514 28.2136 37.8474 26.8279" stroke="url(#paint12_linear_549_10550)" stroke-opacity="0.6" stroke-width="1.5" stroke-miterlimit="10" stroke-linecap="round" stroke-linejoin="round"/>
<path d="M38.8616 39.6448C39.0478 38.1633 39.1298 36.6706 39.107 35.1777" stroke="url(#paint13_linear_549_10550)" stroke-opacity="0.6" stroke-width="1.5" stroke-miterlimit="10" stroke-linecap="round" stroke-linejoin="round"/>
<path d="M15.6126 18.8137C12.4105 18.7974 9.16006 19.141 5.91162 19.874" stroke="url(#paint14_linear_549_10550)" stroke-opacity="0.6" stroke-width="1.5" stroke-miterlimit="10" stroke-linecap="round" stroke-linejoin="round"/>
<path d="M35.3255 23.7358C30.5584 21.2367 25.3207 19.6234 19.8721 19.0485" stroke="url(#paint15_linear_549_10550)" stroke-opacity="0.6" stroke-width="1.5" stroke-miterlimit="10" stroke-linecap="round" stroke-linejoin="round"/>
<path d="M46.5026 32.1423C44.2482 29.7888 41.7355 27.6971 39.0122 25.9069" stroke="url(#paint16_linear_549_10550)" stroke-opacity="0.6" stroke-width="1.5" stroke-miterlimit="10" stroke-linecap="round" stroke-linejoin="round"/>
<path d="M38.2581 22.9241C40.388 19.4955 42.0271 15.7854 43.1277 11.9021" stroke="url(#paint17_linear_549_10550)" stroke-opacity="0.6" stroke-width="1.5" stroke-miterlimit="10" stroke-linecap="round" stroke-linejoin="round"/>
<path d="M15.6123 41.0186C23.6484 38.2471 30.6806 33.1443 35.8278 26.4371" stroke="url(#paint18_linear_549_10550)" stroke-opacity="0.6" stroke-width="1.5" stroke-miterlimit="10" stroke-linecap="round" stroke-linejoin="round"/>
<path d="M26.068 12.0107C24.8893 12.0107 23.9304 11.0472 23.9304 9.86265C23.9304 8.67821 24.8893 7.71465 26.068 7.71465C27.2467 7.71465 28.2056 8.67821 28.2056 9.86265C28.2056 11.0472 27.2467 12.0107 26.068 12.0107Z" stroke="url(#paint19_linear_549_10550)" stroke-opacity="0.6" stroke-width="1.5" stroke-miterlimit="10" stroke-linecap="round" stroke-linejoin="round"/>
<path d="M17.7499 21.4487C16.5712 21.4487 15.6123 20.4851 15.6123 19.3006C15.6123 18.1162 16.5712 17.1525 17.7499 17.1525C18.9286 17.1525 19.8875 18.1162 19.8875 19.3006C19.8875 20.4851 18.9286 21.4487 17.7499 21.4487Z" stroke="url(#paint20_linear_549_10550)" stroke-opacity="0.6" stroke-width="1.5" stroke-miterlimit="10" stroke-linecap="round" stroke-linejoin="round"/>
<path d="M37.1908 26.9319C36.0121 26.9319 35.0532 25.9682 35.0532 24.7838C35.0532 23.5994 36.0121 22.6357 37.1908 22.6357C38.3695 22.6357 39.3284 23.5994 39.3284 24.7838C39.3284 25.9682 38.3695 26.9319 37.1908 26.9319Z" stroke="url(#paint21_linear_549_10550)" stroke-opacity="0.6" stroke-width="1.5" stroke-miterlimit="10" stroke-linecap="round" stroke-linejoin="round"/>
<path d="M13.5829 43.8103C12.4042 43.8103 11.4453 42.8467 11.4453 41.6622C11.4453 40.4778 12.4042 39.5142 13.5829 39.5142C14.7616 39.5142 15.7206 40.4778 15.7206 41.6622C15.7206 42.8467 14.7616 43.8103 13.5829 43.8103Z" stroke="url(#paint22_linear_549_10550)" stroke-opacity="0.6" stroke-width="1.5" stroke-miterlimit="10" stroke-linecap="round" stroke-linejoin="round"/>
<path d="M38.6771 43.9326C37.4984 43.9326 36.5396 42.969 36.5396 41.7845C36.5396 40.6001 37.4984 39.6364 38.6771 39.6364C39.8559 39.6364 40.8148 40.6001 40.8148 41.7845C40.8148 42.969 39.8559 43.9326 38.6771 43.9326Z" stroke="url(#paint23_linear_549_10550)" stroke-opacity="0.6" stroke-width="1.5" stroke-miterlimit="10" stroke-linecap="round" stroke-linejoin="round"/>
<path d="M43.6609 11.9019C42.4822 11.9019 41.5232 10.9382 41.5232 9.75376C41.5232 8.56932 42.4822 7.60567 43.6609 7.60567C44.8396 7.60567 45.7985 8.56932 45.7985 9.75376C45.7985 10.9382 44.8396 11.9019 43.6609 11.9019Z" stroke="url(#paint24_linear_549_10550)" stroke-opacity="0.6" stroke-width="1.5" stroke-miterlimit="10" stroke-linecap="round" stroke-linejoin="round"/>
<path d="M38.2343 6.85742C37.0556 6.85742 36.0967 5.89386 36.0967 4.70933C36.0967 3.52489 37.0556 2.56133 38.2343 2.56133C39.413 2.56133 40.372 3.52489 40.372 4.70933C40.372 5.89386 39.413 6.85742 38.2343 6.85742Z" stroke="url(#paint25_linear_549_10550)" stroke-opacity="0.6" stroke-width="1.5" stroke-miterlimit="10" stroke-linecap="round" stroke-linejoin="round"/>
<path d="M13.5829 6.85742C12.4042 6.85742 11.4453 5.89386 11.4453 4.70933C11.4453 3.52489 12.4042 2.56133 13.5829 2.56133C14.7616 2.56133 15.7206 3.52489 15.7206 4.70933C15.7206 5.89386 14.7616 6.85742 13.5829 6.85742Z" stroke="url(#paint26_linear_549_10550)" stroke-opacity="0.6" stroke-width="1.5" stroke-miterlimit="10" stroke-linecap="round" stroke-linejoin="round"/>
<path d="M3.84047 22.5557C2.66176 22.5557 1.70288 21.5921 1.70288 20.4076C1.70288 19.2231 2.66176 18.2596 3.84047 18.2596C5.01919 18.2596 5.97807 19.2231 5.97807 20.4076C5.97807 21.5921 5.01919 22.5557 3.84047 22.5557Z" stroke="url(#paint27_linear_549_10550)" stroke-opacity="0.6" stroke-width="1.5" stroke-miterlimit="10" stroke-linecap="round" stroke-linejoin="round"/>
<defs>
<linearGradient id="paint0_linear_549_10550" x1="12.3321" y1="6.08762" x2="8.8062" y2="6.23675" gradientUnits="userSpaceOnUse">
<stop stop-color="#916F15"/>
<stop offset="1" stop-color="#D2A83A"/>
</linearGradient>
<linearGradient id="paint1_linear_549_10550" x1="7.6237" y1="11.5142" x2="3.80675" y2="11.5791" gradientUnits="userSpaceOnUse">
<stop stop-color="#916F15"/>
<stop offset="1" stop-color="#D2A83A"/>
</linearGradient>
<linearGradient id="paint2_linear_549_10550" x1="12.998" y1="22.5561" x2="2.12048" y2="22.7553" gradientUnits="userSpaceOnUse">
<stop stop-color="#916F15"/>
<stop offset="1" stop-color="#D2A83A"/>
</linearGradient>
<linearGradient id="paint3_linear_549_10550" x1="40.0584" y1="42.8808" x2="13.3615" y2="51.3478" gradientUnits="userSpaceOnUse">
<stop stop-color="#916F15"/>
<stop offset="1" stop-color="#D2A83A"/>
</linearGradient>
<linearGradient id="paint4_linear_549_10550" x1="49.486" y1="11.4906" x2="38.6353" y2="11.6132" gradientUnits="userSpaceOnUse">
<stop stop-color="#916F15"/>
<stop offset="1" stop-color="#D2A83A"/>
</linearGradient>
<linearGradient id="paint5_linear_549_10550" x1="42.659" y1="5.92615" x2="39.4996" y2="6.06556" gradientUnits="userSpaceOnUse">
<stop stop-color="#916F15"/>
<stop offset="1" stop-color="#D2A83A"/>
</linearGradient>
<linearGradient id="paint6_linear_549_10550" x1="39.5611" y1="0.99993" x2="13.5918" y2="9.30562" gradientUnits="userSpaceOnUse">
<stop stop-color="#916F15"/>
<stop offset="1" stop-color="#D2A83A"/>
</linearGradient>
<linearGradient id="paint7_linear_549_10550" x1="37.3856" y1="5.20835" x2="26.2484" y2="6.25628" gradientUnits="userSpaceOnUse">
<stop stop-color="#916F15"/>
<stop offset="1" stop-color="#D2A83A"/>
</linearGradient>
<linearGradient id="paint8_linear_549_10550" x1="25.3258" y1="11.297" x2="17.6094" y2="11.5906" gradientUnits="userSpaceOnUse">
<stop stop-color="#916F15"/>
<stop offset="1" stop-color="#D2A83A"/>
</linearGradient>
<linearGradient id="paint9_linear_549_10550" x1="17.1182" y1="21.1008" x2="12.2575" y2="21.1394" gradientUnits="userSpaceOnUse">
<stop stop-color="#916F15"/>
<stop offset="1" stop-color="#D2A83A"/>
</linearGradient>
<linearGradient id="paint10_linear_549_10550" x1="25.483" y1="5.12703" x2="13.9406" y2="6.22793" gradientUnits="userSpaceOnUse">
<stop stop-color="#916F15"/>
<stop offset="1" stop-color="#D2A83A"/>
</linearGradient>
<linearGradient id="paint11_linear_549_10550" x1="37.6733" y1="11.2972" x2="25.7849" y2="11.6679" gradientUnits="userSpaceOnUse">
<stop stop-color="#916F15"/>
<stop offset="1" stop-color="#D2A83A"/>
</linearGradient>
<linearGradient id="paint12_linear_549_10550" x1="38.9096" y1="26.8279" x2="37.6476" y2="26.8393" gradientUnits="userSpaceOnUse">
<stop stop-color="#916F15"/>
<stop offset="1" stop-color="#D2A83A"/>
</linearGradient>
<linearGradient id="paint13_linear_549_10550" x1="39.148" y1="35.1777" x2="38.8077" y2="35.1785" gradientUnits="userSpaceOnUse">
<stop stop-color="#916F15"/>
<stop offset="1" stop-color="#D2A83A"/>
</linearGradient>
<linearGradient id="paint14_linear_549_10550" x1="17.0642" y1="18.8132" x2="5.45851" y2="23.1836" gradientUnits="userSpaceOnUse">
<stop stop-color="#916F15"/>
<stop offset="1" stop-color="#D2A83A"/>
</linearGradient>
<linearGradient id="paint15_linear_549_10550" x1="37.6379" y1="19.0485" x2="16.9106" y2="21.8627" gradientUnits="userSpaceOnUse">
<stop stop-color="#916F15"/>
<stop offset="1" stop-color="#D2A83A"/>
</linearGradient>
<linearGradient id="paint16_linear_549_10550" x1="47.6234" y1="25.9069" x2="37.4165" y2="26.4119" gradientUnits="userSpaceOnUse">
<stop stop-color="#916F15"/>
<stop offset="1" stop-color="#D2A83A"/>
</linearGradient>
<linearGradient id="paint17_linear_549_10550" x1="43.8564" y1="11.9021" x2="37.2066" y2="12.0231" gradientUnits="userSpaceOnUse">
<stop stop-color="#916F15"/>
<stop offset="1" stop-color="#D2A83A"/>
</linearGradient>
<linearGradient id="paint18_linear_549_10550" x1="38.8527" y1="26.4371" x2="11.3281" y2="28.0086" gradientUnits="userSpaceOnUse">
<stop stop-color="#916F15"/>
<stop offset="1" stop-color="#D2A83A"/>
</linearGradient>
<linearGradient id="paint19_linear_549_10550" x1="28.8453" y1="7.71465" x2="23.0152" y2="7.95357" gradientUnits="userSpaceOnUse">
<stop stop-color="#916F15"/>
<stop offset="1" stop-color="#D2A83A"/>
</linearGradient>
<linearGradient id="paint20_linear_549_10550" x1="20.5272" y1="17.1525" x2="14.6971" y2="17.3915" gradientUnits="userSpaceOnUse">
<stop stop-color="#916F15"/>
<stop offset="1" stop-color="#D2A83A"/>
</linearGradient>
<linearGradient id="paint21_linear_549_10550" x1="39.9681" y1="22.6357" x2="34.138" y2="22.8746" gradientUnits="userSpaceOnUse">
<stop stop-color="#916F15"/>
<stop offset="1" stop-color="#D2A83A"/>
</linearGradient>
<linearGradient id="paint22_linear_549_10550" x1="16.3603" y1="39.5142" x2="10.5301" y2="39.7531" gradientUnits="userSpaceOnUse">
<stop stop-color="#916F15"/>
<stop offset="1" stop-color="#D2A83A"/>
</linearGradient>
<linearGradient id="paint23_linear_549_10550" x1="41.4546" y1="39.6364" x2="35.6243" y2="39.8754" gradientUnits="userSpaceOnUse">
<stop stop-color="#916F15"/>
<stop offset="1" stop-color="#D2A83A"/>
</linearGradient>
<linearGradient id="paint24_linear_549_10550" x1="46.4382" y1="7.60567" x2="40.608" y2="7.8446" gradientUnits="userSpaceOnUse">
<stop stop-color="#916F15"/>
<stop offset="1" stop-color="#D2A83A"/>
</linearGradient>
<linearGradient id="paint25_linear_549_10550" x1="41.0117" y1="2.56133" x2="35.1815" y2="2.80026" gradientUnits="userSpaceOnUse">
<stop stop-color="#916F15"/>
<stop offset="1" stop-color="#D2A83A"/>
</linearGradient>
<linearGradient id="paint26_linear_549_10550" x1="16.3603" y1="2.56133" x2="10.5301" y2="2.80026" gradientUnits="userSpaceOnUse">
<stop stop-color="#916F15"/>
<stop offset="1" stop-color="#D2A83A"/>
</linearGradient>
<linearGradient id="paint27_linear_549_10550" x1="6.61779" y1="18.2596" x2="0.787675" y2="18.4985" gradientUnits="userSpaceOnUse">
<stop stop-color="#916F15"/>
<stop offset="1" stop-color="#D2A83A"/>
</linearGradient>
</defs>
</svg>
