<svg width="402" height="11421" viewBox="0 0 402 11421" fill="none" xmlns="http://www.w3.org/2000/svg">
<g opacity="0.6">
<path d="M1314.5 0.5V11685.5H-912.5V0.5H1314.5Z" stroke="black"/>
<path d="M385 0H386V30845H385V0Z" fill="#FDFCF8" fill-opacity="0.1"/>
<path d="M363 0H364V30845H363V0Z" fill="#FDFCF8" fill-opacity="0.1"/>
<path d="M341 0H342V30845H341V0Z" fill="#FDFCF8" fill-opacity="0.1"/>
<path d="M320 0H321V30845H320V0Z" fill="#FDFCF8" fill-opacity="0.1"/>
<path d="M298 0H299V30845H298V0Z" fill="#FDFCF8" fill-opacity="0.1"/>
<path d="M277 0H278V30845H277V0Z" fill="#FDFCF8" fill-opacity="0.1"/>
<path d="M255 0H256V30845H255V0Z" fill="#FDFCF8" fill-opacity="0.1"/>
<path d="M233 0H234V30845H233V0Z" fill="#FDFCF8" fill-opacity="0.1"/>
<path d="M212 0H213V30845H212V0Z" fill="#FDFCF8" fill-opacity="0.1"/>
<path d="M190 0H191V30845H190V0Z" fill="#FDFCF8" fill-opacity="0.1"/>
<path d="M168 0H169V30845H168V0Z" fill="#FDFCF8" fill-opacity="0.1"/>
<path d="M147 0H148V30845H147V0Z" fill="#FDFCF8" fill-opacity="0.1"/>
<path d="M125 0H126V30845H125V0Z" fill="#FDFCF8" fill-opacity="0.1"/>
<path d="M103 0H104V30845H103V0Z" fill="#FDFCF8" fill-opacity="0.1"/>
<path d="M82 0H83V30845H82V0Z" fill="#FDFCF8" fill-opacity="0.1"/>
<path d="M60 0H61V30845H60V0Z" fill="#FDFCF8" fill-opacity="0.1"/>
<path d="M39 0H40V30845H39V0Z" fill="#FDFCF8" fill-opacity="0.1"/>
<path d="M17 0H18V30845H17V0Z" fill="#FDFCF8" fill-opacity="0.1"/>
<path d="M3940 0V1L-3645 1V0L3940 0Z" fill="#FDFCF8" fill-opacity="0.1"/>
<path d="M3940 22V23L-3645 23V22L3940 22Z" fill="#FDFCF8" fill-opacity="0.1"/>
<path d="M3940 44V45L-3645 45V44L3940 44Z" fill="#FDFCF8" fill-opacity="0.1"/>
<path d="M3940 66V67L-3645 67V66L3940 66Z" fill="#FDFCF8" fill-opacity="0.1"/>
<path d="M3940 88V89L-3645 89V88L3940 88Z" fill="#FDFCF8" fill-opacity="0.1"/>
<path d="M3940 110V111L-3645 111V110L3940 110Z" fill="#FDFCF8" fill-opacity="0.1"/>
<path d="M3940 132V133L-3645 133V132L3940 132Z" fill="#FDFCF8" fill-opacity="0.1"/>
<path d="M3940 154V155L-3645 155V154L3940 154Z" fill="#FDFCF8" fill-opacity="0.1"/>
<path d="M3940 176V177L-3645 177V176L3940 176Z" fill="#FDFCF8" fill-opacity="0.1"/>
<path d="M3940 198V199L-3645 199V198L3940 198Z" fill="#FDFCF8" fill-opacity="0.1"/>
<path d="M3940 220V221L-3645 221V220L3940 220Z" fill="#FDFCF8" fill-opacity="0.1"/>
<path d="M3940 242V243L-3645 243V242L3940 242Z" fill="#FDFCF8" fill-opacity="0.1"/>
<path d="M3940 264V265L-3645 265V264L3940 264Z" fill="#FDFCF8" fill-opacity="0.1"/>
<path d="M3940 286V287L-3645 287V286L3940 286Z" fill="#FDFCF8" fill-opacity="0.1"/>
<path d="M3940 308V309L-3645 309V308L3940 308Z" fill="#FDFCF8" fill-opacity="0.1"/>
<path d="M3940 330V331L-3645 331V330L3940 330Z" fill="#FDFCF8" fill-opacity="0.1"/>
<path d="M3940 352V353L-3645 353V352L3940 352Z" fill="#FDFCF8" fill-opacity="0.1"/>
<path d="M3940 374V375L-3645 375V374L3940 374Z" fill="#FDFCF8" fill-opacity="0.1"/>
<path d="M3940 396V397L-3645 397V396L3940 396Z" fill="#FDFCF8" fill-opacity="0.1"/>
<path d="M3940 418V419L-3645 419V418L3940 418Z" fill="#FDFCF8" fill-opacity="0.1"/>
<path d="M3940 440V441L-3645 441V440L3940 440Z" fill="#FDFCF8" fill-opacity="0.1"/>
<path d="M3940 462V463L-3645 463V462L3940 462Z" fill="#FDFCF8" fill-opacity="0.1"/>
<path d="M3940 484V485L-3645 485V484L3940 484Z" fill="#FDFCF8" fill-opacity="0.1"/>
<path d="M3940 506V507L-3645 507V506L3940 506Z" fill="#FDFCF8" fill-opacity="0.1"/>
<path d="M3940 528V529L-3645 529V528L3940 528Z" fill="#FDFCF8" fill-opacity="0.1"/>
<path d="M3940 550V551L-3645 551V550L3940 550Z" fill="#FDFCF8" fill-opacity="0.1"/>
<path d="M3940 572V573L-3645 573V572L3940 572Z" fill="#FDFCF8" fill-opacity="0.1"/>
<path d="M3940 594V595L-3645 595V594L3940 594Z" fill="#FDFCF8" fill-opacity="0.1"/>
<path d="M3940 616V617L-3645 617V616L3940 616Z" fill="#FDFCF8" fill-opacity="0.1"/>
<path d="M3940 638V639L-3645 639V638L3940 638Z" fill="#FDFCF8" fill-opacity="0.1"/>
<path d="M3940 660V661L-3645 661V660L3940 660Z" fill="#FDFCF8" fill-opacity="0.1"/>
<path d="M3940 682V683L-3645 683V682L3940 682Z" fill="#FDFCF8" fill-opacity="0.1"/>
<path d="M3940 704V705L-3645 705V704L3940 704Z" fill="#FDFCF8" fill-opacity="0.1"/>
<path d="M3940 726V727L-3645 727V726L3940 726Z" fill="#FDFCF8" fill-opacity="0.1"/>
<path d="M3940 748V749L-3645 749V748L3940 748Z" fill="#FDFCF8" fill-opacity="0.1"/>
<path d="M3940 770V771L-3645 771V770L3940 770Z" fill="#FDFCF8" fill-opacity="0.1"/>
<path d="M3940 792V793L-3645 793V792L3940 792Z" fill="#FDFCF8" fill-opacity="0.1"/>
<path d="M3940 814V815L-3645 815V814L3940 814Z" fill="#FDFCF8" fill-opacity="0.1"/>
<path d="M3940 836V837L-3645 837V836L3940 836Z" fill="#FDFCF8" fill-opacity="0.1"/>
<path d="M3940 858V859L-3645 859V858L3940 858Z" fill="#FDFCF8" fill-opacity="0.1"/>
<path d="M3940 880V881L-3645 881V880L3940 880Z" fill="#FDFCF8" fill-opacity="0.1"/>
<path d="M3940 902V903L-3645 903V902L3940 902Z" fill="#FDFCF8" fill-opacity="0.1"/>
<path d="M3940 924V925L-3645 925V924L3940 924Z" fill="#FDFCF8" fill-opacity="0.1"/>
<path d="M3940 946V947L-3645 947V946L3940 946Z" fill="#FDFCF8" fill-opacity="0.1"/>
<path d="M3940 968V969L-3645 969V968L3940 968Z" fill="#FDFCF8" fill-opacity="0.1"/>
<path d="M3940 990V991L-3645 991V990L3940 990Z" fill="#FDFCF8" fill-opacity="0.1"/>
<path d="M3940 1012V1013L-3645 1013V1012L3940 1012Z" fill="#FDFCF8" fill-opacity="0.1"/>
<path d="M3940 1034V1035L-3645 1035V1034L3940 1034Z" fill="#FDFCF8" fill-opacity="0.1"/>
<path d="M3940 1056V1057L-3645 1057V1056L3940 1056Z" fill="#FDFCF8" fill-opacity="0.1"/>
<path d="M3940 1078V1079L-3645 1079V1078L3940 1078Z" fill="#FDFCF8" fill-opacity="0.1"/>
<path d="M3940 1100V1101L-3645 1101V1100L3940 1100Z" fill="#FDFCF8" fill-opacity="0.1"/>
<path d="M3940 1122V1123L-3645 1123V1122L3940 1122Z" fill="#FDFCF8" fill-opacity="0.1"/>
<path d="M3940 1144V1145L-3645 1145V1144L3940 1144Z" fill="#FDFCF8" fill-opacity="0.1"/>
<path d="M3940 1166V1167L-3645 1167V1166L3940 1166Z" fill="#FDFCF8" fill-opacity="0.1"/>
<path d="M3940 1188V1189L-3645 1189V1188L3940 1188Z" fill="#FDFCF8" fill-opacity="0.1"/>
<path d="M3940 1210V1211L-3645 1211V1210L3940 1210Z" fill="#FDFCF8" fill-opacity="0.1"/>
<path d="M3940 1232V1233L-3645 1233V1232L3940 1232Z" fill="#FDFCF8" fill-opacity="0.1"/>
<path d="M3940 1254V1255L-3645 1255V1254L3940 1254Z" fill="#FDFCF8" fill-opacity="0.1"/>
<path d="M3940 1276V1277L-3645 1277V1276L3940 1276Z" fill="#FDFCF8" fill-opacity="0.1"/>
<path d="M3940 1298V1299L-3645 1299V1298L3940 1298Z" fill="#FDFCF8" fill-opacity="0.1"/>
<path d="M3940 1320V1321L-3645 1321V1320L3940 1320Z" fill="#FDFCF8" fill-opacity="0.1"/>
<path d="M3940 1342V1343L-3645 1343V1342L3940 1342Z" fill="#FDFCF8" fill-opacity="0.1"/>
<path d="M3940 1364V1365L-3645 1365V1364L3940 1364Z" fill="#FDFCF8" fill-opacity="0.1"/>
<path d="M3940 1386V1387L-3645 1387V1386L3940 1386Z" fill="#FDFCF8" fill-opacity="0.1"/>
<path d="M3940 1408V1409L-3645 1409V1408L3940 1408Z" fill="#FDFCF8" fill-opacity="0.1"/>
<path d="M3940 1430V1431L-3645 1431V1430L3940 1430Z" fill="#FDFCF8" fill-opacity="0.1"/>
<path d="M3940 1452V1453L-3645 1453V1452L3940 1452Z" fill="#FDFCF8" fill-opacity="0.1"/>
<path d="M3940 1474V1475L-3645 1475V1474L3940 1474Z" fill="#FDFCF8" fill-opacity="0.1"/>
<path d="M3940 1496V1497L-3645 1497V1496L3940 1496Z" fill="#FDFCF8" fill-opacity="0.1"/>
<path d="M3940 1518V1519L-3645 1519V1518L3940 1518Z" fill="#FDFCF8" fill-opacity="0.1"/>
<path d="M3940 1540V1541L-3645 1541V1540L3940 1540Z" fill="#FDFCF8" fill-opacity="0.1"/>
<path d="M3940 1562V1563L-3645 1563V1562L3940 1562Z" fill="#FDFCF8" fill-opacity="0.1"/>
<path d="M3940 1584V1585L-3645 1585V1584L3940 1584Z" fill="#FDFCF8" fill-opacity="0.1"/>
<path d="M3940 1606V1607L-3645 1607V1606L3940 1606Z" fill="#FDFCF8" fill-opacity="0.1"/>
<path d="M3940 1628V1629L-3645 1629V1628L3940 1628Z" fill="#FDFCF8" fill-opacity="0.1"/>
<path d="M3940 1650V1651L-3645 1651V1650L3940 1650Z" fill="#FDFCF8" fill-opacity="0.1"/>
<path d="M3940 1672V1673L-3645 1673V1672L3940 1672Z" fill="#FDFCF8" fill-opacity="0.1"/>
<path d="M3940 1694V1695L-3645 1695V1694L3940 1694Z" fill="#FDFCF8" fill-opacity="0.1"/>
<path d="M3940 1716V1717L-3645 1717V1716L3940 1716Z" fill="#FDFCF8" fill-opacity="0.1"/>
<path d="M3940 1738V1739L-3645 1739V1738L3940 1738Z" fill="#FDFCF8" fill-opacity="0.1"/>
<path d="M3940 1760V1761L-3645 1761V1760L3940 1760Z" fill="#FDFCF8" fill-opacity="0.1"/>
<path d="M3940 1782V1783L-3645 1783V1782L3940 1782Z" fill="#FDFCF8" fill-opacity="0.1"/>
<path d="M3940 1804V1805L-3645 1805V1804L3940 1804Z" fill="#FDFCF8" fill-opacity="0.1"/>
<path d="M3940 1826V1827L-3645 1827V1826L3940 1826Z" fill="#FDFCF8" fill-opacity="0.1"/>
<path d="M3940 1848V1849L-3645 1849V1848L3940 1848Z" fill="#FDFCF8" fill-opacity="0.1"/>
<path d="M3940 1870V1871L-3645 1871V1870L3940 1870Z" fill="#FDFCF8" fill-opacity="0.1"/>
<path d="M3940 1892V1893L-3645 1893V1892L3940 1892Z" fill="#FDFCF8" fill-opacity="0.1"/>
<path d="M3940 1914V1915L-3645 1915V1914L3940 1914Z" fill="#FDFCF8" fill-opacity="0.1"/>
<path d="M3940 1936V1937L-3645 1937V1936L3940 1936Z" fill="#FDFCF8" fill-opacity="0.1"/>
<path d="M3940 1958V1959L-3645 1959V1958L3940 1958Z" fill="#FDFCF8" fill-opacity="0.1"/>
<path d="M3940 1980V1981L-3645 1981V1980L3940 1980Z" fill="#FDFCF8" fill-opacity="0.1"/>
<path d="M3940 2002V2003L-3645 2003V2002L3940 2002Z" fill="#FDFCF8" fill-opacity="0.1"/>
<path d="M3940 2024V2025L-3645 2025V2024L3940 2024Z" fill="#FDFCF8" fill-opacity="0.1"/>
<path d="M3940 2046V2047L-3645 2047V2046L3940 2046Z" fill="#FDFCF8" fill-opacity="0.1"/>
<path d="M3940 2068V2069L-3645 2069V2068L3940 2068Z" fill="#FDFCF8" fill-opacity="0.1"/>
<path d="M3940 2090V2091L-3645 2091V2090L3940 2090Z" fill="#FDFCF8" fill-opacity="0.1"/>
<path d="M3940 2112V2113L-3645 2113V2112L3940 2112Z" fill="#FDFCF8" fill-opacity="0.1"/>
<path d="M3940 2134V2135L-3645 2135V2134L3940 2134Z" fill="#FDFCF8" fill-opacity="0.1"/>
<path d="M3940 2156V2157L-3645 2157V2156L3940 2156Z" fill="#FDFCF8" fill-opacity="0.1"/>
<path d="M3940 2178V2179L-3645 2179V2178L3940 2178Z" fill="#FDFCF8" fill-opacity="0.1"/>
<path d="M3940 2200V2201L-3645 2201V2200L3940 2200Z" fill="#FDFCF8" fill-opacity="0.1"/>
<path d="M3940 2222V2223L-3645 2223V2222L3940 2222Z" fill="#FDFCF8" fill-opacity="0.1"/>
<path d="M3940 2244V2245L-3645 2245V2244L3940 2244Z" fill="#FDFCF8" fill-opacity="0.1"/>
<path d="M3940 2266V2267L-3645 2267V2266L3940 2266Z" fill="#FDFCF8" fill-opacity="0.1"/>
<path d="M3940 2288V2289L-3645 2289V2288L3940 2288Z" fill="#FDFCF8" fill-opacity="0.1"/>
<path d="M3940 2310V2311L-3645 2311V2310L3940 2310Z" fill="#FDFCF8" fill-opacity="0.1"/>
<path d="M3940 2332V2333L-3645 2333V2332L3940 2332Z" fill="#FDFCF8" fill-opacity="0.1"/>
<path d="M3940 2354V2355L-3645 2355V2354L3940 2354Z" fill="#FDFCF8" fill-opacity="0.1"/>
<path d="M3940 2376V2377L-3645 2377V2376L3940 2376Z" fill="#FDFCF8" fill-opacity="0.1"/>
<path d="M3940 2398V2399L-3645 2399V2398L3940 2398Z" fill="#FDFCF8" fill-opacity="0.1"/>
<path d="M3940 2420V2421L-3645 2421V2420L3940 2420Z" fill="#FDFCF8" fill-opacity="0.1"/>
<path d="M3940 2442V2443L-3645 2443V2442L3940 2442Z" fill="#FDFCF8" fill-opacity="0.1"/>
<path d="M3940 2464V2465L-3645 2465V2464L3940 2464Z" fill="#FDFCF8" fill-opacity="0.1"/>
<path d="M3940 2486V2487L-3645 2487V2486L3940 2486Z" fill="#FDFCF8" fill-opacity="0.1"/>
<path d="M3940 2508V2509L-3645 2509V2508L3940 2508Z" fill="#FDFCF8" fill-opacity="0.1"/>
<path d="M3940 2530V2531L-3645 2531V2530L3940 2530Z" fill="#FDFCF8" fill-opacity="0.1"/>
<path d="M3940 2552V2553L-3645 2553V2552L3940 2552Z" fill="#FDFCF8" fill-opacity="0.1"/>
<path d="M3940 2574V2575L-3645 2575V2574L3940 2574Z" fill="#FDFCF8" fill-opacity="0.1"/>
<path d="M3940 2596V2597L-3645 2597V2596L3940 2596Z" fill="#FDFCF8" fill-opacity="0.1"/>
<path d="M3940 2618V2619L-3645 2619V2618L3940 2618Z" fill="#FDFCF8" fill-opacity="0.1"/>
<path d="M3940 2640V2641L-3645 2641V2640L3940 2640Z" fill="#FDFCF8" fill-opacity="0.1"/>
<path d="M3940 2662V2663L-3645 2663V2662L3940 2662Z" fill="#FDFCF8" fill-opacity="0.1"/>
<path d="M3940 2684V2685L-3645 2685V2684L3940 2684Z" fill="#FDFCF8" fill-opacity="0.1"/>
<path d="M3940 2706V2707L-3645 2707V2706L3940 2706Z" fill="#FDFCF8" fill-opacity="0.1"/>
<path d="M3940 2728V2729L-3645 2729V2728L3940 2728Z" fill="#FDFCF8" fill-opacity="0.1"/>
<path d="M3940 2750V2751L-3645 2751V2750L3940 2750Z" fill="#FDFCF8" fill-opacity="0.1"/>
<path d="M3940 2772V2773L-3645 2773V2772L3940 2772Z" fill="#FDFCF8" fill-opacity="0.1"/>
<path d="M3940 2794V2795L-3645 2795V2794L3940 2794Z" fill="#FDFCF8" fill-opacity="0.1"/>
<path d="M3940 2816V2817L-3645 2817V2816L3940 2816Z" fill="#FDFCF8" fill-opacity="0.1"/>
<path d="M3940 2838V2839L-3645 2839V2838L3940 2838Z" fill="#FDFCF8" fill-opacity="0.1"/>
<path d="M3940 2860V2861L-3645 2861V2860L3940 2860Z" fill="#FDFCF8" fill-opacity="0.1"/>
<path d="M3940 2882V2883L-3645 2883V2882L3940 2882Z" fill="#FDFCF8" fill-opacity="0.1"/>
<path d="M3940 2904V2905L-3645 2905V2904L3940 2904Z" fill="#FDFCF8" fill-opacity="0.1"/>
<path d="M3940 2926V2927L-3645 2927V2926L3940 2926Z" fill="#FDFCF8" fill-opacity="0.1"/>
<path d="M3940 2948V2949L-3645 2949V2948L3940 2948Z" fill="#FDFCF8" fill-opacity="0.1"/>
<path d="M3940 2970V2971L-3645 2971V2970L3940 2970Z" fill="#FDFCF8" fill-opacity="0.1"/>
<path d="M3940 2992V2993L-3645 2993V2992L3940 2992Z" fill="#FDFCF8" fill-opacity="0.1"/>
<path d="M3940 3014V3015L-3645 3015V3014L3940 3014Z" fill="#FDFCF8" fill-opacity="0.1"/>
<path d="M3940 3036V3037L-3645 3037V3036L3940 3036Z" fill="#FDFCF8" fill-opacity="0.1"/>
<path d="M3940 3058V3059L-3645 3059V3058L3940 3058Z" fill="#FDFCF8" fill-opacity="0.1"/>
<path d="M3940 3080V3081L-3645 3081V3080L3940 3080Z" fill="#FDFCF8" fill-opacity="0.1"/>
<path d="M3940 3102V3103L-3645 3103V3102L3940 3102Z" fill="#FDFCF8" fill-opacity="0.1"/>
<path d="M3940 3124V3125L-3645 3125V3124L3940 3124Z" fill="#FDFCF8" fill-opacity="0.1"/>
<path d="M3940 3146V3147L-3645 3147V3146L3940 3146Z" fill="#FDFCF8" fill-opacity="0.1"/>
<path d="M3940 3168V3169L-3645 3169V3168L3940 3168Z" fill="#FDFCF8" fill-opacity="0.1"/>
<path d="M3940 3190V3191L-3645 3191V3190L3940 3190Z" fill="#FDFCF8" fill-opacity="0.1"/>
<path d="M3940 3212V3213L-3645 3213V3212L3940 3212Z" fill="#FDFCF8" fill-opacity="0.1"/>
<path d="M3940 3234V3235L-3645 3235V3234L3940 3234Z" fill="#FDFCF8" fill-opacity="0.1"/>
<path d="M3940 3256V3257L-3645 3257V3256L3940 3256Z" fill="#FDFCF8" fill-opacity="0.1"/>
<path d="M3940 3278V3279L-3645 3279V3278L3940 3278Z" fill="#FDFCF8" fill-opacity="0.1"/>
<path d="M3940 3300V3301L-3645 3301V3300L3940 3300Z" fill="#FDFCF8" fill-opacity="0.1"/>
<path d="M3940 3322V3323L-3645 3323V3322L3940 3322Z" fill="#FDFCF8" fill-opacity="0.1"/>
<path d="M3940 3344V3345L-3645 3345V3344L3940 3344Z" fill="#FDFCF8" fill-opacity="0.1"/>
<path d="M3940 3366V3367L-3645 3367V3366L3940 3366Z" fill="#FDFCF8" fill-opacity="0.1"/>
<path d="M3940 3388V3389L-3645 3389V3388L3940 3388Z" fill="#FDFCF8" fill-opacity="0.1"/>
<path d="M3940 3410V3411L-3645 3411V3410L3940 3410Z" fill="#FDFCF8" fill-opacity="0.1"/>
<path d="M3940 3432V3433L-3645 3433V3432L3940 3432Z" fill="#FDFCF8" fill-opacity="0.1"/>
<path d="M3940 3454V3455L-3645 3455V3454L3940 3454Z" fill="#FDFCF8" fill-opacity="0.1"/>
<path d="M3940 3476V3477L-3645 3477V3476L3940 3476Z" fill="#FDFCF8" fill-opacity="0.1"/>
<path d="M3940 3498V3499L-3645 3499V3498L3940 3498Z" fill="#FDFCF8" fill-opacity="0.1"/>
<path d="M3940 3520V3521L-3645 3521V3520L3940 3520Z" fill="#FDFCF8" fill-opacity="0.1"/>
<path d="M3940 3542V3543L-3645 3543V3542L3940 3542Z" fill="#FDFCF8" fill-opacity="0.1"/>
<path d="M3940 3564V3565L-3645 3565V3564L3940 3564Z" fill="#FDFCF8" fill-opacity="0.1"/>
<path d="M3940 3586V3587L-3645 3587V3586L3940 3586Z" fill="#FDFCF8" fill-opacity="0.1"/>
<path d="M3940 3608V3609L-3645 3609V3608L3940 3608Z" fill="#FDFCF8" fill-opacity="0.1"/>
<path d="M3940 3630V3631L-3645 3631V3630L3940 3630Z" fill="#FDFCF8" fill-opacity="0.1"/>
<path d="M3940 3652V3653L-3645 3653V3652L3940 3652Z" fill="#FDFCF8" fill-opacity="0.1"/>
<path d="M3940 3674V3675L-3645 3675V3674L3940 3674Z" fill="#FDFCF8" fill-opacity="0.1"/>
<path d="M3940 3696V3697L-3645 3697V3696L3940 3696Z" fill="#FDFCF8" fill-opacity="0.1"/>
<path d="M3940 3718V3719L-3645 3719V3718L3940 3718Z" fill="#FDFCF8" fill-opacity="0.1"/>
<path d="M3940 3740V3741L-3645 3741V3740L3940 3740Z" fill="#FDFCF8" fill-opacity="0.1"/>
<path d="M3940 3762V3763L-3645 3763V3762L3940 3762Z" fill="#FDFCF8" fill-opacity="0.1"/>
<path d="M3940 3784V3785L-3645 3785V3784L3940 3784Z" fill="#FDFCF8" fill-opacity="0.1"/>
<path d="M3940 3806V3807L-3645 3807V3806L3940 3806Z" fill="#FDFCF8" fill-opacity="0.1"/>
<path d="M3940 3828V3829L-3645 3829V3828L3940 3828Z" fill="#FDFCF8" fill-opacity="0.1"/>
<path d="M3940 3850V3851L-3645 3851V3850L3940 3850Z" fill="#FDFCF8" fill-opacity="0.1"/>
<path d="M3940 3872V3873L-3645 3873V3872L3940 3872Z" fill="#FDFCF8" fill-opacity="0.1"/>
<path d="M3940 3894V3895L-3645 3895V3894L3940 3894Z" fill="#FDFCF8" fill-opacity="0.1"/>
<path d="M3940 3916V3917L-3645 3917V3916L3940 3916Z" fill="#FDFCF8" fill-opacity="0.1"/>
<path d="M3940 3938V3939L-3645 3939V3938L3940 3938Z" fill="#FDFCF8" fill-opacity="0.1"/>
<path d="M3940 3960V3961L-3645 3961V3960L3940 3960Z" fill="#FDFCF8" fill-opacity="0.1"/>
<path d="M3940 3982V3983L-3645 3983V3982L3940 3982Z" fill="#FDFCF8" fill-opacity="0.1"/>
<path d="M3940 4004V4005L-3645 4005V4004L3940 4004Z" fill="#FDFCF8" fill-opacity="0.1"/>
<path d="M3940 4026V4027L-3645 4027V4026L3940 4026Z" fill="#FDFCF8" fill-opacity="0.1"/>
<path d="M3940 4048V4049L-3645 4049V4048L3940 4048Z" fill="#FDFCF8" fill-opacity="0.1"/>
<path d="M3940 4070V4071L-3645 4071V4070L3940 4070Z" fill="#FDFCF8" fill-opacity="0.1"/>
<path d="M3940 4092V4093L-3645 4093V4092L3940 4092Z" fill="#FDFCF8" fill-opacity="0.1"/>
<path d="M3940 4114V4115L-3645 4115V4114L3940 4114Z" fill="#FDFCF8" fill-opacity="0.1"/>
<path d="M3940 4136V4137L-3645 4137V4136L3940 4136Z" fill="#FDFCF8" fill-opacity="0.1"/>
<path d="M3940 4158V4159L-3645 4159V4158L3940 4158Z" fill="#FDFCF8" fill-opacity="0.1"/>
<path d="M3940 4180V4181L-3645 4181V4180L3940 4180Z" fill="#FDFCF8" fill-opacity="0.1"/>
<path d="M3940 4202V4203L-3645 4203V4202L3940 4202Z" fill="#FDFCF8" fill-opacity="0.1"/>
<path d="M3940 4224V4225L-3645 4225V4224L3940 4224Z" fill="#FDFCF8" fill-opacity="0.1"/>
<path d="M3940 4246V4247L-3645 4247V4246L3940 4246Z" fill="#FDFCF8" fill-opacity="0.1"/>
<path d="M3940 4268V4269L-3645 4269V4268L3940 4268Z" fill="#FDFCF8" fill-opacity="0.1"/>
<path d="M3940 4290V4291L-3645 4291V4290L3940 4290Z" fill="#FDFCF8" fill-opacity="0.1"/>
<path d="M3940 4312V4313L-3645 4313V4312L3940 4312Z" fill="#FDFCF8" fill-opacity="0.1"/>
<path d="M3940 4334V4335L-3645 4335V4334L3940 4334Z" fill="#FDFCF8" fill-opacity="0.1"/>
<path d="M3940 4356V4357L-3645 4357V4356L3940 4356Z" fill="#FDFCF8" fill-opacity="0.1"/>
<path d="M3940 4378V4379L-3645 4379V4378L3940 4378Z" fill="#FDFCF8" fill-opacity="0.1"/>
<path d="M3940 4400V4401L-3645 4401V4400L3940 4400Z" fill="#FDFCF8" fill-opacity="0.1"/>
<path d="M3940 4422V4423L-3645 4423V4422L3940 4422Z" fill="#FDFCF8" fill-opacity="0.1"/>
<path d="M3940 4444V4445L-3645 4445V4444L3940 4444Z" fill="#FDFCF8" fill-opacity="0.1"/>
<path d="M3940 4466V4467L-3645 4467V4466L3940 4466Z" fill="#FDFCF8" fill-opacity="0.1"/>
<path d="M3940 4488V4489L-3645 4489V4488L3940 4488Z" fill="#FDFCF8" fill-opacity="0.1"/>
<path d="M3940 4510V4511L-3645 4511V4510L3940 4510Z" fill="#FDFCF8" fill-opacity="0.1"/>
<path d="M3940 4532V4533L-3645 4533V4532L3940 4532Z" fill="#FDFCF8" fill-opacity="0.1"/>
<path d="M3940 4554V4555L-3645 4555V4554L3940 4554Z" fill="#FDFCF8" fill-opacity="0.1"/>
<path d="M3940 4576V4577L-3645 4577V4576L3940 4576Z" fill="#FDFCF8" fill-opacity="0.1"/>
<path d="M3940 4598V4599L-3645 4599V4598L3940 4598Z" fill="#FDFCF8" fill-opacity="0.1"/>
<path d="M3940 4620V4621L-3645 4621V4620L3940 4620Z" fill="#FDFCF8" fill-opacity="0.1"/>
<path d="M3940 4642V4643L-3645 4643V4642L3940 4642Z" fill="#FDFCF8" fill-opacity="0.1"/>
<path d="M3940 4664V4665L-3645 4665V4664L3940 4664Z" fill="#FDFCF8" fill-opacity="0.1"/>
<path d="M3940 4686V4687L-3645 4687V4686L3940 4686Z" fill="#FDFCF8" fill-opacity="0.1"/>
<path d="M3940 4708V4709L-3645 4709V4708L3940 4708Z" fill="#FDFCF8" fill-opacity="0.1"/>
<path d="M3940 4730V4731L-3645 4731V4730L3940 4730Z" fill="#FDFCF8" fill-opacity="0.1"/>
<path d="M3940 4752V4753L-3645 4753V4752L3940 4752Z" fill="#FDFCF8" fill-opacity="0.1"/>
<path d="M3940 4774V4775L-3645 4775V4774L3940 4774Z" fill="#FDFCF8" fill-opacity="0.1"/>
<path d="M3940 4796V4797L-3645 4797V4796L3940 4796Z" fill="#FDFCF8" fill-opacity="0.1"/>
<path d="M3940 4818V4819L-3645 4819V4818L3940 4818Z" fill="#FDFCF8" fill-opacity="0.1"/>
<path d="M3940 4840V4841L-3645 4841V4840L3940 4840Z" fill="#FDFCF8" fill-opacity="0.1"/>
<path d="M3940 4862V4863L-3645 4863V4862L3940 4862Z" fill="#FDFCF8" fill-opacity="0.1"/>
<path d="M3940 4884V4885L-3645 4885V4884L3940 4884Z" fill="#FDFCF8" fill-opacity="0.1"/>
<path d="M3940 4906V4907L-3645 4907V4906L3940 4906Z" fill="#FDFCF8" fill-opacity="0.1"/>
<path d="M3940 4928V4929L-3645 4929V4928L3940 4928Z" fill="#FDFCF8" fill-opacity="0.1"/>
<path d="M3940 4950V4951L-3645 4951V4950L3940 4950Z" fill="#FDFCF8" fill-opacity="0.1"/>
<path d="M3940 4972V4973L-3645 4973V4972L3940 4972Z" fill="#FDFCF8" fill-opacity="0.1"/>
<path d="M3940 4994V4995L-3645 4995V4994L3940 4994Z" fill="#FDFCF8" fill-opacity="0.1"/>
<path d="M3940 5016V5017L-3645 5017V5016L3940 5016Z" fill="#FDFCF8" fill-opacity="0.1"/>
<path d="M3940 5038V5039L-3645 5039V5038L3940 5038Z" fill="#FDFCF8" fill-opacity="0.1"/>
<path d="M3940 5060V5061L-3645 5061V5060L3940 5060Z" fill="#FDFCF8" fill-opacity="0.1"/>
<path d="M3940 5082V5083L-3645 5083V5082L3940 5082Z" fill="#FDFCF8" fill-opacity="0.1"/>
<path d="M3940 5104V5105L-3645 5105V5104L3940 5104Z" fill="#FDFCF8" fill-opacity="0.1"/>
<path d="M3940 5126V5127L-3645 5127V5126L3940 5126Z" fill="#FDFCF8" fill-opacity="0.1"/>
<path d="M3940 5148V5149L-3645 5149V5148L3940 5148Z" fill="#FDFCF8" fill-opacity="0.1"/>
<path d="M3940 5170V5171L-3645 5171V5170L3940 5170Z" fill="#FDFCF8" fill-opacity="0.1"/>
<path d="M3940 5192V5193L-3645 5193V5192L3940 5192Z" fill="#FDFCF8" fill-opacity="0.1"/>
<path d="M3940 5214V5215L-3645 5215V5214L3940 5214Z" fill="#FDFCF8" fill-opacity="0.1"/>
<path d="M3940 5236V5237L-3645 5237V5236L3940 5236Z" fill="#FDFCF8" fill-opacity="0.1"/>
<path d="M3940 5258V5259L-3645 5259V5258L3940 5258Z" fill="#FDFCF8" fill-opacity="0.1"/>
<path d="M3940 5280V5281L-3645 5281V5280L3940 5280Z" fill="#FDFCF8" fill-opacity="0.1"/>
<path d="M3940 5302V5303L-3645 5303V5302L3940 5302Z" fill="#FDFCF8" fill-opacity="0.1"/>
<path d="M3940 5324V5325L-3645 5325V5324L3940 5324Z" fill="#FDFCF8" fill-opacity="0.1"/>
<path d="M3940 5346V5347L-3645 5347V5346L3940 5346Z" fill="#FDFCF8" fill-opacity="0.1"/>
<path d="M3940 5368V5369L-3645 5369V5368L3940 5368Z" fill="#FDFCF8" fill-opacity="0.1"/>
<path d="M3940 5390V5391L-3645 5391V5390L3940 5390Z" fill="#FDFCF8" fill-opacity="0.1"/>
<path d="M3940 5412V5413L-3645 5413V5412L3940 5412Z" fill="#FDFCF8" fill-opacity="0.1"/>
<path d="M3940 5434V5435L-3645 5435V5434L3940 5434Z" fill="#FDFCF8" fill-opacity="0.1"/>
<path d="M3940 5456V5457L-3645 5457V5456L3940 5456Z" fill="#FDFCF8" fill-opacity="0.1"/>
<path d="M3940 5478V5479L-3645 5479V5478L3940 5478Z" fill="#FDFCF8" fill-opacity="0.1"/>
<path d="M3940 5500V5501L-3645 5501V5500L3940 5500Z" fill="#FDFCF8" fill-opacity="0.1"/>
<path d="M3940 5522V5523L-3645 5523V5522L3940 5522Z" fill="#FDFCF8" fill-opacity="0.1"/>
<path d="M3940 5544V5545L-3645 5545V5544L3940 5544Z" fill="#FDFCF8" fill-opacity="0.1"/>
<path d="M3940 5566V5567L-3645 5567V5566L3940 5566Z" fill="#FDFCF8" fill-opacity="0.1"/>
<path d="M3940 5588V5589L-3645 5589V5588L3940 5588Z" fill="#FDFCF8" fill-opacity="0.1"/>
<path d="M3940 5610V5611L-3645 5611V5610L3940 5610Z" fill="#FDFCF8" fill-opacity="0.1"/>
<path d="M3940 5632V5633L-3645 5633V5632L3940 5632Z" fill="#FDFCF8" fill-opacity="0.1"/>
<path d="M3940 5654V5655L-3645 5655V5654L3940 5654Z" fill="#FDFCF8" fill-opacity="0.1"/>
<path d="M3940 5676V5677L-3645 5677V5676L3940 5676Z" fill="#FDFCF8" fill-opacity="0.1"/>
<path d="M3940 5698V5699L-3645 5699V5698L3940 5698Z" fill="#FDFCF8" fill-opacity="0.1"/>
<path d="M3940 5720V5721L-3645 5721V5720L3940 5720Z" fill="#FDFCF8" fill-opacity="0.1"/>
<path d="M3940 5742V5743L-3645 5743V5742L3940 5742Z" fill="#FDFCF8" fill-opacity="0.1"/>
<path d="M3940 5764V5765L-3645 5765V5764L3940 5764Z" fill="#FDFCF8" fill-opacity="0.1"/>
<path d="M3940 5786V5787L-3645 5787V5786L3940 5786Z" fill="#FDFCF8" fill-opacity="0.1"/>
<path d="M3940 5808V5809L-3645 5809V5808L3940 5808Z" fill="#FDFCF8" fill-opacity="0.1"/>
<path d="M3940 5830V5831L-3645 5831V5830L3940 5830Z" fill="#FDFCF8" fill-opacity="0.1"/>
<path d="M3940 5852V5853L-3645 5853V5852L3940 5852Z" fill="#FDFCF8" fill-opacity="0.1"/>
<path d="M3940 5874V5875L-3645 5875V5874L3940 5874Z" fill="#FDFCF8" fill-opacity="0.1"/>
<path d="M3940 5896V5897L-3645 5897V5896L3940 5896Z" fill="#FDFCF8" fill-opacity="0.1"/>
<path d="M3940 5918V5919L-3645 5919V5918L3940 5918Z" fill="#FDFCF8" fill-opacity="0.1"/>
<path d="M3940 5940V5941L-3645 5941V5940L3940 5940Z" fill="#FDFCF8" fill-opacity="0.1"/>
<path d="M3940 5962V5963L-3645 5963V5962L3940 5962Z" fill="#FDFCF8" fill-opacity="0.1"/>
<path d="M3940 5984V5985L-3645 5985V5984L3940 5984Z" fill="#FDFCF8" fill-opacity="0.1"/>
<path d="M3940 6006V6007L-3645 6007V6006L3940 6006Z" fill="#FDFCF8" fill-opacity="0.1"/>
<path d="M3940 6028V6029L-3645 6029V6028L3940 6028Z" fill="#FDFCF8" fill-opacity="0.1"/>
<path d="M3940 6050V6051L-3645 6051V6050L3940 6050Z" fill="#FDFCF8" fill-opacity="0.1"/>
<path d="M3940 6072V6073L-3645 6073V6072L3940 6072Z" fill="#FDFCF8" fill-opacity="0.1"/>
<path d="M3940 6094V6095L-3645 6095V6094L3940 6094Z" fill="#FDFCF8" fill-opacity="0.1"/>
<path d="M3940 6116V6117L-3645 6117V6116L3940 6116Z" fill="#FDFCF8" fill-opacity="0.1"/>
<path d="M3940 6138V6139L-3645 6139V6138L3940 6138Z" fill="#FDFCF8" fill-opacity="0.1"/>
<path d="M3940 6160V6161L-3645 6161V6160L3940 6160Z" fill="#FDFCF8" fill-opacity="0.1"/>
<path d="M3940 6182V6183L-3645 6183V6182L3940 6182Z" fill="#FDFCF8" fill-opacity="0.1"/>
<path d="M3940 6204V6205L-3645 6205V6204L3940 6204Z" fill="#FDFCF8" fill-opacity="0.1"/>
<path d="M3940 6226V6227L-3645 6227V6226L3940 6226Z" fill="#FDFCF8" fill-opacity="0.1"/>
<path d="M3940 6248V6249L-3645 6249V6248L3940 6248Z" fill="#FDFCF8" fill-opacity="0.1"/>
<path d="M3940 6270V6271L-3645 6271V6270L3940 6270Z" fill="#FDFCF8" fill-opacity="0.1"/>
<path d="M3940 6292V6293L-3645 6293V6292L3940 6292Z" fill="#FDFCF8" fill-opacity="0.1"/>
<path d="M3940 6314V6315L-3645 6315V6314L3940 6314Z" fill="#FDFCF8" fill-opacity="0.1"/>
<path d="M3940 6336V6337L-3645 6337V6336L3940 6336Z" fill="#FDFCF8" fill-opacity="0.1"/>
<path d="M3940 6358V6359L-3645 6359V6358L3940 6358Z" fill="#FDFCF8" fill-opacity="0.1"/>
<path d="M3940 6380V6381L-3645 6381V6380L3940 6380Z" fill="#FDFCF8" fill-opacity="0.1"/>
<path d="M3940 6402V6403L-3645 6403V6402L3940 6402Z" fill="#FDFCF8" fill-opacity="0.1"/>
<path d="M3940 6424V6425L-3645 6425V6424L3940 6424Z" fill="#FDFCF8" fill-opacity="0.1"/>
<path d="M3940 6446V6447L-3645 6447V6446L3940 6446Z" fill="#FDFCF8" fill-opacity="0.1"/>
<path d="M3940 6468V6469L-3645 6469V6468L3940 6468Z" fill="#FDFCF8" fill-opacity="0.1"/>
<path d="M3940 6490V6491L-3645 6491V6490L3940 6490Z" fill="#FDFCF8" fill-opacity="0.1"/>
<path d="M3940 6512V6513L-3645 6513V6512L3940 6512Z" fill="#FDFCF8" fill-opacity="0.1"/>
<path d="M3940 6534V6535L-3645 6535V6534L3940 6534Z" fill="#FDFCF8" fill-opacity="0.1"/>
<path d="M3940 6556V6557L-3645 6557V6556L3940 6556Z" fill="#FDFCF8" fill-opacity="0.1"/>
<path d="M3940 6578V6579L-3645 6579V6578L3940 6578Z" fill="#FDFCF8" fill-opacity="0.1"/>
<path d="M3940 6600V6601L-3645 6601V6600L3940 6600Z" fill="#FDFCF8" fill-opacity="0.1"/>
<path d="M3940 6622V6623L-3645 6623V6622L3940 6622Z" fill="#FDFCF8" fill-opacity="0.1"/>
<path d="M3940 6644V6645L-3645 6645V6644L3940 6644Z" fill="#FDFCF8" fill-opacity="0.1"/>
<path d="M3940 6666V6667L-3645 6667V6666L3940 6666Z" fill="#FDFCF8" fill-opacity="0.1"/>
<path d="M3940 6688V6689L-3645 6689V6688L3940 6688Z" fill="#FDFCF8" fill-opacity="0.1"/>
<path d="M3940 6710V6711L-3645 6711V6710L3940 6710Z" fill="#FDFCF8" fill-opacity="0.1"/>
<path d="M3940 6732V6733L-3645 6733V6732L3940 6732Z" fill="#FDFCF8" fill-opacity="0.1"/>
<path d="M3940 6754V6755L-3645 6755V6754L3940 6754Z" fill="#FDFCF8" fill-opacity="0.1"/>
<path d="M3940 6776V6777L-3645 6777V6776L3940 6776Z" fill="#FDFCF8" fill-opacity="0.1"/>
<path d="M3940 6798V6799L-3645 6799V6798L3940 6798Z" fill="#FDFCF8" fill-opacity="0.1"/>
<path d="M3940 6820V6821L-3645 6821V6820L3940 6820Z" fill="#FDFCF8" fill-opacity="0.1"/>
<path d="M3940 6842V6843L-3645 6843V6842L3940 6842Z" fill="#FDFCF8" fill-opacity="0.1"/>
<path d="M3940 6864V6865L-3645 6865V6864L3940 6864Z" fill="#FDFCF8" fill-opacity="0.1"/>
<path d="M3940 6886V6887L-3645 6887V6886L3940 6886Z" fill="#FDFCF8" fill-opacity="0.1"/>
<path d="M3940 6908V6909L-3645 6909V6908L3940 6908Z" fill="#FDFCF8" fill-opacity="0.1"/>
<path d="M3940 6930V6931L-3645 6931V6930L3940 6930Z" fill="#FDFCF8" fill-opacity="0.1"/>
<path d="M3940 6952V6953L-3645 6953V6952L3940 6952Z" fill="#FDFCF8" fill-opacity="0.1"/>
<path d="M3940 6974V6975L-3645 6975V6974L3940 6974Z" fill="#FDFCF8" fill-opacity="0.1"/>
<path d="M3940 6996V6997L-3645 6997V6996L3940 6996Z" fill="#FDFCF8" fill-opacity="0.1"/>
<path d="M3940 7018V7019L-3645 7019V7018L3940 7018Z" fill="#FDFCF8" fill-opacity="0.1"/>
<path d="M3940 7040V7041L-3645 7041V7040L3940 7040Z" fill="#FDFCF8" fill-opacity="0.1"/>
<path d="M3940 7062V7063L-3645 7063V7062L3940 7062Z" fill="#FDFCF8" fill-opacity="0.1"/>
<path d="M3940 7084V7085L-3645 7085V7084L3940 7084Z" fill="#FDFCF8" fill-opacity="0.1"/>
<path d="M3940 7106V7107L-3645 7107V7106L3940 7106Z" fill="#FDFCF8" fill-opacity="0.1"/>
<path d="M3940 7128V7129L-3645 7129V7128L3940 7128Z" fill="#FDFCF8" fill-opacity="0.1"/>
<path d="M3940 7150V7151L-3645 7151V7150L3940 7150Z" fill="#FDFCF8" fill-opacity="0.1"/>
<path d="M3940 7172V7173L-3645 7173V7172L3940 7172Z" fill="#FDFCF8" fill-opacity="0.1"/>
<path d="M3940 7194V7195L-3645 7195V7194L3940 7194Z" fill="#FDFCF8" fill-opacity="0.1"/>
<path d="M3940 7216V7217L-3645 7217V7216L3940 7216Z" fill="#FDFCF8" fill-opacity="0.1"/>
<path d="M3940 7238V7239L-3645 7239V7238L3940 7238Z" fill="#FDFCF8" fill-opacity="0.1"/>
<path d="M3940 7260V7261L-3645 7261V7260L3940 7260Z" fill="#FDFCF8" fill-opacity="0.1"/>
<path d="M3940 7282V7283L-3645 7283V7282L3940 7282Z" fill="#FDFCF8" fill-opacity="0.1"/>
<path d="M3940 7304V7305L-3645 7305V7304L3940 7304Z" fill="#FDFCF8" fill-opacity="0.1"/>
<path d="M3940 7326V7327L-3645 7327V7326L3940 7326Z" fill="#FDFCF8" fill-opacity="0.1"/>
<path d="M3940 7348V7349L-3645 7349V7348L3940 7348Z" fill="#FDFCF8" fill-opacity="0.1"/>
<path d="M3940 7370V7371L-3645 7371V7370L3940 7370Z" fill="#FDFCF8" fill-opacity="0.1"/>
<path d="M3940 7392V7393L-3645 7393V7392L3940 7392Z" fill="#FDFCF8" fill-opacity="0.1"/>
<path d="M3940 7414V7415L-3645 7415V7414L3940 7414Z" fill="#FDFCF8" fill-opacity="0.1"/>
<path d="M3940 7436V7437L-3645 7437V7436L3940 7436Z" fill="#FDFCF8" fill-opacity="0.1"/>
<path d="M3940 7458V7459L-3645 7459V7458L3940 7458Z" fill="#FDFCF8" fill-opacity="0.1"/>
<path d="M3940 7480V7481L-3645 7481V7480L3940 7480Z" fill="#FDFCF8" fill-opacity="0.1"/>
<path d="M3940 7502V7503L-3645 7503V7502L3940 7502Z" fill="#FDFCF8" fill-opacity="0.1"/>
<path d="M3940 7524V7525L-3645 7525V7524L3940 7524Z" fill="#FDFCF8" fill-opacity="0.1"/>
<path d="M3940 7546V7547L-3645 7547V7546L3940 7546Z" fill="#FDFCF8" fill-opacity="0.1"/>
<path d="M3940 7568V7569L-3645 7569V7568L3940 7568Z" fill="#FDFCF8" fill-opacity="0.1"/>
<path d="M3940 7590V7591L-3645 7591V7590L3940 7590Z" fill="#FDFCF8" fill-opacity="0.1"/>
<path d="M3940 7612V7613L-3645 7613V7612L3940 7612Z" fill="#FDFCF8" fill-opacity="0.1"/>
<path d="M3940 7634V7635L-3645 7635V7634L3940 7634Z" fill="#FDFCF8" fill-opacity="0.1"/>
<path d="M3940 7656V7657L-3645 7657V7656L3940 7656Z" fill="#FDFCF8" fill-opacity="0.1"/>
<path d="M3940 7678V7679L-3645 7679V7678L3940 7678Z" fill="#FDFCF8" fill-opacity="0.1"/>
<path d="M3940 7700V7701L-3645 7701V7700L3940 7700Z" fill="#FDFCF8" fill-opacity="0.1"/>
<path d="M3940 7722V7723L-3645 7723V7722L3940 7722Z" fill="#FDFCF8" fill-opacity="0.1"/>
<path d="M3940 7744V7745L-3645 7745V7744L3940 7744Z" fill="#FDFCF8" fill-opacity="0.1"/>
<path d="M3940 7766V7767L-3645 7767V7766L3940 7766Z" fill="#FDFCF8" fill-opacity="0.1"/>
<path d="M3940 7788V7789L-3645 7789V7788L3940 7788Z" fill="#FDFCF8" fill-opacity="0.1"/>
<path d="M3940 7810V7811L-3645 7811V7810L3940 7810Z" fill="#FDFCF8" fill-opacity="0.1"/>
<path d="M3940 7832V7833L-3645 7833V7832L3940 7832Z" fill="#FDFCF8" fill-opacity="0.1"/>
<path d="M3940 7854V7855L-3645 7855V7854L3940 7854Z" fill="#FDFCF8" fill-opacity="0.1"/>
<path d="M3940 7876V7877L-3645 7877V7876L3940 7876Z" fill="#FDFCF8" fill-opacity="0.1"/>
<path d="M3940 7898V7899L-3645 7899V7898L3940 7898Z" fill="#FDFCF8" fill-opacity="0.1"/>
<path d="M3940 7920V7921L-3645 7921V7920L3940 7920Z" fill="#FDFCF8" fill-opacity="0.1"/>
<path d="M3940 7942V7943L-3645 7943V7942L3940 7942Z" fill="#FDFCF8" fill-opacity="0.1"/>
<path d="M3940 7964V7965L-3645 7965V7964L3940 7964Z" fill="#FDFCF8" fill-opacity="0.1"/>
<path d="M3940 7986V7987L-3645 7987V7986L3940 7986Z" fill="#FDFCF8" fill-opacity="0.1"/>
<path d="M3940 8008V8009L-3645 8009V8008L3940 8008Z" fill="#FDFCF8" fill-opacity="0.1"/>
<path d="M3940 8030V8031L-3645 8031V8030L3940 8030Z" fill="#FDFCF8" fill-opacity="0.1"/>
<path d="M3940 8052V8053L-3645 8053V8052L3940 8052Z" fill="#FDFCF8" fill-opacity="0.1"/>
<path d="M3940 8074V8075L-3645 8075V8074L3940 8074Z" fill="#FDFCF8" fill-opacity="0.1"/>
<path d="M3940 8096V8097L-3645 8097V8096L3940 8096Z" fill="#FDFCF8" fill-opacity="0.1"/>
<path d="M3940 8118V8119L-3645 8119V8118L3940 8118Z" fill="#FDFCF8" fill-opacity="0.1"/>
<path d="M3940 8140V8141L-3645 8141V8140L3940 8140Z" fill="#FDFCF8" fill-opacity="0.1"/>
<path d="M3940 8162V8163L-3645 8163V8162L3940 8162Z" fill="#FDFCF8" fill-opacity="0.1"/>
<path d="M3940 8184V8185L-3645 8185V8184L3940 8184Z" fill="#FDFCF8" fill-opacity="0.1"/>
<path d="M3940 8206V8207L-3645 8207V8206L3940 8206Z" fill="#FDFCF8" fill-opacity="0.1"/>
<path d="M3940 8228V8229L-3645 8229V8228L3940 8228Z" fill="#FDFCF8" fill-opacity="0.1"/>
<path d="M3940 8250V8251L-3645 8251V8250L3940 8250Z" fill="#FDFCF8" fill-opacity="0.1"/>
<path d="M3940 8272V8273L-3645 8273V8272L3940 8272Z" fill="#FDFCF8" fill-opacity="0.1"/>
<path d="M3940 8294V8295L-3645 8295V8294L3940 8294Z" fill="#FDFCF8" fill-opacity="0.1"/>
<path d="M3940 8316V8317L-3645 8317V8316L3940 8316Z" fill="#FDFCF8" fill-opacity="0.1"/>
<path d="M3940 8338V8339L-3645 8339V8338L3940 8338Z" fill="#FDFCF8" fill-opacity="0.1"/>
<path d="M3940 8360V8361L-3645 8361V8360L3940 8360Z" fill="#FDFCF8" fill-opacity="0.1"/>
<path d="M3940 8382V8383L-3645 8383V8382L3940 8382Z" fill="#FDFCF8" fill-opacity="0.1"/>
<path d="M3940 8404V8405L-3645 8405V8404L3940 8404Z" fill="#FDFCF8" fill-opacity="0.1"/>
<path d="M3940 8426V8427L-3645 8427V8426L3940 8426Z" fill="#FDFCF8" fill-opacity="0.1"/>
<path d="M3940 8448V8449L-3645 8449V8448L3940 8448Z" fill="#FDFCF8" fill-opacity="0.1"/>
<path d="M3940 8470V8471L-3645 8471V8470L3940 8470Z" fill="#FDFCF8" fill-opacity="0.1"/>
<path d="M3940 8492V8493L-3645 8493V8492L3940 8492Z" fill="#FDFCF8" fill-opacity="0.1"/>
<path d="M3940 8514V8515L-3645 8515V8514L3940 8514Z" fill="#FDFCF8" fill-opacity="0.1"/>
<path d="M3940 8536V8537L-3645 8537V8536L3940 8536Z" fill="#FDFCF8" fill-opacity="0.1"/>
<path d="M3940 8558V8559L-3645 8559V8558L3940 8558Z" fill="#FDFCF8" fill-opacity="0.1"/>
<path d="M3940 8580V8581L-3645 8581V8580L3940 8580Z" fill="#FDFCF8" fill-opacity="0.1"/>
<path d="M3940 8602V8603L-3645 8603V8602L3940 8602Z" fill="#FDFCF8" fill-opacity="0.1"/>
<path d="M3940 8624V8625L-3645 8625V8624L3940 8624Z" fill="#FDFCF8" fill-opacity="0.1"/>
<path d="M3940 8646V8647L-3645 8647V8646L3940 8646Z" fill="#FDFCF8" fill-opacity="0.1"/>
<path d="M3940 8668V8669L-3645 8669V8668L3940 8668Z" fill="#FDFCF8" fill-opacity="0.1"/>
<path d="M3940 8690V8691L-3645 8691V8690L3940 8690Z" fill="#FDFCF8" fill-opacity="0.1"/>
<path d="M3940 8712V8713L-3645 8713V8712L3940 8712Z" fill="#FDFCF8" fill-opacity="0.1"/>
<path d="M3940 8734V8735L-3645 8735V8734L3940 8734Z" fill="#FDFCF8" fill-opacity="0.1"/>
<path d="M3940 8756V8757L-3645 8757V8756L3940 8756Z" fill="#FDFCF8" fill-opacity="0.1"/>
<path d="M3940 8778V8779L-3645 8779V8778L3940 8778Z" fill="#FDFCF8" fill-opacity="0.1"/>
<path d="M3940 8800V8801L-3645 8801V8800L3940 8800Z" fill="#FDFCF8" fill-opacity="0.1"/>
<path d="M3940 8822V8823L-3645 8823V8822L3940 8822Z" fill="#FDFCF8" fill-opacity="0.1"/>
<path d="M3940 8844V8845L-3645 8845V8844L3940 8844Z" fill="#FDFCF8" fill-opacity="0.1"/>
<path d="M3940 8866V8867L-3645 8867V8866L3940 8866Z" fill="#FDFCF8" fill-opacity="0.1"/>
<path d="M3940 8888V8889L-3645 8889V8888L3940 8888Z" fill="#FDFCF8" fill-opacity="0.1"/>
<path d="M3940 8910V8911L-3645 8911V8910L3940 8910Z" fill="#FDFCF8" fill-opacity="0.1"/>
<path d="M3940 8932V8933L-3645 8933V8932L3940 8932Z" fill="#FDFCF8" fill-opacity="0.1"/>
<path d="M3940 8954V8955L-3645 8955V8954L3940 8954Z" fill="#FDFCF8" fill-opacity="0.1"/>
<path d="M3940 8976V8977L-3645 8977V8976L3940 8976Z" fill="#FDFCF8" fill-opacity="0.1"/>
<path d="M3940 8998V8999L-3645 8999V8998L3940 8998Z" fill="#FDFCF8" fill-opacity="0.1"/>
<path d="M3940 9020V9021L-3645 9021V9020L3940 9020Z" fill="#FDFCF8" fill-opacity="0.1"/>
<path d="M3940 9042V9043L-3645 9043V9042L3940 9042Z" fill="#FDFCF8" fill-opacity="0.1"/>
<path d="M3940 9064V9065L-3645 9065V9064L3940 9064Z" fill="#FDFCF8" fill-opacity="0.1"/>
<path d="M3940 9086V9087L-3645 9087V9086L3940 9086Z" fill="#FDFCF8" fill-opacity="0.1"/>
<path d="M3940 9108V9109L-3645 9109V9108L3940 9108Z" fill="#FDFCF8" fill-opacity="0.1"/>
<path d="M3940 9130V9131L-3645 9131V9130L3940 9130Z" fill="#FDFCF8" fill-opacity="0.1"/>
<path d="M3940 9152V9153L-3645 9153V9152L3940 9152Z" fill="#FDFCF8" fill-opacity="0.1"/>
<path d="M3940 9174V9175L-3645 9175V9174L3940 9174Z" fill="#FDFCF8" fill-opacity="0.1"/>
<path d="M3940 9196V9197L-3645 9197V9196L3940 9196Z" fill="#FDFCF8" fill-opacity="0.1"/>
<path d="M3940 9218V9219L-3645 9219V9218L3940 9218Z" fill="#FDFCF8" fill-opacity="0.1"/>
<path d="M3940 9240V9241L-3645 9241V9240L3940 9240Z" fill="#FDFCF8" fill-opacity="0.1"/>
<path d="M3940 9262V9263L-3645 9263V9262L3940 9262Z" fill="#FDFCF8" fill-opacity="0.1"/>
<path d="M3940 9284V9285L-3645 9285V9284L3940 9284Z" fill="#FDFCF8" fill-opacity="0.1"/>
<path d="M3940 9306V9307L-3645 9307V9306L3940 9306Z" fill="#FDFCF8" fill-opacity="0.1"/>
<path d="M3940 9328V9329L-3645 9329V9328L3940 9328Z" fill="#FDFCF8" fill-opacity="0.1"/>
<path d="M3940 9350V9351L-3645 9351V9350L3940 9350Z" fill="#FDFCF8" fill-opacity="0.1"/>
<path d="M3940 9372V9373L-3645 9373V9372L3940 9372Z" fill="#FDFCF8" fill-opacity="0.1"/>
<path d="M3940 9394V9395L-3645 9395V9394L3940 9394Z" fill="#FDFCF8" fill-opacity="0.1"/>
<path d="M3940 9416V9417L-3645 9417V9416L3940 9416Z" fill="#FDFCF8" fill-opacity="0.1"/>
<path d="M3940 9438V9439L-3645 9439V9438L3940 9438Z" fill="#FDFCF8" fill-opacity="0.1"/>
<path d="M3940 9460V9461L-3645 9461V9460L3940 9460Z" fill="#FDFCF8" fill-opacity="0.1"/>
<path d="M3940 9482V9483L-3645 9483V9482L3940 9482Z" fill="#FDFCF8" fill-opacity="0.1"/>
<path d="M3940 9504V9505L-3645 9505V9504L3940 9504Z" fill="#FDFCF8" fill-opacity="0.1"/>
<path d="M3940 9526V9527L-3645 9527V9526L3940 9526Z" fill="#FDFCF8" fill-opacity="0.1"/>
<path d="M3940 9548V9549L-3645 9549V9548L3940 9548Z" fill="#FDFCF8" fill-opacity="0.1"/>
<path d="M3940 9570V9571L-3645 9571V9570L3940 9570Z" fill="#FDFCF8" fill-opacity="0.1"/>
<path d="M3940 9592V9593L-3645 9593V9592L3940 9592Z" fill="#FDFCF8" fill-opacity="0.1"/>
<path d="M3940 9614V9615L-3645 9615V9614L3940 9614Z" fill="#FDFCF8" fill-opacity="0.1"/>
<path d="M3940 9636V9637L-3645 9637V9636L3940 9636Z" fill="#FDFCF8" fill-opacity="0.1"/>
<path d="M3940 9658V9659L-3645 9659V9658L3940 9658Z" fill="#FDFCF8" fill-opacity="0.1"/>
<path d="M3940 9680V9681L-3645 9681V9680L3940 9680Z" fill="#FDFCF8" fill-opacity="0.1"/>
<path d="M3940 9702V9703L-3645 9703V9702L3940 9702Z" fill="#FDFCF8" fill-opacity="0.1"/>
<path d="M3940 9724V9725L-3645 9725V9724L3940 9724Z" fill="#FDFCF8" fill-opacity="0.1"/>
<path d="M3940 9746V9747L-3645 9747V9746L3940 9746Z" fill="#FDFCF8" fill-opacity="0.1"/>
<path d="M3940 9768V9769L-3645 9769V9768L3940 9768Z" fill="#FDFCF8" fill-opacity="0.1"/>
<path d="M3940 9790V9791L-3645 9791V9790L3940 9790Z" fill="#FDFCF8" fill-opacity="0.1"/>
<path d="M3940 9812V9813L-3645 9813V9812L3940 9812Z" fill="#FDFCF8" fill-opacity="0.1"/>
<path d="M3940 9834V9835L-3645 9835V9834L3940 9834Z" fill="#FDFCF8" fill-opacity="0.1"/>
<path d="M3940 9856V9857L-3645 9857V9856L3940 9856Z" fill="#FDFCF8" fill-opacity="0.1"/>
<path d="M3940 9878V9879L-3645 9879V9878L3940 9878Z" fill="#FDFCF8" fill-opacity="0.1"/>
<path d="M3940 9900V9901L-3645 9901V9900L3940 9900Z" fill="#FDFCF8" fill-opacity="0.1"/>
<path d="M3940 9922V9923L-3645 9923V9922L3940 9922Z" fill="#FDFCF8" fill-opacity="0.1"/>
<path d="M3940 9944V9945L-3645 9945V9944L3940 9944Z" fill="#FDFCF8" fill-opacity="0.1"/>
<path d="M3940 9966V9967L-3645 9967V9966L3940 9966Z" fill="#FDFCF8" fill-opacity="0.1"/>
<path d="M3940 9988V9989L-3645 9989V9988L3940 9988Z" fill="#FDFCF8" fill-opacity="0.1"/>
<path d="M3940 10010V10011L-3645 10011V10010L3940 10010Z" fill="#FDFCF8" fill-opacity="0.1"/>
<path d="M3940 10032V10033L-3645 10033V10032L3940 10032Z" fill="#FDFCF8" fill-opacity="0.1"/>
<path d="M3940 10054V10055L-3645 10055V10054L3940 10054Z" fill="#FDFCF8" fill-opacity="0.1"/>
<path d="M3940 10076V10077L-3645 10077V10076L3940 10076Z" fill="#FDFCF8" fill-opacity="0.1"/>
<path d="M3940 10098V10099L-3645 10099V10098L3940 10098Z" fill="#FDFCF8" fill-opacity="0.1"/>
<path d="M3940 10120V10121L-3645 10121V10120L3940 10120Z" fill="#FDFCF8" fill-opacity="0.1"/>
<path d="M3940 10142V10143L-3645 10143V10142L3940 10142Z" fill="#FDFCF8" fill-opacity="0.1"/>
<path d="M3940 10164V10165L-3645 10165V10164L3940 10164Z" fill="#FDFCF8" fill-opacity="0.1"/>
<path d="M3940 10186V10187L-3645 10187V10186L3940 10186Z" fill="#FDFCF8" fill-opacity="0.1"/>
<path d="M3940 10208V10209L-3645 10209V10208L3940 10208Z" fill="#FDFCF8" fill-opacity="0.1"/>
<path d="M3940 10230V10231L-3645 10231V10230L3940 10230Z" fill="#FDFCF8" fill-opacity="0.1"/>
<path d="M3940 10252V10253L-3645 10253V10252L3940 10252Z" fill="#FDFCF8" fill-opacity="0.1"/>
<path d="M3940 10274V10275L-3645 10275V10274L3940 10274Z" fill="#FDFCF8" fill-opacity="0.1"/>
<path d="M3940 10296V10297L-3645 10297V10296L3940 10296Z" fill="#FDFCF8" fill-opacity="0.1"/>
<path d="M3940 10318V10319L-3645 10319V10318L3940 10318Z" fill="#FDFCF8" fill-opacity="0.1"/>
<path d="M3940 10340V10341L-3645 10341V10340L3940 10340Z" fill="#FDFCF8" fill-opacity="0.1"/>
<path d="M3940 10362V10363L-3645 10363V10362L3940 10362Z" fill="#FDFCF8" fill-opacity="0.1"/>
<path d="M3940 10384V10385L-3645 10385V10384L3940 10384Z" fill="#FDFCF8" fill-opacity="0.1"/>
<path d="M3940 10406V10407L-3645 10407V10406L3940 10406Z" fill="#FDFCF8" fill-opacity="0.1"/>
<path d="M3940 10428V10429L-3645 10429V10428L3940 10428Z" fill="#FDFCF8" fill-opacity="0.1"/>
<path d="M3940 10450V10451L-3645 10451V10450L3940 10450Z" fill="#FDFCF8" fill-opacity="0.1"/>
<path d="M3940 10472V10473L-3645 10473V10472L3940 10472Z" fill="#FDFCF8" fill-opacity="0.1"/>
<path d="M3940 10494V10495L-3645 10495V10494L3940 10494Z" fill="#FDFCF8" fill-opacity="0.1"/>
<path d="M3940 10516V10517L-3645 10517V10516L3940 10516Z" fill="#FDFCF8" fill-opacity="0.1"/>
<path d="M3940 10538V10539L-3645 10539V10538L3940 10538Z" fill="#FDFCF8" fill-opacity="0.1"/>
<path d="M3940 10560V10561L-3645 10561V10560L3940 10560Z" fill="#FDFCF8" fill-opacity="0.1"/>
<path d="M3940 10582V10583L-3645 10583V10582L3940 10582Z" fill="#FDFCF8" fill-opacity="0.1"/>
<path d="M3940 10604V10605L-3645 10605V10604L3940 10604Z" fill="#FDFCF8" fill-opacity="0.1"/>
<path d="M3940 10626V10627L-3645 10627V10626L3940 10626Z" fill="#FDFCF8" fill-opacity="0.1"/>
<path d="M3940 10648V10649L-3645 10649V10648L3940 10648Z" fill="#FDFCF8" fill-opacity="0.1"/>
<path d="M3940 10670V10671L-3645 10671V10670L3940 10670Z" fill="#FDFCF8" fill-opacity="0.1"/>
<path d="M3940 10692V10693L-3645 10693V10692L3940 10692Z" fill="#FDFCF8" fill-opacity="0.1"/>
<path d="M3940 10714V10715L-3645 10715V10714L3940 10714Z" fill="#FDFCF8" fill-opacity="0.1"/>
<path d="M3940 10736V10737L-3645 10737V10736L3940 10736Z" fill="#FDFCF8" fill-opacity="0.1"/>
<path d="M3940 10758V10759L-3645 10759V10758L3940 10758Z" fill="#FDFCF8" fill-opacity="0.1"/>
<path d="M3940 10780V10781L-3645 10781V10780L3940 10780Z" fill="#FDFCF8" fill-opacity="0.1"/>
<path d="M3940 10802V10803L-3645 10803V10802L3940 10802Z" fill="#FDFCF8" fill-opacity="0.1"/>
<path d="M3940 10824V10825L-3645 10825V10824L3940 10824Z" fill="#FDFCF8" fill-opacity="0.1"/>
<path d="M3940 10846V10847L-3645 10847V10846L3940 10846Z" fill="#FDFCF8" fill-opacity="0.1"/>
<path d="M3940 10868V10869L-3645 10869V10868L3940 10868Z" fill="#FDFCF8" fill-opacity="0.1"/>
<path d="M3940 10890V10891L-3645 10891V10890L3940 10890Z" fill="#FDFCF8" fill-opacity="0.1"/>
<path d="M3940 10912V10913L-3645 10913V10912L3940 10912Z" fill="#FDFCF8" fill-opacity="0.1"/>
<path d="M3940 10934V10935L-3645 10935V10934L3940 10934Z" fill="#FDFCF8" fill-opacity="0.1"/>
<path d="M3940 10956V10957L-3645 10957V10956L3940 10956Z" fill="#FDFCF8" fill-opacity="0.1"/>
<path d="M3940 10978V10979L-3645 10979V10978L3940 10978Z" fill="#FDFCF8" fill-opacity="0.1"/>
<path d="M3940 11000V11001L-3645 11001V11000L3940 11000Z" fill="#FDFCF8" fill-opacity="0.1"/>
<path d="M3940 11022V11023L-3645 11023V11022L3940 11022Z" fill="#FDFCF8" fill-opacity="0.1"/>
<path d="M3940 11044V11045L-3645 11045V11044L3940 11044Z" fill="#FDFCF8" fill-opacity="0.1"/>
<path d="M3940 11066V11067L-3645 11067V11066L3940 11066Z" fill="#FDFCF8" fill-opacity="0.1"/>
<path d="M3940 11088V11089L-3645 11089V11088L3940 11088Z" fill="#FDFCF8" fill-opacity="0.1"/>
<path d="M3940 11110V11111L-3645 11111V11110L3940 11110Z" fill="#FDFCF8" fill-opacity="0.1"/>
<path d="M3940 11132V11133L-3645 11133V11132L3940 11132Z" fill="#FDFCF8" fill-opacity="0.1"/>
<path d="M3940 11154V11155L-3645 11155V11154L3940 11154Z" fill="#FDFCF8" fill-opacity="0.1"/>
<path d="M3940 11176V11177L-3645 11177V11176L3940 11176Z" fill="#FDFCF8" fill-opacity="0.1"/>
<path d="M3940 11198V11199L-3645 11199V11198L3940 11198Z" fill="#FDFCF8" fill-opacity="0.1"/>
<path d="M3940 11220V11221L-3645 11221V11220L3940 11220Z" fill="#FDFCF8" fill-opacity="0.1"/>
<path d="M3940 11242V11243L-3645 11243V11242L3940 11242Z" fill="#FDFCF8" fill-opacity="0.1"/>
<path d="M3940 11264V11265L-3645 11265V11264L3940 11264Z" fill="#FDFCF8" fill-opacity="0.1"/>
<path d="M3940 11286V11287L-3645 11287V11286L3940 11286Z" fill="#FDFCF8" fill-opacity="0.1"/>
<path d="M3940 11308V11309L-3645 11309V11308L3940 11308Z" fill="#FDFCF8" fill-opacity="0.1"/>
<path d="M3940 11330V11331L-3645 11331V11330L3940 11330Z" fill="#FDFCF8" fill-opacity="0.1"/>
<path d="M3940 11352V11353L-3645 11353V11352L3940 11352Z" fill="#FDFCF8" fill-opacity="0.1"/>
<path d="M3940 11374V11375L-3645 11375V11374L3940 11374Z" fill="#FDFCF8" fill-opacity="0.1"/>
<path d="M3940 11396V11397L-3645 11397V11396L3940 11396Z" fill="#FDFCF8" fill-opacity="0.1"/>
<path d="M3940 11418V11419L-3645 11419V11418L3940 11418Z" fill="#FDFCF8" fill-opacity="0.1"/>
</g>
</svg>
