<svg width="1440" height="10872" viewBox="0 0 1440 10872" fill="none" xmlns="http://www.w3.org/2000/svg">
<path d="M22 0H23V10872H22V0Z" fill="#FDFCF8" fill-opacity="0.1"/>
<path d="M53 0H54V10872H53V0Z" fill="#FDFCF8" fill-opacity="0.1"/>
<path d="M84 0H85V10872H84V0Z" fill="#FDFCF8" fill-opacity="0.1"/>
<path d="M115 0H116V10872H115V0Z" fill="#FDFCF8" fill-opacity="0.1"/>
<path d="M146 0H147V10872H146V0Z" fill="#FDFCF8" fill-opacity="0.1"/>
<path d="M177 0H178V10872H177V0Z" fill="#FDFCF8" fill-opacity="0.1"/>
<path d="M208 0H209V10872H208V0Z" fill="#FDFCF8" fill-opacity="0.1"/>
<path d="M239 0H240V10872H239V0Z" fill="#FDFCF8" fill-opacity="0.1"/>
<path d="M270 0H271V10872H270V0Z" fill="#FDFCF8" fill-opacity="0.1"/>
<path d="M301 0H302V10872H301V0Z" fill="#FDFCF8" fill-opacity="0.1"/>
<path d="M332 0H333V10872H332V0Z" fill="#FDFCF8" fill-opacity="0.1"/>
<path d="M363 0H364V10872H363V0Z" fill="#FDFCF8" fill-opacity="0.1"/>
<path d="M394 0H395V10872H394V0Z" fill="#FDFCF8" fill-opacity="0.1"/>
<path d="M425 0H426V10872H425V0Z" fill="#FDFCF8" fill-opacity="0.1"/>
<path d="M456 0H457V10872H456V0Z" fill="#FDFCF8" fill-opacity="0.1"/>
<path d="M487 0H488V10872H487V0Z" fill="#FDFCF8" fill-opacity="0.1"/>
<path d="M518 0H519V10872H518V0Z" fill="#FDFCF8" fill-opacity="0.1"/>
<path d="M549 0H550V10872H549V0Z" fill="#FDFCF8" fill-opacity="0.1"/>
<path d="M580 0H581V10872H580V0Z" fill="#FDFCF8" fill-opacity="0.1"/>
<path d="M611 0H612V10872H611V0Z" fill="#FDFCF8" fill-opacity="0.1"/>
<path d="M642 0H643V10872H642V0Z" fill="#FDFCF8" fill-opacity="0.1"/>
<path d="M673 0H674V10872H673V0Z" fill="#FDFCF8" fill-opacity="0.1"/>
<path d="M704 0H705V10872H704V0Z" fill="#FDFCF8" fill-opacity="0.1"/>
<path d="M735 0H736V10872H735V0Z" fill="#FDFCF8" fill-opacity="0.1"/>
<path d="M766 0H767V10872H766V0Z" fill="#FDFCF8" fill-opacity="0.1"/>
<path d="M797 0H798V10872H797V0Z" fill="#FDFCF8" fill-opacity="0.1"/>
<path d="M828 0H829V10872H828V0Z" fill="#FDFCF8" fill-opacity="0.1"/>
<path d="M859 0H860V10872H859V0Z" fill="#FDFCF8" fill-opacity="0.1"/>
<path d="M890 0H891V10872H890V0Z" fill="#FDFCF8" fill-opacity="0.1"/>
<path d="M921 0H922V10872H921V0Z" fill="#FDFCF8" fill-opacity="0.1"/>
<path d="M952 0H953V10872H952V0Z" fill="#FDFCF8" fill-opacity="0.1"/>
<path d="M983 0H984V10872H983V0Z" fill="#FDFCF8" fill-opacity="0.1"/>
<path d="M1014 0H1015V10872H1014V0Z" fill="#FDFCF8" fill-opacity="0.1"/>
<path d="M1045 0H1046V10872H1045V0Z" fill="#FDFCF8" fill-opacity="0.1"/>
<path d="M1076 0H1077V10872H1076V0Z" fill="#FDFCF8" fill-opacity="0.1"/>
<path d="M1107 0H1108V10872H1107V0Z" fill="#FDFCF8" fill-opacity="0.1"/>
<path d="M1138 0H1139V10872H1138V0Z" fill="#FDFCF8" fill-opacity="0.1"/>
<path d="M1169 0H1170V10872H1169V0Z" fill="#FDFCF8" fill-opacity="0.1"/>
<path d="M1200 0H1201V10872H1200V0Z" fill="#FDFCF8" fill-opacity="0.1"/>
<path d="M1231 0H1232V10872H1231V0Z" fill="#FDFCF8" fill-opacity="0.1"/>
<path d="M1262 0H1263V10872H1262V0Z" fill="#FDFCF8" fill-opacity="0.1"/>
<path d="M1293 0H1294V10872H1293V0Z" fill="#FDFCF8" fill-opacity="0.1"/>
<path d="M1324 0H1325V10872H1324V0Z" fill="#FDFCF8" fill-opacity="0.1"/>
<path d="M1355 0H1356V10872H1355V0Z" fill="#FDFCF8" fill-opacity="0.1"/>
<path d="M1386 0H1387V10872H1386V0Z" fill="#FDFCF8" fill-opacity="0.1"/>
<path d="M1417 0H1418V10872H1417V0Z" fill="#FDFCF8" fill-opacity="0.1"/>
<path d="M6079 0V1L-4793 1V0L6079 0Z" fill="#FDFCF8" fill-opacity="0.1"/>
<path d="M6079 31V32L-4793 32V31L6079 31Z" fill="#FDFCF8" fill-opacity="0.1"/>
<path d="M6079 62V63L-4793 63V62L6079 62Z" fill="#FDFCF8" fill-opacity="0.1"/>
<path d="M6079 93V94L-4793 94V93L6079 93Z" fill="#FDFCF8" fill-opacity="0.1"/>
<path d="M6079 124V125L-4793 125V124L6079 124Z" fill="#FDFCF8" fill-opacity="0.1"/>
<path d="M6079 155V156L-4793 156V155L6079 155Z" fill="#FDFCF8" fill-opacity="0.1"/>
<path d="M6079 186V187L-4793 187V186L6079 186Z" fill="#FDFCF8" fill-opacity="0.1"/>
<path d="M6079 217V218L-4793 218V217L6079 217Z" fill="#FDFCF8" fill-opacity="0.1"/>
<path d="M6079 248V249L-4793 249V248L6079 248Z" fill="#FDFCF8" fill-opacity="0.1"/>
<path d="M6079 279V280L-4793 280V279L6079 279Z" fill="#FDFCF8" fill-opacity="0.1"/>
<path d="M6079 310V311L-4793 311V310L6079 310Z" fill="#FDFCF8" fill-opacity="0.1"/>
<path d="M6079 341V342L-4793 342V341L6079 341Z" fill="#FDFCF8" fill-opacity="0.1"/>
<path d="M6079 372V373L-4793 373V372L6079 372Z" fill="#FDFCF8" fill-opacity="0.1"/>
<path d="M6079 403V404L-4793 404V403L6079 403Z" fill="#FDFCF8" fill-opacity="0.1"/>
<path d="M6079 434V435L-4793 435V434L6079 434Z" fill="#FDFCF8" fill-opacity="0.1"/>
<path d="M6079 465V466L-4793 466V465L6079 465Z" fill="#FDFCF8" fill-opacity="0.1"/>
<path d="M6079 496V497L-4793 497V496L6079 496Z" fill="#FDFCF8" fill-opacity="0.1"/>
<path d="M6079 527V528L-4793 528V527L6079 527Z" fill="#FDFCF8" fill-opacity="0.1"/>
<path d="M6079 558V559L-4793 559V558L6079 558Z" fill="#FDFCF8" fill-opacity="0.1"/>
<path d="M6079 589V590L-4793 590V589L6079 589Z" fill="#FDFCF8" fill-opacity="0.1"/>
<path d="M6079 620V621L-4793 621V620L6079 620Z" fill="#FDFCF8" fill-opacity="0.1"/>
<path d="M6079 651V652L-4793 652V651L6079 651Z" fill="#FDFCF8" fill-opacity="0.1"/>
<path d="M6079 682V683L-4793 683V682L6079 682Z" fill="#FDFCF8" fill-opacity="0.1"/>
<path d="M6079 713V714L-4793 714V713L6079 713Z" fill="#FDFCF8" fill-opacity="0.1"/>
<path d="M6079 744V745L-4793 745V744L6079 744Z" fill="#FDFCF8" fill-opacity="0.1"/>
<path d="M6079 775V776L-4793 776V775L6079 775Z" fill="#FDFCF8" fill-opacity="0.1"/>
<path d="M6079 806V807L-4793 807V806L6079 806Z" fill="#FDFCF8" fill-opacity="0.1"/>
<path d="M6079 837V838L-4793 838V837L6079 837Z" fill="#FDFCF8" fill-opacity="0.1"/>
<path d="M6079 868V869L-4793 869V868L6079 868Z" fill="#FDFCF8" fill-opacity="0.1"/>
<path d="M6079 899V900L-4793 900V899L6079 899Z" fill="#FDFCF8" fill-opacity="0.1"/>
<path d="M6079 930V931L-4793 931V930L6079 930Z" fill="#FDFCF8" fill-opacity="0.1"/>
<path d="M6079 961V962L-4793 962V961L6079 961Z" fill="#FDFCF8" fill-opacity="0.1"/>
<path d="M6079 992V993L-4793 993V992L6079 992Z" fill="#FDFCF8" fill-opacity="0.1"/>
<path d="M6079 1023V1024L-4793 1024V1023L6079 1023Z" fill="#FDFCF8" fill-opacity="0.1"/>
<path d="M6079 1054V1055L-4793 1055V1054L6079 1054Z" fill="#FDFCF8" fill-opacity="0.1"/>
<path d="M6079 1085V1086L-4793 1086V1085L6079 1085Z" fill="#FDFCF8" fill-opacity="0.1"/>
<path d="M6079 1116V1117L-4793 1117V1116L6079 1116Z" fill="#FDFCF8" fill-opacity="0.1"/>
<path d="M6079 1147V1148L-4793 1148V1147L6079 1147Z" fill="#FDFCF8" fill-opacity="0.1"/>
<path d="M6079 1178V1179L-4793 1179V1178L6079 1178Z" fill="#FDFCF8" fill-opacity="0.1"/>
<path d="M6079 1209V1210L-4793 1210V1209L6079 1209Z" fill="#FDFCF8" fill-opacity="0.1"/>
<path d="M6079 1240V1241L-4793 1241V1240L6079 1240Z" fill="#FDFCF8" fill-opacity="0.1"/>
<path d="M6079 1271V1272L-4793 1272V1271L6079 1271Z" fill="#FDFCF8" fill-opacity="0.1"/>
<path d="M6079 1302V1303L-4793 1303V1302L6079 1302Z" fill="#FDFCF8" fill-opacity="0.1"/>
<path d="M6079 1333V1334L-4793 1334V1333L6079 1333Z" fill="#FDFCF8" fill-opacity="0.1"/>
<path d="M6079 1364V1365L-4793 1365V1364L6079 1364Z" fill="#FDFCF8" fill-opacity="0.1"/>
<path d="M6079 1395V1396L-4793 1396V1395L6079 1395Z" fill="#FDFCF8" fill-opacity="0.1"/>
<path d="M6079 1426V1427L-4793 1427V1426L6079 1426Z" fill="#FDFCF8" fill-opacity="0.1"/>
<path d="M6079 1457V1458L-4793 1458V1457L6079 1457Z" fill="#FDFCF8" fill-opacity="0.1"/>
<path d="M6079 1488V1489L-4793 1489V1488L6079 1488Z" fill="#FDFCF8" fill-opacity="0.1"/>
<path d="M6079 1519V1520L-4793 1520V1519L6079 1519Z" fill="#FDFCF8" fill-opacity="0.1"/>
<path d="M6079 1550V1551L-4793 1551V1550L6079 1550Z" fill="#FDFCF8" fill-opacity="0.1"/>
<path d="M6079 1581V1582L-4793 1582V1581L6079 1581Z" fill="#FDFCF8" fill-opacity="0.1"/>
<path d="M6079 1612V1613L-4793 1613V1612L6079 1612Z" fill="#FDFCF8" fill-opacity="0.1"/>
<path d="M6079 1643V1644L-4793 1644V1643L6079 1643Z" fill="#FDFCF8" fill-opacity="0.1"/>
<path d="M6079 1674V1675L-4793 1675V1674L6079 1674Z" fill="#FDFCF8" fill-opacity="0.1"/>
<path d="M6079 1705V1706L-4793 1706V1705L6079 1705Z" fill="#FDFCF8" fill-opacity="0.1"/>
<path d="M6079 1736V1737L-4793 1737V1736L6079 1736Z" fill="#FDFCF8" fill-opacity="0.1"/>
<path d="M6079 1767V1768L-4793 1768V1767L6079 1767Z" fill="#FDFCF8" fill-opacity="0.1"/>
<path d="M6079 1798V1799L-4793 1799V1798L6079 1798Z" fill="#FDFCF8" fill-opacity="0.1"/>
<path d="M6079 1829V1830L-4793 1830V1829L6079 1829Z" fill="#FDFCF8" fill-opacity="0.1"/>
<path d="M6079 1860V1861L-4793 1861V1860L6079 1860Z" fill="#FDFCF8" fill-opacity="0.1"/>
<path d="M6079 1891V1892L-4793 1892V1891L6079 1891Z" fill="#FDFCF8" fill-opacity="0.1"/>
<path d="M6079 1922V1923L-4793 1923V1922L6079 1922Z" fill="#FDFCF8" fill-opacity="0.1"/>
<path d="M6079 1953V1954L-4793 1954V1953L6079 1953Z" fill="#FDFCF8" fill-opacity="0.1"/>
<path d="M6079 1984V1985L-4793 1985V1984L6079 1984Z" fill="#FDFCF8" fill-opacity="0.1"/>
<path d="M6079 2015V2016L-4793 2016V2015L6079 2015Z" fill="#FDFCF8" fill-opacity="0.1"/>
<path d="M6079 2046V2047L-4793 2047V2046L6079 2046Z" fill="#FDFCF8" fill-opacity="0.1"/>
<path d="M6079 2077V2078L-4793 2078V2077L6079 2077Z" fill="#FDFCF8" fill-opacity="0.1"/>
<path d="M6079 2108V2109L-4793 2109V2108L6079 2108Z" fill="#FDFCF8" fill-opacity="0.1"/>
<path d="M6079 2139V2140L-4793 2140V2139L6079 2139Z" fill="#FDFCF8" fill-opacity="0.1"/>
<path d="M6079 2170V2171L-4793 2171V2170L6079 2170Z" fill="#FDFCF8" fill-opacity="0.1"/>
<path d="M6079 2201V2202L-4793 2202V2201L6079 2201Z" fill="#FDFCF8" fill-opacity="0.1"/>
<path d="M6079 2232V2233L-4793 2233V2232L6079 2232Z" fill="#FDFCF8" fill-opacity="0.1"/>
<path d="M6079 2263V2264L-4793 2264V2263L6079 2263Z" fill="#FDFCF8" fill-opacity="0.1"/>
<path d="M6079 2294V2295L-4793 2295V2294L6079 2294Z" fill="#FDFCF8" fill-opacity="0.1"/>
<path d="M6079 2325V2326L-4793 2326V2325L6079 2325Z" fill="#FDFCF8" fill-opacity="0.1"/>
<path d="M6079 2356V2357L-4793 2357V2356L6079 2356Z" fill="#FDFCF8" fill-opacity="0.1"/>
<path d="M6079 2387V2388L-4793 2388V2387L6079 2387Z" fill="#FDFCF8" fill-opacity="0.1"/>
<path d="M6079 2418V2419L-4793 2419V2418L6079 2418Z" fill="#FDFCF8" fill-opacity="0.1"/>
<path d="M6079 2449V2450L-4793 2450V2449L6079 2449Z" fill="#FDFCF8" fill-opacity="0.1"/>
<path d="M6079 2480V2481L-4793 2481V2480L6079 2480Z" fill="#FDFCF8" fill-opacity="0.1"/>
<path d="M6079 2511V2512L-4793 2512V2511L6079 2511Z" fill="#FDFCF8" fill-opacity="0.1"/>
<path d="M6079 2542V2543L-4793 2543V2542L6079 2542Z" fill="#FDFCF8" fill-opacity="0.1"/>
<path d="M6079 2573V2574L-4793 2574V2573L6079 2573Z" fill="#FDFCF8" fill-opacity="0.1"/>
<path d="M6079 2604V2605L-4793 2605V2604L6079 2604Z" fill="#FDFCF8" fill-opacity="0.1"/>
<path d="M6079 2635V2636L-4793 2636V2635L6079 2635Z" fill="#FDFCF8" fill-opacity="0.1"/>
<path d="M6079 2666V2667L-4793 2667V2666L6079 2666Z" fill="#FDFCF8" fill-opacity="0.1"/>
<path d="M6079 2697V2698L-4793 2698V2697L6079 2697Z" fill="#FDFCF8" fill-opacity="0.1"/>
<path d="M6079 2728V2729L-4793 2729V2728L6079 2728Z" fill="#FDFCF8" fill-opacity="0.1"/>
<path d="M6079 2759V2760L-4793 2760V2759L6079 2759Z" fill="#FDFCF8" fill-opacity="0.1"/>
<path d="M6079 2790V2791L-4793 2791V2790L6079 2790Z" fill="#FDFCF8" fill-opacity="0.1"/>
<path d="M6079 2821V2822L-4793 2822V2821L6079 2821Z" fill="#FDFCF8" fill-opacity="0.1"/>
<path d="M6079 2852V2853L-4793 2853V2852L6079 2852Z" fill="#FDFCF8" fill-opacity="0.1"/>
<path d="M6079 2883V2884L-4793 2884V2883L6079 2883Z" fill="#FDFCF8" fill-opacity="0.1"/>
<path d="M6079 2914V2915L-4793 2915V2914L6079 2914Z" fill="#FDFCF8" fill-opacity="0.1"/>
<path d="M6079 2945V2946L-4793 2946V2945L6079 2945Z" fill="#FDFCF8" fill-opacity="0.1"/>
<path d="M6079 2976V2977L-4793 2977V2976L6079 2976Z" fill="#FDFCF8" fill-opacity="0.1"/>
<path d="M6079 3007V3008L-4793 3008V3007L6079 3007Z" fill="#FDFCF8" fill-opacity="0.1"/>
<path d="M6079 3038V3039L-4793 3039V3038L6079 3038Z" fill="#FDFCF8" fill-opacity="0.1"/>
<path d="M6079 3069V3070L-4793 3070V3069L6079 3069Z" fill="#FDFCF8" fill-opacity="0.1"/>
<path d="M6079 3100V3101L-4793 3101V3100L6079 3100Z" fill="#FDFCF8" fill-opacity="0.1"/>
<path d="M6079 3131V3132L-4793 3132V3131L6079 3131Z" fill="#FDFCF8" fill-opacity="0.1"/>
<path d="M6079 3162V3163L-4793 3163V3162L6079 3162Z" fill="#FDFCF8" fill-opacity="0.1"/>
<path d="M6079 3193V3194L-4793 3194V3193L6079 3193Z" fill="#FDFCF8" fill-opacity="0.1"/>
<path d="M6079 3224V3225L-4793 3225V3224L6079 3224Z" fill="#FDFCF8" fill-opacity="0.1"/>
<path d="M6079 3255V3256L-4793 3256V3255L6079 3255Z" fill="#FDFCF8" fill-opacity="0.1"/>
<path d="M6079 3286V3287L-4793 3287V3286L6079 3286Z" fill="#FDFCF8" fill-opacity="0.1"/>
<path d="M6079 3317V3318L-4793 3318V3317L6079 3317Z" fill="#FDFCF8" fill-opacity="0.1"/>
<path d="M6079 3348V3349L-4793 3349V3348L6079 3348Z" fill="#FDFCF8" fill-opacity="0.1"/>
<path d="M6079 3379V3380L-4793 3380V3379L6079 3379Z" fill="#FDFCF8" fill-opacity="0.1"/>
<path d="M6079 3410V3411L-4793 3411V3410L6079 3410Z" fill="#FDFCF8" fill-opacity="0.1"/>
<path d="M6079 3441V3442L-4793 3442V3441L6079 3441Z" fill="#FDFCF8" fill-opacity="0.1"/>
<path d="M6079 3472V3473L-4793 3473V3472L6079 3472Z" fill="#FDFCF8" fill-opacity="0.1"/>
<path d="M6079 3503V3504L-4793 3504V3503L6079 3503Z" fill="#FDFCF8" fill-opacity="0.1"/>
<path d="M6079 3534V3535L-4793 3535V3534L6079 3534Z" fill="#FDFCF8" fill-opacity="0.1"/>
<path d="M6079 3565V3566L-4793 3566V3565L6079 3565Z" fill="#FDFCF8" fill-opacity="0.1"/>
<path d="M6079 3596V3597L-4793 3597V3596L6079 3596Z" fill="#FDFCF8" fill-opacity="0.1"/>
<path d="M6079 3627V3628L-4793 3628V3627L6079 3627Z" fill="#FDFCF8" fill-opacity="0.1"/>
<path d="M6079 3658V3659L-4793 3659V3658L6079 3658Z" fill="#FDFCF8" fill-opacity="0.1"/>
<path d="M6079 3689V3690L-4793 3690V3689L6079 3689Z" fill="#FDFCF8" fill-opacity="0.1"/>
<path d="M6079 3720V3721L-4793 3721V3720L6079 3720Z" fill="#FDFCF8" fill-opacity="0.1"/>
<path d="M6079 3751V3752L-4793 3752V3751L6079 3751Z" fill="#FDFCF8" fill-opacity="0.1"/>
<path d="M6079 3782V3783L-4793 3783V3782L6079 3782Z" fill="#FDFCF8" fill-opacity="0.1"/>
<path d="M6079 3813V3814L-4793 3814V3813L6079 3813Z" fill="#FDFCF8" fill-opacity="0.1"/>
<path d="M6079 3844V3845L-4793 3845V3844L6079 3844Z" fill="#FDFCF8" fill-opacity="0.1"/>
<path d="M6079 3875V3876L-4793 3876V3875L6079 3875Z" fill="#FDFCF8" fill-opacity="0.1"/>
<path d="M6079 3906V3907L-4793 3907V3906L6079 3906Z" fill="#FDFCF8" fill-opacity="0.1"/>
<path d="M6079 3937V3938L-4793 3938V3937L6079 3937Z" fill="#FDFCF8" fill-opacity="0.1"/>
<path d="M6079 3968V3969L-4793 3969V3968L6079 3968Z" fill="#FDFCF8" fill-opacity="0.1"/>
<path d="M6079 3999V4000L-4793 4000V3999L6079 3999Z" fill="#FDFCF8" fill-opacity="0.1"/>
<path d="M6079 4030V4031L-4793 4031V4030L6079 4030Z" fill="#FDFCF8" fill-opacity="0.1"/>
<path d="M6079 4061V4062L-4793 4062V4061L6079 4061Z" fill="#FDFCF8" fill-opacity="0.1"/>
<path d="M6079 4092V4093L-4793 4093V4092L6079 4092Z" fill="#FDFCF8" fill-opacity="0.1"/>
<path d="M6079 4123V4124L-4793 4124V4123L6079 4123Z" fill="#FDFCF8" fill-opacity="0.1"/>
<path d="M6079 4154V4155L-4793 4155V4154L6079 4154Z" fill="#FDFCF8" fill-opacity="0.1"/>
<path d="M6079 4185V4186L-4793 4186V4185L6079 4185Z" fill="#FDFCF8" fill-opacity="0.1"/>
<path d="M6079 4216V4217L-4793 4217V4216L6079 4216Z" fill="#FDFCF8" fill-opacity="0.1"/>
<path d="M6079 4247V4248L-4793 4248V4247L6079 4247Z" fill="#FDFCF8" fill-opacity="0.1"/>
<path d="M6079 4278V4279L-4793 4279V4278L6079 4278Z" fill="#FDFCF8" fill-opacity="0.1"/>
<path d="M6079 4309V4310L-4793 4310V4309L6079 4309Z" fill="#FDFCF8" fill-opacity="0.1"/>
<path d="M6079 4340V4341L-4793 4341V4340L6079 4340Z" fill="#FDFCF8" fill-opacity="0.1"/>
<path d="M6079 4371V4372L-4793 4372V4371L6079 4371Z" fill="#FDFCF8" fill-opacity="0.1"/>
<path d="M6079 4402V4403L-4793 4403V4402L6079 4402Z" fill="#FDFCF8" fill-opacity="0.1"/>
<path d="M6079 4433V4434L-4793 4434V4433L6079 4433Z" fill="#FDFCF8" fill-opacity="0.1"/>
<path d="M6079 4464V4465L-4793 4465V4464L6079 4464Z" fill="#FDFCF8" fill-opacity="0.1"/>
<path d="M6079 4495V4496L-4793 4496V4495L6079 4495Z" fill="#FDFCF8" fill-opacity="0.1"/>
<path d="M6079 4526V4527L-4793 4527V4526L6079 4526Z" fill="#FDFCF8" fill-opacity="0.1"/>
<path d="M6079 4557V4558L-4793 4558V4557L6079 4557Z" fill="#FDFCF8" fill-opacity="0.1"/>
<path d="M6079 4588V4589L-4793 4589V4588L6079 4588Z" fill="#FDFCF8" fill-opacity="0.1"/>
<path d="M6079 4619V4620L-4793 4620V4619L6079 4619Z" fill="#FDFCF8" fill-opacity="0.1"/>
<path d="M6079 4650V4651L-4793 4651V4650L6079 4650Z" fill="#FDFCF8" fill-opacity="0.1"/>
<path d="M6079 4681V4682L-4793 4682V4681L6079 4681Z" fill="#FDFCF8" fill-opacity="0.1"/>
<path d="M6079 4712V4713L-4793 4713V4712L6079 4712Z" fill="#FDFCF8" fill-opacity="0.1"/>
<path d="M6079 4743V4744L-4793 4744V4743L6079 4743Z" fill="#FDFCF8" fill-opacity="0.1"/>
<path d="M6079 4774V4775L-4793 4775V4774L6079 4774Z" fill="#FDFCF8" fill-opacity="0.1"/>
<path d="M6079 4805V4806L-4793 4806V4805L6079 4805Z" fill="#FDFCF8" fill-opacity="0.1"/>
<path d="M6079 4836V4837L-4793 4837V4836L6079 4836Z" fill="#FDFCF8" fill-opacity="0.1"/>
<path d="M6079 4867V4868L-4793 4868V4867L6079 4867Z" fill="#FDFCF8" fill-opacity="0.1"/>
<path d="M6079 4898V4899L-4793 4899V4898L6079 4898Z" fill="#FDFCF8" fill-opacity="0.1"/>
<path d="M6079 4929V4930L-4793 4930V4929L6079 4929Z" fill="#FDFCF8" fill-opacity="0.1"/>
<path d="M6079 4960V4961L-4793 4961V4960L6079 4960Z" fill="#FDFCF8" fill-opacity="0.1"/>
<path d="M6079 4991V4992L-4793 4992V4991L6079 4991Z" fill="#FDFCF8" fill-opacity="0.1"/>
<path d="M6079 5022V5023L-4793 5023V5022L6079 5022Z" fill="#FDFCF8" fill-opacity="0.1"/>
<path d="M6079 5053V5054L-4793 5054V5053L6079 5053Z" fill="#FDFCF8" fill-opacity="0.1"/>
<path d="M6079 5084V5085L-4793 5085V5084L6079 5084Z" fill="#FDFCF8" fill-opacity="0.1"/>
<path d="M6079 5115V5116L-4793 5116V5115L6079 5115Z" fill="#FDFCF8" fill-opacity="0.1"/>
<path d="M6079 5146V5147L-4793 5147V5146L6079 5146Z" fill="#FDFCF8" fill-opacity="0.1"/>
<path d="M6079 5177V5178L-4793 5178V5177L6079 5177Z" fill="#FDFCF8" fill-opacity="0.1"/>
<path d="M6079 5208V5209L-4793 5209V5208L6079 5208Z" fill="#FDFCF8" fill-opacity="0.1"/>
<path d="M6079 5239V5240L-4793 5240V5239L6079 5239Z" fill="#FDFCF8" fill-opacity="0.1"/>
<path d="M6079 5270V5271L-4793 5271V5270L6079 5270Z" fill="#FDFCF8" fill-opacity="0.1"/>
<path d="M6079 5301V5302L-4793 5302V5301L6079 5301Z" fill="#FDFCF8" fill-opacity="0.1"/>
<path d="M6079 5332V5333L-4793 5333V5332L6079 5332Z" fill="#FDFCF8" fill-opacity="0.1"/>
<path d="M6079 5363V5364L-4793 5364V5363L6079 5363Z" fill="#FDFCF8" fill-opacity="0.1"/>
<path d="M6079 5394V5395L-4793 5395V5394L6079 5394Z" fill="#FDFCF8" fill-opacity="0.1"/>
<path d="M6079 5425V5426L-4793 5426V5425L6079 5425Z" fill="#FDFCF8" fill-opacity="0.1"/>
<path d="M6079 5456V5457L-4793 5457V5456L6079 5456Z" fill="#FDFCF8" fill-opacity="0.1"/>
<path d="M6079 5487V5488L-4793 5488V5487L6079 5487Z" fill="#FDFCF8" fill-opacity="0.1"/>
<path d="M6079 5518V5519L-4793 5519V5518L6079 5518Z" fill="#FDFCF8" fill-opacity="0.1"/>
<path d="M6079 5549V5550L-4793 5550V5549L6079 5549Z" fill="#FDFCF8" fill-opacity="0.1"/>
<path d="M6079 5580V5581L-4793 5581V5580L6079 5580Z" fill="#FDFCF8" fill-opacity="0.1"/>
<path d="M6079 5611V5612L-4793 5612V5611L6079 5611Z" fill="#FDFCF8" fill-opacity="0.1"/>
<path d="M6079 5642V5643L-4793 5643V5642L6079 5642Z" fill="#FDFCF8" fill-opacity="0.1"/>
<path d="M6079 5673V5674L-4793 5674V5673L6079 5673Z" fill="#FDFCF8" fill-opacity="0.1"/>
<path d="M6079 5704V5705L-4793 5705V5704L6079 5704Z" fill="#FDFCF8" fill-opacity="0.1"/>
<path d="M6079 5735V5736L-4793 5736V5735L6079 5735Z" fill="#FDFCF8" fill-opacity="0.1"/>
<path d="M6079 5766V5767L-4793 5767V5766L6079 5766Z" fill="#FDFCF8" fill-opacity="0.1"/>
<path d="M6079 5797V5798L-4793 5798V5797L6079 5797Z" fill="#FDFCF8" fill-opacity="0.1"/>
<path d="M6079 5828V5829L-4793 5829V5828L6079 5828Z" fill="#FDFCF8" fill-opacity="0.1"/>
<path d="M6079 5859V5860L-4793 5860V5859L6079 5859Z" fill="#FDFCF8" fill-opacity="0.1"/>
<path d="M6079 5890V5891L-4793 5891V5890L6079 5890Z" fill="#FDFCF8" fill-opacity="0.1"/>
<path d="M6079 5921V5922L-4793 5922V5921L6079 5921Z" fill="#FDFCF8" fill-opacity="0.1"/>
<path d="M6079 5952V5953L-4793 5953V5952L6079 5952Z" fill="#FDFCF8" fill-opacity="0.1"/>
<path d="M6079 5983V5984L-4793 5984V5983L6079 5983Z" fill="#FDFCF8" fill-opacity="0.1"/>
<path d="M6079 6014V6015L-4793 6015V6014L6079 6014Z" fill="#FDFCF8" fill-opacity="0.1"/>
<path d="M6079 6045V6046L-4793 6046V6045L6079 6045Z" fill="#FDFCF8" fill-opacity="0.1"/>
<path d="M6079 6076V6077L-4793 6077V6076L6079 6076Z" fill="#FDFCF8" fill-opacity="0.1"/>
<path d="M6079 6107V6108L-4793 6108V6107L6079 6107Z" fill="#FDFCF8" fill-opacity="0.1"/>
<path d="M6079 6138V6139L-4793 6139V6138L6079 6138Z" fill="#FDFCF8" fill-opacity="0.1"/>
<path d="M6079 6169V6170L-4793 6170V6169L6079 6169Z" fill="#FDFCF8" fill-opacity="0.1"/>
<path d="M6079 6200V6201L-4793 6201V6200L6079 6200Z" fill="#FDFCF8" fill-opacity="0.1"/>
<path d="M6079 6231V6232L-4793 6232V6231L6079 6231Z" fill="#FDFCF8" fill-opacity="0.1"/>
<path d="M6079 6262V6263L-4793 6263V6262L6079 6262Z" fill="#FDFCF8" fill-opacity="0.1"/>
<path d="M6079 6293V6294L-4793 6294V6293L6079 6293Z" fill="#FDFCF8" fill-opacity="0.1"/>
<path d="M6079 6324V6325L-4793 6325V6324L6079 6324Z" fill="#FDFCF8" fill-opacity="0.1"/>
<path d="M6079 6355V6356L-4793 6356V6355L6079 6355Z" fill="#FDFCF8" fill-opacity="0.1"/>
<path d="M6079 6386V6387L-4793 6387V6386L6079 6386Z" fill="#FDFCF8" fill-opacity="0.1"/>
<path d="M6079 6417V6418L-4793 6418V6417L6079 6417Z" fill="#FDFCF8" fill-opacity="0.1"/>
<path d="M6079 6448V6449L-4793 6449V6448L6079 6448Z" fill="#FDFCF8" fill-opacity="0.1"/>
<path d="M6079 6479V6480L-4793 6480V6479L6079 6479Z" fill="#FDFCF8" fill-opacity="0.1"/>
<path d="M6079 6510V6511L-4793 6511V6510L6079 6510Z" fill="#FDFCF8" fill-opacity="0.1"/>
<path d="M6079 6541V6542L-4793 6542V6541L6079 6541Z" fill="#FDFCF8" fill-opacity="0.1"/>
<path d="M6079 6572V6573L-4793 6573V6572L6079 6572Z" fill="#FDFCF8" fill-opacity="0.1"/>
<path d="M6079 6603V6604L-4793 6604V6603L6079 6603Z" fill="#FDFCF8" fill-opacity="0.1"/>
<path d="M6079 6634V6635L-4793 6635V6634L6079 6634Z" fill="#FDFCF8" fill-opacity="0.1"/>
<path d="M6079 6665V6666L-4793 6666V6665L6079 6665Z" fill="#FDFCF8" fill-opacity="0.1"/>
<path d="M6079 6696V6697L-4793 6697V6696L6079 6696Z" fill="#FDFCF8" fill-opacity="0.1"/>
<path d="M6079 6727V6728L-4793 6728V6727L6079 6727Z" fill="#FDFCF8" fill-opacity="0.1"/>
<path d="M6079 6758V6759L-4793 6759V6758L6079 6758Z" fill="#FDFCF8" fill-opacity="0.1"/>
<path d="M6079 6789V6790L-4793 6790V6789L6079 6789Z" fill="#FDFCF8" fill-opacity="0.1"/>
<path d="M6079 6820V6821L-4793 6821V6820L6079 6820Z" fill="#FDFCF8" fill-opacity="0.1"/>
<path d="M6079 6851V6852L-4793 6852V6851L6079 6851Z" fill="#FDFCF8" fill-opacity="0.1"/>
<path d="M6079 6882V6883L-4793 6883V6882L6079 6882Z" fill="#FDFCF8" fill-opacity="0.1"/>
<path d="M6079 6913V6914L-4793 6914V6913L6079 6913Z" fill="#FDFCF8" fill-opacity="0.1"/>
<path d="M6079 6944V6945L-4793 6945V6944L6079 6944Z" fill="#FDFCF8" fill-opacity="0.1"/>
<path d="M6079 6975V6976L-4793 6976V6975L6079 6975Z" fill="#FDFCF8" fill-opacity="0.1"/>
<path d="M6079 7006V7007L-4793 7007V7006L6079 7006Z" fill="#FDFCF8" fill-opacity="0.1"/>
<path d="M6079 7037V7038L-4793 7038V7037L6079 7037Z" fill="#FDFCF8" fill-opacity="0.1"/>
<path d="M6079 7068V7069L-4793 7069V7068L6079 7068Z" fill="#FDFCF8" fill-opacity="0.1"/>
<path d="M6079 7099V7100L-4793 7100V7099L6079 7099Z" fill="#FDFCF8" fill-opacity="0.1"/>
<path d="M6079 7130V7131L-4793 7131V7130L6079 7130Z" fill="#FDFCF8" fill-opacity="0.1"/>
<path d="M6079 7161V7162L-4793 7162V7161L6079 7161Z" fill="#FDFCF8" fill-opacity="0.1"/>
<path d="M6079 7192V7193L-4793 7193V7192L6079 7192Z" fill="#FDFCF8" fill-opacity="0.1"/>
<path d="M6079 7223V7224L-4793 7224V7223L6079 7223Z" fill="#FDFCF8" fill-opacity="0.1"/>
<path d="M6079 7254V7255L-4793 7255V7254L6079 7254Z" fill="#FDFCF8" fill-opacity="0.1"/>
<path d="M6079 7285V7286L-4793 7286V7285L6079 7285Z" fill="#FDFCF8" fill-opacity="0.1"/>
<path d="M6079 7316V7317L-4793 7317V7316L6079 7316Z" fill="#FDFCF8" fill-opacity="0.1"/>
<path d="M6079 7347V7348L-4793 7348V7347L6079 7347Z" fill="#FDFCF8" fill-opacity="0.1"/>
<path d="M6079 7378V7379L-4793 7379V7378L6079 7378Z" fill="#FDFCF8" fill-opacity="0.1"/>
<path d="M6079 7409V7410L-4793 7410V7409L6079 7409Z" fill="#FDFCF8" fill-opacity="0.1"/>
<path d="M6079 7440V7441L-4793 7441V7440L6079 7440Z" fill="#FDFCF8" fill-opacity="0.1"/>
<path d="M6079 7471V7472L-4793 7472V7471L6079 7471Z" fill="#FDFCF8" fill-opacity="0.1"/>
<path d="M6079 7502V7503L-4793 7503V7502L6079 7502Z" fill="#FDFCF8" fill-opacity="0.1"/>
<path d="M6079 7533V7534L-4793 7534V7533L6079 7533Z" fill="#FDFCF8" fill-opacity="0.1"/>
<path d="M6079 7564V7565L-4793 7565V7564L6079 7564Z" fill="#FDFCF8" fill-opacity="0.1"/>
<path d="M6079 7595V7596L-4793 7596V7595L6079 7595Z" fill="#FDFCF8" fill-opacity="0.1"/>
<path d="M6079 7626V7627L-4793 7627V7626L6079 7626Z" fill="#FDFCF8" fill-opacity="0.1"/>
<path d="M6079 7657V7658L-4793 7658V7657L6079 7657Z" fill="#FDFCF8" fill-opacity="0.1"/>
<path d="M6079 7688V7689L-4793 7689V7688L6079 7688Z" fill="#FDFCF8" fill-opacity="0.1"/>
<path d="M6079 7719V7720L-4793 7720V7719L6079 7719Z" fill="#FDFCF8" fill-opacity="0.1"/>
<path d="M6079 7750V7751L-4793 7751V7750L6079 7750Z" fill="#FDFCF8" fill-opacity="0.1"/>
<path d="M6079 7781V7782L-4793 7782V7781L6079 7781Z" fill="#FDFCF8" fill-opacity="0.1"/>
<path d="M6079 7812V7813L-4793 7813V7812L6079 7812Z" fill="#FDFCF8" fill-opacity="0.1"/>
<path d="M6079 7843V7844L-4793 7844V7843L6079 7843Z" fill="#FDFCF8" fill-opacity="0.1"/>
<path d="M6079 7874V7875L-4793 7875V7874L6079 7874Z" fill="#FDFCF8" fill-opacity="0.1"/>
<path d="M6079 7905V7906L-4793 7906V7905L6079 7905Z" fill="#FDFCF8" fill-opacity="0.1"/>
<path d="M6079 7936V7937L-4793 7937V7936L6079 7936Z" fill="#FDFCF8" fill-opacity="0.1"/>
<path d="M6079 7967V7968L-4793 7968V7967L6079 7967Z" fill="#FDFCF8" fill-opacity="0.1"/>
<path d="M6079 7998V7999L-4793 7999V7998L6079 7998Z" fill="#FDFCF8" fill-opacity="0.1"/>
<path d="M6079 8029V8030L-4793 8030V8029L6079 8029Z" fill="#FDFCF8" fill-opacity="0.1"/>
<path d="M6079 8060V8061L-4793 8061V8060L6079 8060Z" fill="#FDFCF8" fill-opacity="0.1"/>
<path d="M6079 8091V8092L-4793 8092V8091L6079 8091Z" fill="#FDFCF8" fill-opacity="0.1"/>
<path d="M6079 8122V8123L-4793 8123V8122L6079 8122Z" fill="#FDFCF8" fill-opacity="0.1"/>
<path d="M6079 8153V8154L-4793 8154V8153L6079 8153Z" fill="#FDFCF8" fill-opacity="0.1"/>
<path d="M6079 8184V8185L-4793 8185V8184L6079 8184Z" fill="#FDFCF8" fill-opacity="0.1"/>
<path d="M6079 8215V8216L-4793 8216V8215L6079 8215Z" fill="#FDFCF8" fill-opacity="0.1"/>
<path d="M6079 8246V8247L-4793 8247V8246L6079 8246Z" fill="#FDFCF8" fill-opacity="0.1"/>
<path d="M6079 8277V8278L-4793 8278V8277L6079 8277Z" fill="#FDFCF8" fill-opacity="0.1"/>
<path d="M6079 8308V8309L-4793 8309V8308L6079 8308Z" fill="#FDFCF8" fill-opacity="0.1"/>
<path d="M6079 8339V8340L-4793 8340V8339L6079 8339Z" fill="#FDFCF8" fill-opacity="0.1"/>
<path d="M6079 8370V8371L-4793 8371V8370L6079 8370Z" fill="#FDFCF8" fill-opacity="0.1"/>
<path d="M6079 8401V8402L-4793 8402V8401L6079 8401Z" fill="#FDFCF8" fill-opacity="0.1"/>
<path d="M6079 8432V8433L-4793 8433V8432L6079 8432Z" fill="#FDFCF8" fill-opacity="0.1"/>
<path d="M6079 8463V8464L-4793 8464V8463L6079 8463Z" fill="#FDFCF8" fill-opacity="0.1"/>
<path d="M6079 8494V8495L-4793 8495V8494L6079 8494Z" fill="#FDFCF8" fill-opacity="0.1"/>
<path d="M6079 8525V8526L-4793 8526V8525L6079 8525Z" fill="#FDFCF8" fill-opacity="0.1"/>
<path d="M6079 8556V8557L-4793 8557V8556L6079 8556Z" fill="#FDFCF8" fill-opacity="0.1"/>
<path d="M6079 8587V8588L-4793 8588V8587L6079 8587Z" fill="#FDFCF8" fill-opacity="0.1"/>
<path d="M6079 8618V8619L-4793 8619V8618L6079 8618Z" fill="#FDFCF8" fill-opacity="0.1"/>
<path d="M6079 8649V8650L-4793 8650V8649L6079 8649Z" fill="#FDFCF8" fill-opacity="0.1"/>
<path d="M6079 8680V8681L-4793 8681V8680L6079 8680Z" fill="#FDFCF8" fill-opacity="0.1"/>
<path d="M6079 8711V8712L-4793 8712V8711L6079 8711Z" fill="#FDFCF8" fill-opacity="0.1"/>
<path d="M6079 8742V8743L-4793 8743V8742L6079 8742Z" fill="#FDFCF8" fill-opacity="0.1"/>
<path d="M6079 8773V8774L-4793 8774V8773L6079 8773Z" fill="#FDFCF8" fill-opacity="0.1"/>
<path d="M6079 8804V8805L-4793 8805V8804L6079 8804Z" fill="#FDFCF8" fill-opacity="0.1"/>
<path d="M6079 8835V8836L-4793 8836V8835L6079 8835Z" fill="#FDFCF8" fill-opacity="0.1"/>
<path d="M6079 8866V8867L-4793 8867V8866L6079 8866Z" fill="#FDFCF8" fill-opacity="0.1"/>
<path d="M6079 8897V8898L-4793 8898V8897L6079 8897Z" fill="#FDFCF8" fill-opacity="0.1"/>
<path d="M6079 8928V8929L-4793 8929V8928L6079 8928Z" fill="#FDFCF8" fill-opacity="0.1"/>
<path d="M6079 8959V8960L-4793 8960V8959L6079 8959Z" fill="#FDFCF8" fill-opacity="0.1"/>
<path d="M6079 8990V8991L-4793 8991V8990L6079 8990Z" fill="#FDFCF8" fill-opacity="0.1"/>
<path d="M6079 9021V9022L-4793 9022V9021L6079 9021Z" fill="#FDFCF8" fill-opacity="0.1"/>
<path d="M6079 9052V9053L-4793 9053V9052L6079 9052Z" fill="#FDFCF8" fill-opacity="0.1"/>
<path d="M6079 9083V9084L-4793 9084V9083L6079 9083Z" fill="#FDFCF8" fill-opacity="0.1"/>
<path d="M6079 9114V9115L-4793 9115V9114L6079 9114Z" fill="#FDFCF8" fill-opacity="0.1"/>
<path d="M6079 9145V9146L-4793 9146V9145L6079 9145Z" fill="#FDFCF8" fill-opacity="0.1"/>
<path d="M6079 9176V9177L-4793 9177V9176L6079 9176Z" fill="#FDFCF8" fill-opacity="0.1"/>
<path d="M6079 9207V9208L-4793 9208V9207L6079 9207Z" fill="#FDFCF8" fill-opacity="0.1"/>
<path d="M6079 9238V9239L-4793 9239V9238L6079 9238Z" fill="#FDFCF8" fill-opacity="0.1"/>
<path d="M6079 9269V9270L-4793 9270V9269L6079 9269Z" fill="#FDFCF8" fill-opacity="0.1"/>
<path d="M6079 9300V9301L-4793 9301V9300L6079 9300Z" fill="#FDFCF8" fill-opacity="0.1"/>
<path d="M6079 9331V9332L-4793 9332V9331L6079 9331Z" fill="#FDFCF8" fill-opacity="0.1"/>
<path d="M6079 9362V9363L-4793 9363V9362L6079 9362Z" fill="#FDFCF8" fill-opacity="0.1"/>
<path d="M6079 9393V9394L-4793 9394V9393L6079 9393Z" fill="#FDFCF8" fill-opacity="0.1"/>
<path d="M6079 9424V9425L-4793 9425V9424L6079 9424Z" fill="#FDFCF8" fill-opacity="0.1"/>
<path d="M6079 9455V9456L-4793 9456V9455L6079 9455Z" fill="#FDFCF8" fill-opacity="0.1"/>
<path d="M6079 9486V9487L-4793 9487V9486L6079 9486Z" fill="#FDFCF8" fill-opacity="0.1"/>
<path d="M6079 9517V9518L-4793 9518V9517L6079 9517Z" fill="#FDFCF8" fill-opacity="0.1"/>
<path d="M6079 9548V9549L-4793 9549V9548L6079 9548Z" fill="#FDFCF8" fill-opacity="0.1"/>
<path d="M6079 9579V9580L-4793 9580V9579L6079 9579Z" fill="#FDFCF8" fill-opacity="0.1"/>
<path d="M6079 9610V9611L-4793 9611V9610L6079 9610Z" fill="#FDFCF8" fill-opacity="0.1"/>
<path d="M6079 9641V9642L-4793 9642V9641L6079 9641Z" fill="#FDFCF8" fill-opacity="0.1"/>
<path d="M6079 9672V9673L-4793 9673V9672L6079 9672Z" fill="#FDFCF8" fill-opacity="0.1"/>
<path d="M6079 9703V9704L-4793 9704V9703L6079 9703Z" fill="#FDFCF8" fill-opacity="0.1"/>
<path d="M6079 9734V9735L-4793 9735V9734L6079 9734Z" fill="#FDFCF8" fill-opacity="0.1"/>
<path d="M6079 9765V9766L-4793 9766V9765L6079 9765Z" fill="#FDFCF8" fill-opacity="0.1"/>
<path d="M6079 9796V9797L-4793 9797V9796L6079 9796Z" fill="#FDFCF8" fill-opacity="0.1"/>
<path d="M6079 9827V9828L-4793 9828V9827L6079 9827Z" fill="#FDFCF8" fill-opacity="0.1"/>
<path d="M6079 9858V9859L-4793 9859V9858L6079 9858Z" fill="#FDFCF8" fill-opacity="0.1"/>
<path d="M6079 9889V9890L-4793 9890V9889L6079 9889Z" fill="#FDFCF8" fill-opacity="0.1"/>
<path d="M6079 9920V9921L-4793 9921V9920L6079 9920Z" fill="#FDFCF8" fill-opacity="0.1"/>
<path d="M6079 9951V9952L-4793 9952V9951L6079 9951Z" fill="#FDFCF8" fill-opacity="0.1"/>
<path d="M6079 9982V9983L-4793 9983V9982L6079 9982Z" fill="#FDFCF8" fill-opacity="0.1"/>
<path d="M6079 10013V10014L-4793 10014V10013L6079 10013Z" fill="#FDFCF8" fill-opacity="0.1"/>
<path d="M6079 10044V10045L-4793 10045V10044L6079 10044Z" fill="#FDFCF8" fill-opacity="0.1"/>
<path d="M6079 10075V10076L-4793 10076V10075L6079 10075Z" fill="#FDFCF8" fill-opacity="0.1"/>
<path d="M6079 10106V10107L-4793 10107V10106L6079 10106Z" fill="#FDFCF8" fill-opacity="0.1"/>
<path d="M6079 10137V10138L-4793 10138V10137L6079 10137Z" fill="#FDFCF8" fill-opacity="0.1"/>
<path d="M6079 10168V10169L-4793 10169V10168L6079 10168Z" fill="#FDFCF8" fill-opacity="0.1"/>
<path d="M6079 10199V10200L-4793 10200V10199L6079 10199Z" fill="#FDFCF8" fill-opacity="0.1"/>
<path d="M6079 10230V10231L-4793 10231V10230L6079 10230Z" fill="#FDFCF8" fill-opacity="0.1"/>
<path d="M6079 10261V10262L-4793 10262V10261L6079 10261Z" fill="#FDFCF8" fill-opacity="0.1"/>
<path d="M6079 10292V10293L-4793 10293V10292L6079 10292Z" fill="#FDFCF8" fill-opacity="0.1"/>
<path d="M6079 10323V10324L-4793 10324V10323L6079 10323Z" fill="#FDFCF8" fill-opacity="0.1"/>
<path d="M6079 10354V10355L-4793 10355V10354L6079 10354Z" fill="#FDFCF8" fill-opacity="0.1"/>
<path d="M6079 10385V10386L-4793 10386V10385L6079 10385Z" fill="#FDFCF8" fill-opacity="0.1"/>
<path d="M6079 10416V10417L-4793 10417V10416L6079 10416Z" fill="#FDFCF8" fill-opacity="0.1"/>
<path d="M6079 10447V10448L-4793 10448V10447L6079 10447Z" fill="#FDFCF8" fill-opacity="0.1"/>
<path d="M6079 10478V10479L-4793 10479V10478L6079 10478Z" fill="#FDFCF8" fill-opacity="0.1"/>
<path d="M6079 10509V10510L-4793 10510V10509L6079 10509Z" fill="#FDFCF8" fill-opacity="0.1"/>
<path d="M6079 10540V10541L-4793 10541V10540L6079 10540Z" fill="#FDFCF8" fill-opacity="0.1"/>
<path d="M6079 10571V10572L-4793 10572V10571L6079 10571Z" fill="#FDFCF8" fill-opacity="0.1"/>
<path d="M6079 10602V10603L-4793 10603V10602L6079 10602Z" fill="#FDFCF8" fill-opacity="0.1"/>
<path d="M6079 10633V10634L-4793 10634V10633L6079 10633Z" fill="#FDFCF8" fill-opacity="0.1"/>
<path d="M6079 10664V10665L-4793 10665V10664L6079 10664Z" fill="#FDFCF8" fill-opacity="0.1"/>
<path d="M6079 10695V10696L-4793 10696V10695L6079 10695Z" fill="#FDFCF8" fill-opacity="0.1"/>
<path d="M6079 10726V10727L-4793 10727V10726L6079 10726Z" fill="#FDFCF8" fill-opacity="0.1"/>
<path d="M6079 10757V10758L-4793 10758V10757L6079 10757Z" fill="#FDFCF8" fill-opacity="0.1"/>
<path d="M6079 10788V10789L-4793 10789V10788L6079 10788Z" fill="#FDFCF8" fill-opacity="0.1"/>
<path d="M6079 10819V10820L-4793 10820V10819L6079 10819Z" fill="#FDFCF8" fill-opacity="0.1"/>
<path d="M6079 10850V10851L-4793 10851V10850L6079 10850Z" fill="#FDFCF8" fill-opacity="0.1"/>
</svg>
