<svg width="96" height="24" viewBox="0 0 96 24" fill="none" xmlns="http://www.w3.org/2000/svg">
<g clip-path="url(#clip0_184_2514)">
<path d="M28.1585 16.9472H34.9882V14.8399H30.5859V6.90234H28.1585V16.9472Z" fill="#999999"/>
<path d="M39.0347 15.5414C38.061 15.5414 37.5536 14.6704 37.5536 13.3639C37.5536 12.0573 38.061 11.1723 39.0347 11.1723C40.0085 11.1723 40.5296 12.0573 40.5296 13.3639C40.5296 14.6704 40.0085 15.5414 39.0347 15.5414ZM39.0485 17.1711C41.3113 17.1711 42.7925 15.5274 42.7925 13.3639C42.7925 11.2003 41.3113 9.55664 39.0485 9.55664C36.7993 9.55664 35.2907 11.2003 35.2907 13.3639C35.2907 15.5274 36.7993 17.1711 39.0485 17.1711Z" fill="#999999"/>
<path d="M46.7091 19.4353C47.7514 19.4353 48.6702 19.1964 49.2874 18.6345C49.8497 18.1147 50.22 17.3279 50.22 16.2462V9.75565H48.0805V10.5283H48.0531C47.6417 9.92424 47.0108 9.54492 46.0782 9.54492C44.3365 9.54492 43.1297 11.0341 43.1297 13.1414C43.1297 15.3471 44.5971 16.5553 46.1742 16.5553C47.0245 16.5553 47.5594 16.204 47.9708 15.7264H48.0257V16.4429C48.0257 17.3139 47.628 17.8197 46.6817 17.8197C45.9411 17.8197 45.5708 17.4965 45.4474 17.1172H43.2805C43.5 18.6204 44.7754 19.4353 46.7091 19.4353ZM46.6954 14.8554C45.8588 14.8554 45.3102 14.1529 45.3102 13.0712C45.3102 11.9754 45.8588 11.2729 46.6954 11.2729C47.628 11.2729 48.1217 12.0878 48.1217 13.0571C48.1217 14.0686 47.6691 14.8554 46.6954 14.8554Z" fill="#999999"/>
<path d="M54.6192 15.5414C53.6455 15.5414 53.1381 14.6704 53.1381 13.3639C53.1381 12.0573 53.6455 11.1723 54.6192 11.1723C55.593 11.1723 56.1141 12.0573 56.1141 13.3639C56.1141 14.6704 55.593 15.5414 54.6192 15.5414ZM54.633 17.1711C56.8958 17.1711 58.3767 15.5274 58.3767 13.3639C58.3767 11.2003 56.8958 9.55664 54.633 9.55664C52.3838 9.55664 50.8752 11.2003 50.8752 13.3639C50.8752 15.5274 52.3838 17.1711 54.633 17.1711Z" fill="#999999"/>
<path d="M59.0297 16.9472H61.2651V9.75425H59.0297V16.9472ZM59.0297 8.75678H61.2651V6.90234H59.0297V8.75678Z" fill="#999999"/>
<path d="M62.2349 19.3229H64.4703V16.204H64.4977C64.9366 16.8081 65.5811 17.1734 66.4863 17.1734C68.324 17.1734 69.5446 15.6842 69.5446 13.3521C69.5446 11.1886 68.4063 9.54492 66.5411 9.54492C65.5811 9.54492 64.8954 9.98043 64.4154 10.6267H64.3743V9.75565H62.2349V19.3229ZM65.9103 15.4033C64.9503 15.4033 64.4017 14.6025 64.4017 13.4364C64.4017 12.2704 64.8954 11.3853 65.8691 11.3853C66.8291 11.3853 67.2817 12.2001 67.2817 13.4364C67.2817 14.6587 66.7606 15.4033 65.9103 15.4033Z" fill="#999999"/>
<path d="M73.184 17.1734C75.0217 17.1734 76.3794 16.3586 76.3794 14.7851C76.3794 12.9447 74.9257 12.6216 73.6914 12.4109C72.8 12.2423 72.0045 12.172 72.0045 11.6663C72.0045 11.2167 72.4297 11.006 72.9782 11.006C73.5954 11.006 74.0205 11.2027 74.1028 11.8489H76.16C76.0502 10.43 74.9805 9.54492 72.992 9.54492C71.3325 9.54492 69.9611 10.3317 69.9611 11.8489C69.9611 13.5348 71.264 13.8719 72.4845 14.0827C73.4171 14.2513 74.2674 14.3215 74.2674 14.9678C74.2674 15.4314 73.8422 15.6842 73.1702 15.6842C72.4297 15.6842 71.9634 15.333 71.8811 14.6165H69.7691C69.8377 16.204 71.1268 17.1734 73.184 17.1734Z" fill="#999999"/>
<path d="M79.416 17.1596C80.3898 17.1596 81.0069 16.7662 81.5143 16.0638H81.5555V16.9488H83.6949V9.75586H81.4595V13.7738C81.4595 14.6308 80.9932 15.2208 80.2252 15.2208C79.512 15.2208 79.1692 14.7853 79.1692 13.9986V9.75586H76.9475V14.4762C76.9475 16.0778 77.7978 17.1596 79.416 17.1596Z" fill="#999999"/>
<path d="M84.6674 16.9486H86.9029V12.9166C86.9029 12.0597 87.3143 11.4556 88.0137 11.4556C88.6857 11.4556 89.0012 11.9051 89.0012 12.6778V16.9486H91.2366V12.9166C91.2366 12.0597 91.6343 11.4556 92.3475 11.4556C93.0195 11.4556 93.3349 11.9051 93.3349 12.6778V16.9486H95.5703V12.2704C95.5703 10.6548 94.7749 9.54492 93.184 9.54492C92.2789 9.54492 91.5246 9.93829 90.976 10.8093H90.9486C90.592 10.0366 89.8926 9.54492 88.9737 9.54492C87.9589 9.54492 87.2869 10.0366 86.848 10.7812H86.8069V9.75565H84.6674V16.9486Z" fill="#999999"/>
<path d="M14.52 1.15596L12.2726 0.539062L10.3786 7.77978L8.66872 1.24281L6.42124 1.85971L8.26867 8.92242L3.66716 4.20871L2.0219 5.89409L7.06918 11.0645L0.783601 9.3392L0.181396 11.6414L7.04918 13.5266C6.97055 13.1791 6.92895 12.8171 6.92895 12.4452C6.92895 9.81246 9.01238 7.67822 11.5824 7.67822C14.1525 7.67822 16.2359 9.81246 16.2359 12.4452C16.2359 12.8147 16.1948 13.1745 16.1172 13.5199L22.3587 15.2331L22.9609 12.9308L16.0658 11.0382L22.3518 9.3128L21.7496 7.01055L14.8548 8.90304L19.4563 4.18936L17.811 2.50398L12.8338 7.60265L14.52 1.15596Z" fill="#999999"/>
<path d="M16.1111 13.5469C15.9185 14.3814 15.5117 15.1311 14.9535 15.7317L19.4752 20.3638L21.1205 18.6784L16.1111 13.5469Z" fill="#999999"/>
<path d="M14.9076 15.7822C14.3427 16.3733 13.6288 16.8143 12.8282 17.0416L14.4736 23.332L16.721 22.7151L14.9076 15.7822Z" fill="#999999"/>
<path d="M12.7442 17.0637C12.3728 17.1615 11.9835 17.2134 11.5823 17.2134C11.1524 17.2134 10.7362 17.1537 10.3411 17.042L8.69421 23.3381L10.9416 23.9549L12.7442 17.0637Z" fill="#999999"/>
<path d="M10.2619 17.0192C9.47357 16.7806 8.77237 16.334 8.219 15.7412L3.68616 20.3846L5.33141 22.07L10.2619 17.0192Z" fill="#999999"/>
<path d="M8.18095 15.6988C7.63707 15.1023 7.2409 14.3626 7.05232 13.541L0.790405 15.2598L1.39261 17.5621L8.18095 15.6988Z" fill="#999999"/>
</g>
<defs>
<clipPath id="clip0_184_2514">
<rect width="96" height="24" fill="white"/>
</clipPath>
</defs>
</svg>
