<svg width="97" height="24" viewBox="0 0 97 24" fill="none" xmlns="http://www.w3.org/2000/svg">
<g clip-path="url(#clip0_184_2530)">
<path d="M29.2583 17.164H36.078V15.0567H31.6822V7.11914H29.2583V17.164Z" fill="#999999"/>
<path d="M40.1185 15.7611C39.1462 15.7611 38.6395 14.8901 38.6395 13.5836C38.6395 12.277 39.1462 11.392 40.1185 11.392C41.0908 11.392 41.6112 12.277 41.6112 13.5836C41.6112 14.8901 41.0908 15.7611 40.1185 15.7611ZM40.1322 17.3908C42.3917 17.3908 43.8707 15.7471 43.8707 13.5836C43.8707 11.4201 42.3917 9.77637 40.1322 9.77637C37.8864 9.77637 36.38 11.4201 36.38 13.5836C36.38 15.7471 37.8864 17.3908 40.1322 17.3908Z" fill="#999999"/>
<path d="M47.7817 19.6521C48.8224 19.6521 49.7399 19.4132 50.3562 18.8513C50.9176 18.3315 51.2874 17.5447 51.2874 16.463V9.97245H49.1511V10.7451H49.1237C48.7129 10.141 48.083 9.76172 47.1518 9.76172C45.4126 9.76172 44.2075 11.2509 44.2075 13.3582C44.2075 15.5639 45.6728 16.7721 47.2476 16.7721C48.0966 16.7721 48.6307 16.4208 49.0415 15.9432H49.0963V16.6597C49.0963 17.5307 48.6992 18.0364 47.7543 18.0364C47.0148 18.0364 46.6451 17.7133 46.5218 17.334H44.3582C44.5773 18.8372 45.8508 19.6521 47.7817 19.6521ZM47.768 15.0722C46.9327 15.0722 46.3849 14.3697 46.3849 13.288C46.3849 12.1922 46.9327 11.4897 47.768 11.4897C48.6992 11.4897 49.1922 12.3045 49.1922 13.2739C49.1922 14.2854 48.7403 15.0722 47.768 15.0722Z" fill="#999999"/>
<path d="M55.6799 15.7611C54.7076 15.7611 54.2009 14.8901 54.2009 13.5836C54.2009 12.277 54.7076 11.392 55.6799 11.392C56.6521 11.392 57.1723 12.277 57.1723 13.5836C57.1723 14.8901 56.6521 15.7611 55.6799 15.7611ZM55.6936 17.3908C57.9529 17.3908 59.4318 15.7471 59.4318 13.5836C59.4318 11.4201 57.9529 9.77637 55.6936 9.77637C53.4477 9.77637 51.9414 11.4201 51.9414 13.5836C51.9414 15.7471 53.4477 17.3908 55.6936 17.3908Z" fill="#999999"/>
<path d="M60.0839 17.164H62.316V9.97104H60.0839V17.164ZM60.0839 8.97358H62.316V7.11914H60.0839V8.97358Z" fill="#999999"/>
<path d="M63.2845 19.5397H65.5167V16.4208H65.544C65.9823 17.0249 66.6259 17.3902 67.5297 17.3902C69.3647 17.3902 70.5835 15.901 70.5835 13.5689C70.5835 11.4054 69.4469 9.76172 67.5845 9.76172C66.6259 9.76172 65.9412 10.1972 65.4619 10.8435H65.4208V9.97245H63.2845V19.5397ZM66.9545 15.6201C65.996 15.6201 65.4482 14.8193 65.4482 13.6532C65.4482 12.4872 65.9412 11.6021 66.9135 11.6021C67.872 11.6021 68.3239 12.4169 68.3239 13.6532C68.3239 14.8755 67.8036 15.6201 66.9545 15.6201Z" fill="#999999"/>
<path d="M74.2176 17.3902C76.0526 17.3902 77.4083 16.5754 77.4083 15.0019C77.4083 13.1615 75.9567 12.8384 74.7243 12.6277C73.8341 12.4591 73.0399 12.3888 73.0399 11.8831C73.0399 11.4335 73.4644 11.2228 74.0122 11.2228C74.6284 11.2228 75.0529 11.4195 75.1351 12.0657H77.1892C77.0796 10.6468 76.0115 9.76172 74.0259 9.76172C72.3689 9.76172 70.9995 10.5485 70.9995 12.0657C70.9995 13.7516 72.3004 14.0887 73.5192 14.2995C74.4504 14.4681 75.2994 14.5383 75.2994 15.1845C75.2994 15.6482 74.8749 15.901 74.2039 15.901C73.4644 15.901 72.9988 15.5498 72.9166 14.8333H70.8077C70.8762 16.4208 72.1635 17.3902 74.2176 17.3902Z" fill="#999999"/>
<path d="M80.4403 17.3764C81.4126 17.3764 82.0288 16.983 82.5355 16.2806H82.5766V17.1656H84.7129V9.97266H82.4807V13.9906C82.4807 14.8476 82.0151 15.4376 81.2483 15.4376C80.5362 15.4376 80.1938 15.0021 80.1938 14.2154V9.97266H77.9754V14.693C77.9754 16.2946 78.8244 17.3764 80.4403 17.3764Z" fill="#999999"/>
<path d="M85.6841 17.1654H87.9163V13.1334C87.9163 12.2765 88.3271 11.6724 89.0255 11.6724C89.6965 11.6724 90.0115 12.1219 90.0115 12.8946V17.1654H92.2436V13.1334C92.2436 12.2765 92.6408 11.6724 93.3529 11.6724C94.0239 11.6724 94.3388 12.1219 94.3388 12.8946V17.1654H96.571V12.4872C96.571 10.8716 95.7767 9.76172 94.1882 9.76172C93.2844 9.76172 92.5312 10.1551 91.9834 11.0261H91.9561C91.6 10.2534 90.9016 9.76172 89.9841 9.76172C88.9707 9.76172 88.2997 10.2534 87.8615 10.998H87.8204V9.97245H85.6841V17.1654Z" fill="#999999"/>
<path fill-rule="evenodd" clip-rule="evenodd" d="M11.4695 23.605C17.7721 23.605 22.8813 18.3635 22.8813 11.8977C22.8813 5.43197 17.7721 0.19043 11.4695 0.19043C5.16698 0.19043 0.0577698 5.43197 0.0577698 11.8977C0.0577698 18.3635 5.16698 23.605 11.4695 23.605ZM13.2309 9.23583C14.2037 8.23784 14.2037 6.61983 13.2309 5.62184C12.2581 4.62386 10.681 4.62386 9.70816 5.62184C8.73542 6.61983 8.73542 8.23784 9.70816 9.23583L11.4695 11.0428L13.2309 9.23583ZM14.0643 13.7047C15.0371 14.7027 16.6142 14.7027 17.587 13.7047C18.5598 12.7068 18.5598 11.0887 17.587 10.0908C16.6142 9.09282 15.0371 9.09282 14.0643 10.0908L12.3029 11.8978L14.0643 13.7047ZM13.2309 18.1737C14.2037 17.1757 14.2037 15.5577 13.2309 14.5597L11.4695 12.7527L9.70816 14.5597C8.73542 15.5577 8.73542 17.1757 9.70816 18.1737C10.681 19.1717 12.2581 19.1717 13.2309 18.1737ZM5.35205 13.7047C4.37928 12.7068 4.37928 11.0887 5.35205 10.0908C6.32486 9.09282 7.90202 9.09282 8.87482 10.0908L10.6362 11.8978L8.87482 13.7047C7.90202 14.7027 6.32486 14.7027 5.35205 13.7047Z" fill="#999999"/>
</g>
<defs>
<clipPath id="clip0_184_2530">
<rect width="97" height="24" fill="white"/>
</clipPath>
</defs>
</svg>
