<svg width="97" height="24" viewBox="0 0 97 24" fill="none" xmlns="http://www.w3.org/2000/svg">
<g clip-path="url(#clip0_184_2503)">
<path d="M28.2465 16.6512H35.1887V14.6317H30.7139V7.0249H28.2465V16.6512Z" fill="#999999"/>
<path d="M39.3017 15.3068C38.3119 15.3068 37.7962 14.4721 37.7962 13.22C37.7962 11.9679 38.3119 11.1197 39.3017 11.1197C40.2914 11.1197 40.8212 11.9679 40.8212 13.22C40.8212 14.4721 40.2914 15.3068 39.3017 15.3068ZM39.3156 16.8686C41.6157 16.8686 43.1213 15.2934 43.1213 13.22C43.1213 11.1466 41.6157 9.57141 39.3156 9.57141C37.0294 9.57141 35.496 11.1466 35.496 13.22C35.496 15.2934 37.0294 16.8686 39.3156 16.8686Z" fill="#999999"/>
<path d="M47.1028 19.0356C48.1623 19.0356 49.0963 18.8067 49.7236 18.2682C50.2951 17.7701 50.6715 17.0161 50.6715 15.9794V9.75932H48.4969V10.4998H48.469C48.0508 9.92089 47.4095 9.55737 46.4616 9.55737C44.6912 9.55737 43.4645 10.9845 43.4645 13.004C43.4645 15.1178 44.9561 16.2756 46.5592 16.2756C47.4235 16.2756 47.9671 15.939 48.3853 15.4813H48.4411V16.1679C48.4411 17.0026 48.0368 17.4873 47.075 17.4873C46.3222 17.4873 45.9458 17.1777 45.8204 16.8142H43.6178C43.8409 18.2547 45.1373 19.0356 47.1028 19.0356ZM47.0889 14.6465C46.2386 14.6465 45.681 13.9734 45.681 12.9367C45.681 11.8865 46.2386 11.2134 47.0889 11.2134C48.0368 11.2134 48.5387 11.9943 48.5387 12.9232C48.5387 13.8926 48.0787 14.6465 47.0889 14.6465Z" fill="#999999"/>
<path d="M55.1431 15.3068C54.1533 15.3068 53.6375 14.4721 53.6375 13.22C53.6375 11.9679 54.1533 11.1197 55.1431 11.1197C56.1328 11.1197 56.6625 11.9679 56.6625 13.22C56.6625 14.4721 56.1328 15.3068 55.1431 15.3068ZM55.157 16.8686C57.4571 16.8686 58.9628 15.2934 58.9628 13.22C58.9628 11.1466 57.4571 9.57141 55.157 9.57141C52.8708 9.57141 51.3374 11.1466 51.3374 13.22C51.3374 15.2934 52.8708 16.8686 55.157 16.8686Z" fill="#999999"/>
<path d="M59.626 16.6512H61.8982V9.75798H59.626V16.6512ZM59.626 8.80207H61.8982V7.0249H59.626V8.80207Z" fill="#999999"/>
<path d="M62.8838 18.9279H65.156V15.939H65.1839C65.63 16.518 66.2852 16.868 67.2052 16.868C69.0732 16.868 70.3139 15.4409 70.3139 13.206C70.3139 11.1326 69.1568 9.55737 67.261 9.55737C66.2852 9.55737 65.5882 9.97474 65.1003 10.5941H65.0584V9.75932H62.8838V18.9279ZM66.6197 15.1716C65.6439 15.1716 65.0863 14.4042 65.0863 13.2867C65.0863 12.1693 65.5882 11.3211 66.5779 11.3211C67.5537 11.3211 68.0138 12.102 68.0138 13.2867C68.0138 14.4581 67.484 15.1716 66.6197 15.1716Z" fill="#999999"/>
<path d="M74.0138 16.868C75.8817 16.868 77.2618 16.0871 77.2618 14.5792C77.2618 12.8155 75.7841 12.5059 74.5295 12.3039C73.6234 12.1423 72.8149 12.075 72.8149 11.5903C72.8149 11.1595 73.2471 10.9576 73.8047 10.9576C74.432 10.9576 74.8641 11.1461 74.9477 11.7654H77.0388C76.9272 10.4056 75.8399 9.55737 73.8186 9.55737C72.1318 9.55737 70.7378 10.3113 70.7378 11.7654C70.7378 13.381 72.0621 13.7041 73.3028 13.9061C74.2507 14.0676 75.115 14.1349 75.115 14.7543C75.115 15.1985 74.6829 15.4409 73.9998 15.4409C73.247 15.4409 72.7731 15.1043 72.6894 14.4177H70.5427C70.6124 15.939 71.9227 16.868 74.0138 16.868Z" fill="#999999"/>
<path d="M80.348 16.8547C81.3378 16.8547 81.9651 16.4778 82.4809 15.8046H82.5227V16.6528H84.6973V9.75952H82.4251V13.6101C82.4251 14.4313 81.9511 14.9968 81.1705 14.9968C80.4456 14.9968 80.0971 14.5794 80.0971 13.8255V9.75952H77.8388V14.2832C77.8388 15.8181 78.7031 16.8547 80.348 16.8547Z" fill="#999999"/>
<path d="M85.6857 16.6526H87.958V12.7886C87.958 11.9673 88.3762 11.3884 89.0871 11.3884C89.7702 11.3884 90.0908 11.8192 90.0908 12.5597V16.6526H92.3631V12.7886C92.3631 11.9673 92.7673 11.3884 93.4922 11.3884C94.1753 11.3884 94.4959 11.8192 94.4959 12.5597V16.6526H96.7681V12.1693C96.7681 10.621 95.9596 9.55737 94.3426 9.55737C93.4225 9.55737 92.6558 9.93435 92.0982 10.7691H92.0703C91.7079 10.0286 90.9969 9.55737 90.0629 9.55737C89.0314 9.55737 88.3483 10.0286 87.9022 10.7422H87.8604V9.75932H85.6857V16.6526Z" fill="#999999"/>
<path fill-rule="evenodd" clip-rule="evenodd" d="M5.02647 2.68396C4.19549 3.24514 3.44406 3.90864 2.79175 4.65553C5.45739 4.41652 8.84399 4.8068 12.7758 6.70549C16.9744 8.73297 20.3554 8.80152 22.7084 8.36318C22.4948 7.73887 22.226 7.13885 21.9077 6.56845C19.2142 6.84282 15.7611 6.47964 11.7368 4.53637C9.18134 3.30233 6.92873 2.79399 5.02647 2.68396ZM20.3342 4.40548C18.2072 2.11016 15.116 0.665649 11.6755 0.665649C10.6651 0.665649 9.68475 0.790246 8.75018 1.02438C10.0159 1.35794 11.3606 1.84593 12.7758 2.52936C15.7222 3.95214 18.2659 4.41025 20.3342 4.40548ZM23.2114 10.5546C20.3688 11.0967 16.4434 10.9853 11.7368 8.71249C7.3366 6.58763 3.83441 6.61439 1.47242 7.12134C1.3505 7.14749 1.23145 7.17497 1.11528 7.20358C0.806034 7.85314 0.559186 8.53618 0.38207 9.24548C0.571239 9.19667 0.766717 9.15028 0.968402 9.10697C3.83391 8.49198 7.88264 8.51868 12.7758 10.8816C17.1761 13.0065 20.6782 12.9797 23.0403 12.4728C23.1212 12.4554 23.2009 12.4375 23.2793 12.419C23.2879 12.2421 23.2922 12.0641 23.2922 11.8851C23.2922 11.435 23.2648 10.991 23.2114 10.5546ZM22.9 14.7867C20.085 15.262 16.274 15.0796 11.7368 12.8886C7.3366 10.7638 3.83441 10.7905 1.47242 11.2975C0.948124 11.4099 0.476477 11.547 0.0604177 11.6917C0.0592833 11.756 0.0587158 11.8205 0.0587158 11.8851C0.0587158 18.0815 5.25971 23.1047 11.6755 23.1047C17.0523 23.1047 21.576 19.5766 22.9 14.7867Z" fill="#999999"/>
</g>
<defs>
<clipPath id="clip0_184_2503">
<rect width="97" height="23" fill="white" transform="translate(0 0.5)"/>
</clipPath>
</defs>
</svg>
