<svg width="88" height="21" viewBox="0 0 88 21" fill="none" xmlns="http://www.w3.org/2000/svg">
<g clip-path="url(#clip0_184_2542)">
<path d="M26.8453 14.411H33.0322V12.5671H29.0442V5.6217H26.8453V14.411Z" fill="#999999"/>
<path d="M36.6977 13.1835C35.8156 13.1835 35.3559 12.4213 35.3559 11.2781C35.3559 10.1349 35.8156 9.36044 36.6977 9.36044C37.5797 9.36044 38.0518 10.1349 38.0518 11.2781C38.0518 12.4213 37.5797 13.1835 36.6977 13.1835ZM36.7101 14.6094C38.76 14.6094 40.1017 13.1712 40.1017 11.2781C40.1017 9.38502 38.76 7.94678 36.7101 7.94678C34.6726 7.94678 33.306 9.38502 33.306 11.2781C33.306 13.1712 34.6726 14.6094 36.7101 14.6094Z" fill="#999999"/>
<path d="M43.6499 16.588C44.5941 16.588 45.4265 16.379 45.9855 15.8873C46.4949 15.4325 46.8303 14.7441 46.8303 13.7976V8.11835H44.8922V8.79445H44.8674C44.4947 8.26586 43.9232 7.93396 43.0784 7.93396C41.5006 7.93396 40.4073 9.23698 40.4073 11.0809C40.4073 13.0108 41.7367 14.068 43.1654 14.068C43.9356 14.068 44.4201 13.7607 44.7929 13.3427H44.8425V13.9697C44.8425 14.7318 44.4823 15.1743 43.625 15.1743C42.9542 15.1743 42.6187 14.8916 42.5069 14.5597H40.544C40.7428 15.875 41.8982 16.588 43.6499 16.588ZM43.6375 12.5806C42.8796 12.5806 42.3827 11.966 42.3827 11.0194C42.3827 10.0606 42.8796 9.44596 43.6375 9.44596C44.4823 9.44596 44.9295 10.1589 44.9295 11.0071C44.9295 11.8922 44.5195 12.5806 43.6375 12.5806Z" fill="#999999"/>
<path d="M50.8153 13.1835C49.9333 13.1835 49.4736 12.4213 49.4736 11.2781C49.4736 10.1349 49.9333 9.36044 50.8153 9.36044C51.6974 9.36044 52.1695 10.1349 52.1695 11.2781C52.1695 12.4213 51.6974 13.1835 50.8153 13.1835ZM50.8278 14.6094C52.8776 14.6094 54.2194 13.1712 54.2194 11.2781C54.2194 9.38502 52.8776 7.94678 50.8278 7.94678C48.7903 7.94678 47.4237 9.38502 47.4237 11.2781C47.4237 13.1712 48.7903 14.6094 50.8278 14.6094Z" fill="#999999"/>
<path d="M54.8104 14.411H56.8355V8.11712H54.8104V14.411ZM54.8104 7.24434H56.8355V5.6217H54.8104V7.24434Z" fill="#999999"/>
<path d="M57.7146 16.4897H59.7396V13.7607H59.7645C60.162 14.2893 60.7459 14.6089 61.5659 14.6089C63.2306 14.6089 64.3363 13.3059 64.3363 11.2653C64.3363 9.3722 63.3052 7.93396 61.6156 7.93396C60.7459 7.93396 60.1248 8.31503 59.6899 8.8805H59.6527V8.11835H57.7146V16.4897ZM61.0441 13.06C60.1745 13.06 59.6775 12.3593 59.6775 11.339C59.6775 10.3187 60.1248 9.5443 61.0068 9.5443C61.8765 9.5443 62.2865 10.2573 62.2865 11.339C62.2865 12.4085 61.8144 13.06 61.0441 13.06Z" fill="#999999"/>
<path d="M67.6332 14.6089C69.2979 14.6089 70.5279 13.8959 70.5279 12.5191C70.5279 10.9088 69.211 10.6261 68.0929 10.4417C67.2853 10.2942 66.5648 10.2327 66.5648 9.79016C66.5648 9.39679 66.9499 9.2124 67.4468 9.2124C68.0059 9.2124 68.391 9.3845 68.4656 9.94996H70.3291C70.2297 8.7084 69.2607 7.93396 67.4593 7.93396C65.956 7.93396 64.7137 8.62235 64.7137 9.94996C64.7137 11.4251 65.8939 11.7201 66.9996 11.9045C67.8444 12.052 68.6146 12.1135 68.6146 12.6789C68.6146 13.0846 68.2295 13.3059 67.6208 13.3059C66.9499 13.3059 66.5275 12.9985 66.453 12.3716H64.5397C64.6019 13.7607 65.7697 14.6089 67.6332 14.6089Z" fill="#999999"/>
<path d="M73.2787 14.5968C74.1607 14.5968 74.7198 14.2526 75.1795 13.6379H75.2167V14.4124H77.1548V8.11853H75.1298V11.6342C75.1298 12.3841 74.7074 12.9004 74.0116 12.9004C73.3656 12.9004 73.055 12.5193 73.055 11.8309V8.11853H71.0424V12.2489C71.0424 13.6502 71.8127 14.5968 73.2787 14.5968Z" fill="#999999"/>
<path d="M78.0352 14.4122H80.0602V10.8842C80.0602 10.1344 80.4329 9.60576 81.0665 9.60576C81.6753 9.60576 81.961 9.99913 81.961 10.6752V14.4122H83.986V10.8842C83.986 10.1344 84.3463 9.60576 84.9923 9.60576C85.6011 9.60576 85.8868 9.99913 85.8868 10.6752V14.4122H87.9119V10.3187C87.9119 8.90508 87.1913 7.93396 85.7502 7.93396C84.9302 7.93396 84.2469 8.27815 83.75 9.0403H83.7251C83.4021 8.3642 82.7685 7.93396 81.9361 7.93396C81.0168 7.93396 80.408 8.3642 80.0105 9.01572H79.9732V8.11835H78.0352V14.4122Z" fill="#999999"/>
<path fill-rule="evenodd" clip-rule="evenodd" d="M10.7072 20.5594C16.425 20.5594 21.0601 15.9731 21.0601 10.3155C21.0601 4.65801 16.425 0.0716553 10.7072 0.0716553C4.98941 0.0716553 0.354248 4.65801 0.354248 10.3155C0.354248 15.9731 4.98941 20.5594 10.7072 20.5594ZM13.937 4.84369C14.0942 4.29114 13.5522 3.9644 13.0573 4.3133L6.14833 9.18338C5.61158 9.56174 5.69601 10.3155 6.27516 10.3155H8.09448V10.3016H11.6403L8.75111 11.3103L7.47744 15.7874C7.32023 16.34 7.86211 16.6667 8.35708 16.3178L15.2661 11.4477C15.8028 11.0694 15.7183 10.3155 15.1392 10.3155H12.3803L13.937 4.84369Z" fill="#999999"/>
</g>
<defs>
<clipPath id="clip0_184_2542">
<rect width="88" height="21" fill="white"/>
</clipPath>
</defs>
</svg>
