<svg width="88" height="21" viewBox="0 0 88 21" fill="none" xmlns="http://www.w3.org/2000/svg">
<g clip-path="url(#clip0_184_2553)">
<path d="M26.5436 15.0185H32.7305V13.1746H28.7426V6.22925H26.5436V15.0185Z" fill="#999999"/>
<path d="M36.3962 13.791C35.5141 13.791 35.0544 13.0289 35.0544 11.8856C35.0544 10.7424 35.5141 9.96798 36.3962 9.96798C37.2782 9.96798 37.7503 10.7424 37.7503 11.8856C37.7503 13.0289 37.2782 13.791 36.3962 13.791ZM36.4086 15.217C38.4585 15.217 39.8002 13.7787 39.8002 11.8856C39.8002 9.99256 38.4585 8.55432 36.4086 8.55432C34.3711 8.55432 33.0045 9.99256 33.0045 11.8856C33.0045 13.7787 34.3711 15.217 36.4086 15.217Z" fill="#999999"/>
<path d="M43.3483 17.1956C44.2925 17.1956 45.1249 16.9866 45.684 16.4949C46.1933 16.04 46.5288 15.3516 46.5288 14.4051V8.72589H44.5907V9.40199H44.5659C44.1931 8.87341 43.6217 8.5415 42.7769 8.5415C41.1991 8.5415 40.1058 9.84453 40.1058 11.6884C40.1058 13.6184 41.4351 14.6756 42.8638 14.6756C43.6341 14.6756 44.1186 14.3682 44.4913 13.9503H44.541V14.5772C44.541 15.3394 44.1807 15.7819 43.3235 15.7819C42.6526 15.7819 42.3172 15.4992 42.2054 15.1673H40.2425C40.4412 16.4826 41.5966 17.1956 43.3483 17.1956ZM43.3359 13.1881C42.5781 13.1881 42.0811 12.5735 42.0811 11.627C42.0811 10.6681 42.5781 10.0535 43.3359 10.0535C44.1807 10.0535 44.628 10.7665 44.628 11.6147C44.628 12.4997 44.218 13.1881 43.3359 13.1881Z" fill="#999999"/>
<path d="M50.5137 13.791C49.6316 13.791 49.172 13.0289 49.172 11.8856C49.172 10.7424 49.6316 9.96798 50.5137 9.96798C51.3958 9.96798 51.8676 10.7424 51.8676 11.8856C51.8676 13.0289 51.3958 13.791 50.5137 13.791ZM50.5261 15.217C52.5758 15.217 53.9175 13.7787 53.9175 11.8856C53.9175 9.99256 52.5758 8.55432 50.5261 8.55432C48.4887 8.55432 47.1221 9.99256 47.1221 11.8856C47.1221 13.7787 48.4887 15.217 50.5261 15.217Z" fill="#999999"/>
<path d="M54.5091 15.0185H56.5342V8.72466H54.5091V15.0185ZM54.5091 7.85188H56.5342V6.22925H54.5091V7.85188Z" fill="#999999"/>
<path d="M57.4128 17.0972H59.4378V14.3682H59.4626C59.8602 14.8968 60.4441 15.2164 61.264 15.2164C62.9288 15.2164 64.0345 13.9134 64.0345 11.8728C64.0345 9.97975 63.0033 8.5415 61.3137 8.5415C60.4441 8.5415 59.8229 8.92258 59.3881 9.48804H59.3508V8.72589H57.4128V17.0972ZM60.7423 13.6676C59.8726 13.6676 59.3757 12.9669 59.3757 11.9466C59.3757 10.9263 59.8229 10.1518 60.705 10.1518C61.5746 10.1518 61.9846 10.8648 61.9846 11.9466C61.9846 13.016 61.5125 13.6676 60.7423 13.6676Z" fill="#999999"/>
<path d="M67.3314 15.2164C68.9962 15.2164 70.2261 14.5035 70.2261 13.1267C70.2261 11.5163 68.9092 11.2336 67.7911 11.0492C66.9835 10.9017 66.263 10.8402 66.263 10.3977C66.263 10.0043 66.6481 9.81994 67.1451 9.81994C67.7041 9.81994 68.0892 9.99204 68.1638 10.5575H70.0273C69.9279 9.31594 68.9589 8.5415 67.1575 8.5415C65.6542 8.5415 64.4119 9.22989 64.4119 10.5575C64.4119 12.0326 65.5921 12.3277 66.6978 12.512C67.5426 12.6596 68.3129 12.721 68.3129 13.2865C68.3129 13.6921 67.9277 13.9134 67.319 13.9134C66.6481 13.9134 66.2257 13.6061 66.1512 12.9792H64.2379C64.3001 14.3682 65.4679 15.2164 67.3314 15.2164Z" fill="#999999"/>
<path d="M72.9768 15.2043C73.8588 15.2043 74.4179 14.8601 74.8776 14.2455H74.9148V15.0199H76.8529V8.72607H74.8279V12.2418C74.8279 12.9916 74.4055 13.5079 73.7098 13.5079C73.0637 13.5079 72.7532 13.1269 72.7532 12.4385V8.72607H70.7405V12.8564C70.7405 14.2578 71.5108 15.2043 72.9768 15.2043Z" fill="#999999"/>
<path d="M77.7341 15.0197H79.7591V11.4917C79.7591 10.7419 80.1318 10.2133 80.7654 10.2133C81.3742 10.2133 81.6599 10.6067 81.6599 11.2828V15.0197H83.6849V11.4917C83.6849 10.7419 84.0452 10.2133 84.6912 10.2133C85.3 10.2133 85.5857 10.6067 85.5857 11.2828V15.0197H87.6108V10.9263C87.6108 9.51263 86.8902 8.5415 85.4491 8.5415C84.6291 8.5415 83.9458 8.8857 83.4489 9.64785H83.424C83.101 8.97175 82.4674 8.5415 81.6351 8.5415C80.7157 8.5415 80.107 8.97175 79.7094 9.62326H79.6721V8.72589H77.7341V15.0197Z" fill="#999999"/>
<path fill-rule="evenodd" clip-rule="evenodd" d="M10.4053 20.6544C16.1231 20.6544 20.7583 16.0681 20.7583 10.4105C20.7583 4.75297 16.1231 0.166626 10.4053 0.166626C4.68756 0.166626 0.0523987 4.75297 0.0523987 10.4105C0.0523987 16.0681 4.68756 20.6544 10.4053 20.6544ZM12.0033 8.08135C12.8858 7.20811 12.8858 5.79235 12.0033 4.91911C11.1208 4.04588 9.68993 4.04588 8.80739 4.91911C7.92491 5.79235 7.92491 7.20811 8.80739 8.08135L10.4053 9.66245L12.0033 8.08135ZM12.7593 11.9917C13.6419 12.8649 15.0727 12.8649 15.9552 11.9917C16.8377 11.1184 16.8377 9.70265 15.9552 8.82941C15.0727 7.95622 13.6419 7.95622 12.7593 8.82941L11.1614 10.4106L12.7593 11.9917ZM12.0033 15.902C12.8858 15.0287 12.8858 13.613 12.0033 12.7397L10.4053 11.1586L8.80739 12.7397C7.92491 13.613 7.92491 15.0287 8.80739 15.902C9.68993 16.7752 11.1208 16.7752 12.0033 15.902ZM4.85545 11.9917C3.97295 11.1184 3.97295 9.70265 4.85545 8.82941C5.73801 7.95622 7.16883 7.95622 8.05137 8.82941L9.64929 10.4106L8.05137 11.9917C7.16883 12.8649 5.73801 12.8649 4.85545 11.9917Z" fill="#999999"/>
</g>
<defs>
<clipPath id="clip0_184_2553">
<rect width="88" height="21" fill="white"/>
</clipPath>
</defs>
</svg>
