<svg width="48" height="48" viewBox="0 0 48 48" fill="none" xmlns="http://www.w3.org/2000/svg">
<path d="M24 4.875C20.2174 4.875 16.5198 5.99666 13.3747 8.09814C10.2296 10.1996 7.77832 13.1865 6.3308 16.6812C4.88327 20.1758 4.50453 24.0212 5.24247 27.7311C5.98042 31.441 7.8019 34.8487 10.4766 37.5234C13.1513 40.1981 16.559 42.0196 20.2689 42.7575C23.9788 43.4955 27.8242 43.1167 31.3188 41.6692C34.8134 40.2217 37.8004 37.7704 39.9019 34.6253C42.0033 31.4802 43.125 27.7826 43.125 24C43.119 18.9296 41.1022 14.0685 37.5168 10.4832C33.9315 6.89782 29.0704 4.88095 24 4.875ZM24 7.125C27.3389 7.12152 30.603 8.1138 33.375 9.975V13.875C33.3754 13.965 33.3435 14.0522 33.285 14.1206L29.1281 18.9375C29.0683 19.0073 28.9849 19.0527 28.8937 19.065L22.9931 19.875C22.8978 19.888 22.8011 19.8638 22.7231 19.8075L22.6781 19.7775L18.9844 17.3606C18.6984 17.1585 18.3748 17.0157 18.0328 16.9405C17.6907 16.8654 17.3371 16.8594 16.9927 16.923C16.6483 16.9866 16.3202 17.1185 16.0275 17.3108C15.7349 17.5032 15.4837 17.7522 15.2887 18.0431L11.3512 23.9119C11.0646 24.3396 10.9106 24.8426 10.9087 25.3575L10.875 32.1469C10.8747 32.2086 10.8591 32.2694 10.8297 32.3237C10.8002 32.378 10.7578 32.4242 10.7062 32.4581L9.76874 33.0713C8.14252 30.5203 7.23196 27.5791 7.13237 24.5555C7.03278 21.532 7.74782 18.5372 9.20265 15.8848C10.6575 13.2324 12.7986 11.0198 15.4019 9.4787C18.0051 7.93762 20.9748 7.12468 24 7.125ZM11.115 34.8844L11.9456 34.3406C12.3066 34.1024 12.6032 33.7787 12.809 33.3983C13.0147 33.0179 13.1233 32.5925 13.125 32.16L13.1644 25.3669C13.1649 25.2936 13.1864 25.2221 13.2262 25.1606L17.1637 19.2919C17.1917 19.2498 17.2279 19.2139 17.2701 19.1862C17.3123 19.1585 17.3597 19.1396 17.4094 19.1306C17.4588 19.1219 17.5096 19.1232 17.5585 19.1345C17.6075 19.1458 17.6537 19.1668 17.6944 19.1962L17.7394 19.2262L21.4331 21.6431C21.9768 22.0294 22.6476 22.1931 23.3081 22.1006L29.2087 21.3019C29.8447 21.2157 30.427 20.8995 30.8456 20.4131L35.0025 15.5831C35.4068 15.1061 35.6276 14.5003 35.625 13.875V11.7787C37.999 14.0329 39.6653 16.9296 40.4205 20.115C41.1756 23.3005 40.9869 26.6369 39.8775 29.7169L36.4275 26.5631C36.0588 26.2258 35.6014 26.0007 35.1092 25.9143C34.6169 25.828 34.1103 25.8839 33.6487 26.0756L27.9375 28.4494C27.5198 28.6251 27.1542 28.9051 26.8758 29.2626C26.5974 29.6202 26.4155 30.0432 26.3475 30.4912L25.9012 33.5269C25.8072 34.1661 25.9522 34.8176 26.3085 35.3566C26.6649 35.8956 27.2075 36.2842 27.8325 36.4481L31.8562 37.5C31.9207 37.518 31.9794 37.5522 32.0269 37.5994L32.8106 38.3831C29.374 40.4926 25.2948 41.2997 21.3139 40.6577C17.3329 40.0157 13.7142 37.9673 11.115 34.8844ZM34.6687 37.065L33.6206 36.0131C33.291 35.6831 32.8794 35.4469 32.4281 35.3288L28.4044 34.2731C28.315 34.2496 28.2374 34.194 28.1865 34.1168C28.1357 34.0396 28.1151 33.9464 28.1287 33.855L28.5769 30.8194C28.5861 30.7552 28.6119 30.6945 28.6517 30.6432C28.6915 30.5919 28.7439 30.5518 28.8037 30.5269L34.5131 28.1531C34.5791 28.1256 34.6516 28.1175 34.722 28.1298C34.7924 28.1421 34.8579 28.1742 34.9106 28.2225L38.9156 31.8862C37.8569 33.8767 36.4133 35.637 34.6687 37.065Z" fill="url(#paint0_linear_323_2836)"/>
<defs>
<linearGradient id="paint0_linear_323_2836" x1="24" y1="4.875" x2="24" y2="43.125" gradientUnits="userSpaceOnUse">
<stop stop-color="#FDFFE5"/>
<stop offset="1" stop-color="#D49A51"/>
</linearGradient>
</defs>
</svg>
