<svg width="48" height="48" viewBox="0 0 48 48" fill="none" xmlns="http://www.w3.org/2000/svg">
<path d="M13.5 26.625H6C5.70163 26.625 5.41548 26.5065 5.2045 26.2955C4.99353 26.0845 4.875 25.7984 4.875 25.5C4.875 25.2016 4.99353 24.9155 5.2045 24.7045C5.41548 24.4935 5.70163 24.375 6 24.375H12.8981L15.5625 20.3756C15.6651 20.2209 15.8044 20.094 15.968 20.0062C16.1316 19.9184 16.3144 19.8725 16.5 19.8725C16.6856 19.8725 16.8684 19.9184 17.032 20.0062C17.1956 20.094 17.3349 20.2209 17.4375 20.3756L22.5 27.9712L24.5625 24.8756C24.6654 24.7214 24.8048 24.595 24.9684 24.5076C25.132 24.4203 25.3146 24.3747 25.5 24.375H30C30.2984 24.375 30.5845 24.4935 30.7955 24.7045C31.0065 24.9155 31.125 25.2016 31.125 25.5C31.125 25.7984 31.0065 26.0845 30.7955 26.2955C30.5845 26.5065 30.2984 26.625 30 26.625H26.1019L23.4375 30.6244C23.3349 30.7791 23.1956 30.906 23.032 30.9938C22.8684 31.0816 22.6856 31.1275 22.5 31.1275C22.3144 31.1275 22.1316 31.0816 21.968 30.9938C21.8044 30.906 21.6651 30.7791 21.5625 30.6244L16.5 23.0287L14.4375 26.1244C14.3346 26.2786 14.1952 26.405 14.0316 26.4924C13.868 26.5797 13.6854 26.6253 13.5 26.625ZM33.375 7.875C29.4375 7.875 26.0138 9.65062 24 12.6262C21.9862 9.65062 18.5625 7.875 14.625 7.875C11.6424 7.87847 8.78292 9.06485 6.67389 11.1739C4.56485 13.2829 3.37847 16.1424 3.375 19.125C3.375 19.2612 3.375 19.3981 3.375 19.5356C3.38445 19.834 3.51204 20.1164 3.7297 20.3207C3.83747 20.4218 3.96411 20.5008 4.10239 20.553C4.24068 20.6052 4.38789 20.6297 4.53563 20.625C4.68336 20.6203 4.82873 20.5866 4.96343 20.5257C5.09813 20.4649 5.21953 20.3781 5.32069 20.2703C5.42184 20.1625 5.50078 20.0359 5.553 19.8976C5.60521 19.7593 5.62968 19.6121 5.625 19.4644C5.625 19.3519 5.625 19.2375 5.625 19.125C5.62748 16.7388 6.57649 14.4511 8.26378 12.7638C9.95107 11.0765 12.2388 10.1275 14.625 10.125C18.4275 10.125 21.6206 12.1556 22.9594 15.4256C23.0441 15.632 23.1883 15.8084 23.3736 15.9326C23.5589 16.0568 23.7769 16.1232 24 16.1232C24.2231 16.1232 24.4411 16.0568 24.6264 15.9326C24.8117 15.8084 24.9559 15.632 25.0406 15.4256C26.3794 12.1556 29.5725 10.125 33.375 10.125C35.7612 10.1275 38.0489 11.0765 39.7362 12.7638C41.4235 14.4511 42.3725 16.7388 42.375 19.125C42.375 29.5744 27.0731 38.9344 24 40.7081C22.155 39.6469 15.9206 35.8669 11.22 30.7406C11.1222 30.6247 11.0021 30.5297 10.8667 30.4614C10.7313 30.3931 10.5835 30.3529 10.4322 30.3432C10.2809 30.3334 10.1291 30.3544 9.9861 30.4048C9.84308 30.4551 9.71172 30.5339 9.59992 30.6364C9.48812 30.7388 9.39818 30.8628 9.33551 31.0009C9.27284 31.139 9.23873 31.2883 9.23524 31.4399C9.23174 31.5915 9.25893 31.7422 9.31517 31.8831C9.37141 32.0239 9.45554 32.1519 9.5625 32.2594C15.3638 38.5913 23.1394 42.8138 23.4675 42.99C23.6312 43.078 23.8142 43.124 24 43.124C24.1858 43.124 24.3688 43.078 24.5325 42.99C28.065 41.0042 31.3968 38.6808 34.4812 36.0525C41.2125 30.2981 44.625 24.6 44.625 19.125C44.6215 16.1424 43.4351 13.2829 41.3261 11.1739C39.2171 9.06485 36.3576 7.87847 33.375 7.875Z" fill="url(#paint0_linear_323_2839)"/>
<defs>
<linearGradient id="paint0_linear_323_2839" x1="24" y1="7.875" x2="24" y2="43.124" gradientUnits="userSpaceOnUse">
<stop stop-color="#FDFFE5"/>
<stop offset="1" stop-color="#D49A51"/>
</linearGradient>
</defs>
</svg>
