<svg width="48" height="48" viewBox="0 0 48 48" fill="none" xmlns="http://www.w3.org/2000/svg">
<path d="M42.105 19.4644C40.0181 18.3281 37.2131 17.5106 34.125 17.1262V15.75C34.125 13.4775 32.3288 11.4187 29.0625 9.95062C26.0925 8.61187 22.1625 7.875 18 7.875C13.8375 7.875 9.9075 8.61187 6.9375 9.95062C3.67125 11.4187 1.875 13.4775 1.875 15.75V23.25C1.875 25.5225 3.67125 27.5812 6.9375 29.0494C8.90438 29.9344 11.2894 30.5494 13.875 30.8738V32.25C13.875 34.5225 15.6713 36.5812 18.9375 38.0494C21.9075 39.3881 25.8375 40.125 30 40.125C34.1625 40.125 38.0925 39.3881 41.0625 38.0494C44.3231 36.5812 46.125 34.5225 46.125 32.25V24.75C46.125 22.7531 44.6981 20.8762 42.105 19.4644ZM41.0288 21.4406C42.8644 22.44 43.875 23.625 43.875 24.75C43.875 27.4106 38.1769 30.375 30 30.375C28.6704 30.3758 27.3421 30.2919 26.0231 30.1238C27.0625 29.8449 28.0787 29.4857 29.0625 29.0494C32.3231 27.5812 34.125 25.5225 34.125 23.25V19.3931C36.825 19.755 39.2438 20.4675 41.0288 21.4406ZM20.28 28.7962C19.545 28.8469 18.78 28.875 18 28.875C17.0063 28.875 16.05 28.83 15.135 28.7494C15.1119 28.7474 15.0887 28.7474 15.0656 28.7494C14.3944 28.6875 13.7531 28.605 13.125 28.5056V23.2725C14.7392 23.509 16.3686 23.6268 18 23.625C19.6314 23.6268 21.2608 23.509 22.875 23.2725V28.5C22.0613 28.6294 21.2044 28.7288 20.3081 28.7925L20.28 28.7962ZM31.875 19.8544V23.25C31.875 25.0387 29.2969 26.9625 25.125 28.0331V22.8469C26.4761 22.5418 27.7947 22.1073 29.0625 21.5494C30.0709 21.1114 31.0167 20.5414 31.875 19.8544ZM18 10.125C26.1769 10.125 31.875 13.0894 31.875 15.75C31.875 18.4106 26.1769 21.375 18 21.375C9.82312 21.375 4.125 18.4106 4.125 15.75C4.125 13.0894 9.82312 10.125 18 10.125ZM4.125 23.25V19.8544C4.98373 20.5388 5.92948 21.1063 6.9375 21.5419C8.20528 22.0998 9.52387 22.5343 10.875 22.8394V28.0256C6.70312 26.9625 4.125 25.0387 4.125 23.25ZM16.125 32.25V31.0725C16.7437 31.1063 17.3681 31.125 18 31.125C18.7388 31.125 19.4675 31.1019 20.1863 31.0556C21.0657 31.3729 21.9636 31.6365 22.875 31.845V37.0331C18.7031 35.9625 16.125 34.0387 16.125 32.25ZM25.125 37.5V32.2688C26.7391 32.5066 28.3685 32.6257 30 32.625C31.6314 32.6268 33.2608 32.509 34.875 32.2725V37.5C31.6442 38 28.3558 38 25.125 37.5ZM37.125 37.0331V31.8469C38.4761 31.5418 39.7947 31.1073 41.0625 30.5494C42.0705 30.1138 43.0163 29.5463 43.875 28.8619V32.25C43.875 34.0387 41.2969 35.9625 37.125 37.0331Z" fill="url(#paint0_linear_323_2833)"/>
<defs>
<linearGradient id="paint0_linear_323_2833" x1="24" y1="7.875" x2="24" y2="40.125" gradientUnits="userSpaceOnUse">
<stop stop-color="#FDFFE5"/>
<stop offset="1" stop-color="#D49A51"/>
</linearGradient>
</defs>
</svg>
