<svg width="30" height="30" viewBox="0 0 30 30" fill="none" xmlns="http://www.w3.org/2000/svg">
<path d="M22.9828 14.9998C25.8715 10.944 27.3445 6.75217 25.2961 4.70373C23.2477 2.6553 19.0559 4.12834 15 7.01701C10.9441 4.12834 6.75235 2.6553 4.70391 4.70373C2.65547 6.75217 4.12852 10.944 7.01719 14.9998C4.12852 19.0557 2.65547 23.2475 4.70391 25.2959C5.36367 25.9557 6.24492 26.2498 7.27149 26.2498C9.43711 26.2498 12.2496 24.9408 15.0059 22.9826C17.7504 24.9408 20.5629 26.2498 22.7344 26.2498C23.7609 26.2498 24.6434 25.9545 25.302 25.2959C27.3445 23.2475 25.8715 19.0557 22.9828 14.9998ZM23.9707 6.02912C24.866 6.92444 24.2613 9.826 21.8004 13.4447C21.0219 12.481 20.193 11.559 19.3172 10.6826C18.4407 9.80807 17.5188 8.98035 16.5551 8.20295C20.1738 5.74201 23.0754 5.13264 23.9707 6.02912ZM20.659 14.9998C19.8297 16.0488 18.9391 17.0479 17.9918 17.9916C17.048 18.9389 16.049 19.8296 15 20.6588C13.951 19.8296 12.952 18.9389 12.0082 17.9916C11.0609 17.0479 10.1703 16.0488 9.34102 14.9998C11.0047 12.9033 12.9035 11.0046 15 9.34084C16.049 10.1701 17.048 11.0607 17.9918 12.008C18.9391 12.9518 19.8297 13.9508 20.659 14.9998ZM6.0293 6.02912C6.28711 5.77014 6.7125 5.63655 7.27383 5.63655C8.65899 5.63655 10.8703 6.44514 13.4438 8.20295C12.481 8.98099 11.5594 9.80867 10.6828 10.6826C9.80824 11.5591 8.98053 12.4811 8.20313 13.4447C5.74219 9.826 5.13399 6.92444 6.0293 6.02912ZM6.0293 23.9705C5.13399 23.0752 5.74219 20.1737 8.20313 16.5549C8.98167 17.5187 9.81056 18.4407 10.6863 19.317C11.5622 20.1909 12.483 21.0186 13.4449 21.7967C9.82617 24.2576 6.92461 24.867 6.0293 23.9705ZM23.9707 23.9705C23.0754 24.867 20.1738 24.2612 16.5551 21.8002C17.5183 21.021 18.4403 20.1922 19.3172 19.317C20.1918 18.4406 21.0195 17.5186 21.7969 16.5549C24.2578 20.1737 24.866 23.0752 23.9707 23.9705ZM16.4063 14.9998C16.4063 15.278 16.3238 15.5498 16.1693 15.7811C16.0147 16.0124 15.7951 16.1926 15.5381 16.299C15.2812 16.4055 14.9984 16.4333 14.7257 16.3791C14.4529 16.3248 14.2023 16.1909 14.0056 15.9942C13.809 15.7975 13.675 15.547 13.6208 15.2742C13.5665 15.0014 13.5944 14.7186 13.7008 14.4617C13.8072 14.2047 13.9875 13.9851 14.2187 13.8306C14.45 13.6761 14.7219 13.5936 15 13.5936C15.373 13.5936 15.7306 13.7417 15.9944 14.0055C16.2581 14.2692 16.4063 14.6269 16.4063 14.9998Z" fill="url(#paint0_linear_391_583)"/>
<defs>
<linearGradient id="paint0_linear_391_583" x1="15.0009" y1="3.75" x2="15.0009" y2="26.2498" gradientUnits="userSpaceOnUse">
<stop stop-color="#FDFFE5"/>
<stop offset="1" stop-color="#D49A51"/>
</linearGradient>
</defs>
</svg>
