<svg width="30" height="30" viewBox="0 0 30 30" fill="none" xmlns="http://www.w3.org/2000/svg">
<g clip-path="url(#clip0_391_434)">
<g clip-path="url(#clip1_391_434)">
<path d="M29 0H23.56C23.2962 0.000583789 23.0434 0.105356 22.8565 0.2915L18.5615 4.5865C18.4426 4.70686 18.3571 4.85605 18.3133 5.01944C18.2694 5.18283 18.2688 5.35481 18.3115 5.5185L17.6195 6.2105C17.172 6.6569 16.6273 6.99369 16.028 7.1945C15.6501 7.32011 15.2882 7.48977 14.95 7.7C14.6247 7.546 14.2762 7.44683 13.9185 7.4065L12.7935 7.2815C12.2746 7.22238 11.7909 6.98921 11.4215 6.62L11.005 6.204C11.0483 6.03948 11.0481 5.86651 11.0042 5.70212C10.9604 5.53773 10.8745 5.3876 10.755 5.2665L5.828 0.296C5.73539 0.20234 5.62514 0.127959 5.50362 0.0771538C5.3821 0.0263483 5.25171 0.000125368 5.12 0L1 0C0.734784 0 0.48043 0.105357 0.292893 0.292893C0.105357 0.48043 0 0.734784 0 1L0 6.44C0.000583789 6.70377 0.105356 6.95662 0.2915 7.1435L4.5865 11.4385C4.67715 11.5289 4.78477 11.6006 4.90318 11.6493C5.02159 11.698 5.14845 11.7229 5.2765 11.7225C5.35807 11.7213 5.43919 11.7101 5.518 11.689L6.2095 12.3765C6.65611 12.8277 6.9937 13.3749 7.1965 13.9765C7.32499 14.3466 7.49685 14.7003 7.7085 15.03C7.54994 15.3616 7.44771 15.7173 7.406 16.0825L7.281 17.2075C7.22265 17.7249 6.9907 18.2073 6.623 18.576L6.205 18.9945C6.04033 18.9517 5.86736 18.9524 5.70307 18.9967C5.53879 19.041 5.38885 19.1272 5.268 19.247L0.2955 24.1725C0.202124 24.2652 0.127957 24.3754 0.077249 24.4968C0.0265414 24.6182 0.000290297 24.7484 0 24.88L0 29C0 29.2652 0.105357 29.5196 0.292893 29.7071C0.48043 29.8946 0.734784 30 1 30H6.44C6.7037 29.9991 6.95644 29.8944 7.1435 29.7085L11.4385 25.4135C11.5574 25.2931 11.6429 25.1439 11.6867 24.9806C11.7306 24.8172 11.7312 24.6452 11.6885 24.4815L12.3805 23.7895C12.8279 23.343 13.3726 23.0062 13.972 22.8055C14.3499 22.6798 14.7117 22.5101 15.05 22.3C15.3752 22.454 15.7235 22.5533 16.081 22.594L17.206 22.719C17.7249 22.7779 18.2085 23.0109 18.578 23.38L18.9945 23.796C18.9513 23.9605 18.9516 24.1335 18.9954 24.2978C19.0392 24.4622 19.1251 24.6123 19.2445 24.7335L24.172 29.706C24.2649 29.7992 24.3752 29.8731 24.4967 29.9235C24.6182 29.974 24.7484 30 24.88 30H29C29.2652 30 29.5196 29.8946 29.7071 29.7071C29.8946 29.5196 30 29.2652 30 29V23.56C29.9991 23.2963 29.8944 23.0436 29.7085 22.8565L25.4135 18.5615C25.2932 18.4428 25.1441 18.3573 24.9808 18.3135C24.8175 18.2696 24.6456 18.269 24.482 18.3115L23.7905 17.6235C23.344 17.1732 23.0064 16.6268 22.8035 16.026C22.675 15.6559 22.5031 15.3022 22.2915 14.9725C22.4501 14.6409 22.5524 14.2852 22.594 13.92L22.719 12.7945C22.7776 12.2771 23.0095 11.7948 23.377 11.426L23.794 11.009C23.8734 11.0304 23.9552 11.0418 24.0375 11.043C24.1665 11.0433 24.2943 11.0181 24.4135 10.9687C24.5327 10.9194 24.641 10.8469 24.732 10.7555L29.7045 5.828C29.7979 5.73525 29.8721 5.62496 29.9228 5.50347C29.9736 5.38197 29.9998 5.25165 30 5.12V1C30 0.734784 29.8946 0.48043 29.7071 0.292893C29.5196 0.105357 29.2652 0 29 0ZM5.2805 10.718L1 6.44V1H5.12L10.0465 5.95L5.2805 10.718ZM6.9175 11.6705L6.328 11.084L10.4 7.012L10.7165 7.329C11.2463 7.8592 11.9403 8.1941 12.685 8.279L13.8095 8.404C13.8805 8.412 13.9475 8.4355 14.0165 8.45L9.385 13.08C9.3815 13.0835 9.379 13.0875 9.376 13.0905L8.351 14.1155C8.3475 14.119 8.3455 14.123 8.342 14.1265C8.26556 13.9742 8.19876 13.8172 8.142 13.6565C7.89083 12.9097 7.47196 12.2303 6.9175 11.6705ZM6.44 29H1V24.88L5.95 19.9535L10.7165 24.7195L6.44 29ZM13.656 21.857C12.9093 22.1068 12.2307 22.5263 11.6735 23.0825L11.084 23.672L7.012 19.6L7.33 19.282C7.85802 18.7526 8.19112 18.06 8.275 17.317L8.4005 16.192C8.45868 15.6746 8.69045 15.1922 9.058 14.8235L9.0725 14.809C9.10712 14.8813 9.14811 14.9504 9.195 15.0155C9.3345 15.206 9.51761 15.3603 9.729 15.4655H9.726C9.47066 15.7136 9.31147 16.0441 9.27669 16.3985C9.24191 16.7528 9.33378 17.108 9.536 17.401C9.69025 17.6114 9.89719 17.7775 10.136 17.8825C10.0149 18.0958 9.94965 18.3363 9.94648 18.5816C9.94331 18.8268 10.0023 19.0689 10.1179 19.2853C10.2334 19.5016 10.4019 19.6852 10.6076 19.8189C10.8132 19.9526 11.0494 20.0321 11.294 20.05C11.5802 20.0734 11.867 20.0109 12.1175 19.8705C12.2232 20.1046 12.3877 20.3073 12.595 20.459C12.8383 20.6349 13.1313 20.7287 13.4315 20.727C13.8442 20.7255 14.2396 20.5608 14.5315 20.269L16.5315 18.2715C16.7669 18.4995 17.0565 18.6637 17.373 18.7485L15.25 20.873C14.8018 21.3197 14.2562 21.6566 13.656 21.857ZM24.7195 19.282L29 23.56V29H24.88L19.9535 24.05L24.7195 19.282ZM23.0825 18.3295L23.672 18.916L19.6 22.988L19.2835 22.6715C18.7538 22.1411 18.0598 21.8062 17.315 21.7215L16.1915 21.6C16.1195 21.592 16.053 21.568 15.983 21.5535L19.2715 18.265L21.65 15.8845C21.6535 15.881 21.6555 15.877 21.659 15.8735C21.7355 16.0258 21.8023 16.1828 21.859 16.3435C22.1098 17.0902 22.5284 17.7696 23.0825 18.3295ZM22.67 10.7185C22.142 11.2479 21.8089 11.9405 21.725 12.6835L21.6 13.809C21.5417 14.3262 21.31 14.8084 20.9425 15.177L18.564 17.556C18.3881 17.7307 18.1508 17.8297 17.9028 17.8319C17.6549 17.834 17.4159 17.7391 17.237 17.5675L19.287 15.5175C19.3781 15.4232 19.4285 15.2969 19.4273 15.1658C19.4262 15.0347 19.3736 14.9093 19.2809 14.8166C19.1882 14.7239 19.0628 14.6713 18.9317 14.6702C18.8006 14.669 18.6743 14.7194 18.58 14.8105L16.1915 17.2L16.187 17.207C16.183 17.211 16.1775 17.212 16.174 17.216L13.824 19.566C13.7445 19.6525 13.6376 19.7089 13.5213 19.7255C13.4049 19.7421 13.2865 19.7179 13.186 19.657C13.1306 19.6177 13.0845 19.5668 13.0508 19.5078C13.0172 19.4488 12.9968 19.3832 12.9912 19.3155C12.9856 19.2478 12.9948 19.1797 13.0183 19.116C13.0417 19.0522 13.0788 18.9944 13.127 18.9465L16.5405 15.5325C16.6316 15.4382 16.682 15.3119 16.6808 15.1808C16.6797 15.0497 16.6271 14.9243 16.5344 14.8316C16.4417 14.7389 16.3163 14.6863 16.1852 14.6852C16.0541 14.684 15.9278 14.7344 15.8335 14.8255L12.42 18.2395L11.7375 18.922C11.6901 18.9703 11.6326 19.0074 11.5692 19.0309C11.5057 19.0543 11.4379 19.0634 11.3705 19.0575C11.3024 19.0522 11.2363 19.0319 11.1768 18.9983C11.1174 18.9646 11.0661 18.9182 11.0265 18.8625C10.9655 18.7622 10.9412 18.6439 10.9576 18.5277C10.974 18.4115 11.0302 18.3045 11.1165 18.225L11.7615 17.5805L15.175 14.167C15.2661 14.0727 15.3165 13.9464 15.3153 13.8153C15.3142 13.6842 15.2616 13.5588 15.1689 13.4661C15.0762 13.3734 14.9508 13.3208 14.8197 13.3197C14.6886 13.3185 14.5623 13.3689 14.468 13.46L11.054 16.8735C11.0062 16.9216 10.9484 16.9587 10.8847 16.9822C10.821 17.0057 10.7529 17.0149 10.6853 17.0093C10.6176 17.0037 10.552 16.9833 10.4931 16.9497C10.4341 16.916 10.3832 16.8699 10.344 16.8145C10.283 16.7143 10.2586 16.5961 10.275 16.4799C10.2914 16.3637 10.3476 16.2569 10.434 16.1775L11.42 15.191L13.8085 12.8C13.9021 12.706 13.9546 12.5788 13.9544 12.4461C13.9541 12.3135 13.9012 12.1864 13.8073 12.0927C13.7133 11.9991 13.586 11.9467 13.4534 11.9469C13.3207 11.9471 13.1936 12 13.1 12.094L10.7105 14.4835C10.6626 14.5317 10.6048 14.5688 10.541 14.5922C10.4773 14.6157 10.4092 14.6249 10.3415 14.6193C10.2738 14.6137 10.2082 14.5933 10.1492 14.5597C10.0902 14.526 10.0393 14.4799 10 14.4245C9.93985 14.3253 9.91557 14.2085 9.93123 14.0935C9.94688 13.9786 10.0015 13.8725 10.086 13.793L10.0915 13.788L14.7515 9.1275C15.1992 8.68123 15.7441 8.34461 16.3435 8.144C17.0902 7.89418 17.7687 7.47471 18.326 6.9185L18.9155 6.329L22.988 10.4L22.67 10.7185ZM29 5.12L24.05 10.0465L19.27 5.2935L23.56 1H29V5.12Z" fill="url(#paint0_linear_391_434)"/>
</g>
</g>
<defs>
<linearGradient id="paint0_linear_391_434" x1="15" y1="0" x2="15" y2="30" gradientUnits="userSpaceOnUse">
<stop stop-color="#FDFFE5"/>
<stop offset="1" stop-color="#D49A51"/>
</linearGradient>
<clipPath id="clip0_391_434">
<rect width="30" height="30" fill="white"/>
</clipPath>
<clipPath id="clip1_391_434">
<rect width="30" height="30" fill="white"/>
</clipPath>
</defs>
</svg>
