<svg width="30" height="30" viewBox="0 0 30 30" fill="none" xmlns="http://www.w3.org/2000/svg">
<path fill-rule="evenodd" clip-rule="evenodd" d="M6.29803 6.72441C7.51838 6.72441 8.61874 7.45965 9.08491 8.58654C9.55233 9.71468 9.29462 11.0121 8.43178 11.875C7.56767 12.7378 6.27025 12.9968 5.14336 12.5293C4.01522 12.0619 3.27998 10.9616 3.27998 9.7412C3.27998 8.0749 4.63047 6.72441 6.29803 6.72441ZM22.7071 20.9961V23.5152C22.7059 24.3174 22.0565 24.9655 21.2556 24.968H8.7387C7.93774 24.9655 7.2884 24.3174 7.28714 23.5152V20.9961C7.28714 18.2421 8.75639 15.6964 11.1415 14.3193C13.5279 12.9411 16.4664 12.9411 18.8529 14.3193C21.238 15.6964 22.7071 18.242 22.7071 20.9961ZM14.9971 5C16.4891 5 17.8357 5.89946 18.4068 7.27777C18.9778 8.6573 18.662 10.244 17.6058 11.3003C16.551 12.3552 14.9642 12.671 13.5846 12.1C12.2063 11.529 11.3068 10.1836 11.3068 8.69032C11.3068 6.65259 12.9594 5 14.9971 5ZM23.6961 6.72442C24.9165 6.72442 26.0168 7.45965 26.4843 8.58654C26.9517 9.71469 26.6927 11.0121 25.8299 11.875C24.967 12.7378 23.6696 12.9968 22.5415 12.5293C21.4146 12.0619 20.6793 10.9616 20.6793 9.74121C20.6793 8.07491 22.0298 6.72442 23.6961 6.72442ZM6.53638 22.9531V21.0126C6.53891 18.4506 7.70369 16.0276 9.70226 14.4245C8.42758 13.6046 6.90022 13.2723 5.4006 13.4884C3.90099 13.7044 2.52909 14.4536 1.53619 15.5994C0.544493 16.7452 -0.00125911 18.2094 2.18136e-06 19.7254V21.7758C0.00252897 22.4301 0.533109 22.9608 1.18753 22.9633L6.53638 22.9531ZM30 19.719C30.0013 18.203 29.4555 16.7389 28.4638 15.593C27.4708 14.4471 26.1001 13.698 24.5994 13.482C23.0999 13.2659 21.5725 13.5982 20.2977 14.4181C22.2963 16.0212 23.4611 18.4442 23.4636 21.0062V22.9467H28.8125C29.4618 22.9442 29.9886 22.4237 30 21.7756V19.719Z" fill="url(#paint0_linear_391_456)"/>
<defs>
<linearGradient id="paint0_linear_391_456" x1="15" y1="5" x2="15" y2="24.968" gradientUnits="userSpaceOnUse">
<stop stop-color="#FDFFE5"/>
<stop offset="1" stop-color="#D49A51"/>
</linearGradient>
</defs>
</svg>
