<svg width="30" height="30" viewBox="0 0 30 30" fill="none" xmlns="http://www.w3.org/2000/svg">
<path fill-rule="evenodd" clip-rule="evenodd" d="M16.3985 19.1587C16.5151 19.2999 16.4946 19.5072 16.3524 19.623C16.2103 19.7388 16.0015 19.7184 15.8849 19.5772C15.7953 19.4691 15.6698 19.3788 15.5174 19.3139C15.365 19.2491 15.1895 19.2122 14.9999 19.2122C14.7003 19.2122 14.4338 19.3037 14.2443 19.4526C14.0778 19.5836 13.9741 19.7591 13.9741 19.9486C13.9741 20.1381 14.0778 20.3137 14.2443 20.4447C14.4339 20.5935 14.7002 20.6851 14.9999 20.6851C15.4508 20.6851 15.8644 20.8326 16.1667 21.0705C16.492 21.3261 16.6931 21.6835 16.6931 22.0842C16.6931 22.4849 16.492 22.8423 16.1667 23.098C15.94 23.2761 15.6519 23.4032 15.3329 23.4554V23.9591C15.3329 24.1423 15.1831 24.2898 14.9999 24.2898C14.8155 24.2898 14.667 24.141 14.667 23.9591V23.4554C14.4851 23.4249 14.3122 23.3715 14.1572 23.2977C13.8921 23.173 13.6718 22.9886 13.522 22.766C13.4195 22.6147 13.4605 22.4099 13.6129 22.3081C13.7653 22.2064 13.9715 22.2471 14.074 22.3984C14.1559 22.5205 14.284 22.6248 14.4428 22.6999C14.6042 22.7762 14.795 22.8195 14.9999 22.8195C15.2996 22.8195 15.566 22.7279 15.7556 22.5791C15.9221 22.448 16.0258 22.2725 16.0258 22.083C16.0258 21.8935 15.9221 21.718 15.7556 21.587C15.566 21.4381 15.2996 21.3466 14.9999 21.3466C14.5491 21.3466 14.1354 21.199 13.8332 20.9612C13.5078 20.7055 13.3068 20.3481 13.3068 19.9474C13.3068 19.5467 13.5078 19.1893 13.8332 18.9336C14.0599 18.7556 14.348 18.6284 14.6669 18.5762V18.0725C14.6669 17.8893 14.8168 17.7418 14.9999 17.7418C15.1844 17.7418 15.3329 17.8906 15.3329 18.0725V18.5762C15.4904 18.6016 15.6403 18.6462 15.7799 18.7059C16.0271 18.8115 16.2397 18.968 16.3985 19.1587ZM25.9249 17.9415H23.015C22.8306 17.9415 22.682 17.7927 22.682 17.6108V15.5489C22.682 15.3658 22.8319 15.2182 23.015 15.2182H25.9249V14.394C25.9249 14.2109 26.0747 14.0633 26.2579 14.0633C26.3654 14.0633 26.4615 14.1142 26.523 14.1931L28.5824 16.3541C28.7041 16.4813 28.7028 16.681 28.5824 16.8069C27.8895 17.537 27.1928 18.2646 26.4986 18.9921C26.3731 19.1244 26.1631 19.1295 26.0298 19.0048C25.9607 18.94 25.9261 18.8522 25.9261 18.7657H25.9248L25.9249 17.9415ZM23.348 17.2788H26.2579C26.4423 17.2788 26.5908 17.4276 26.5908 17.6095V17.9351L27.8844 16.5779L26.5908 15.222V15.5476C26.5908 15.7308 26.441 15.8783 26.2579 15.8783H23.348V17.2788ZM23.6951 9.8696L21.6369 11.9136C21.5063 12.0434 21.2949 12.0434 21.1656 11.9136L19.6978 10.4559C19.5672 10.3262 19.5672 10.1163 19.6978 9.98786L21.756 7.94385L21.1694 7.36128C21.0388 7.23154 21.0388 7.02166 21.1694 6.8932C21.2437 6.81943 21.3449 6.78763 21.4422 6.7978L24.4443 6.87921C24.621 6.88429 24.7632 7.02548 24.767 7.19974C24.7926 8.20203 24.8221 9.20563 24.8503 10.2079C24.8554 10.3898 24.7107 10.5424 24.5275 10.5475C24.4327 10.5501 24.3456 10.5132 24.2829 10.4509L24.2816 10.4521L23.6951 9.8696ZM21.4012 11.2115L23.4594 9.1675C23.59 9.03776 23.8014 9.03776 23.9307 9.1675L24.1625 9.39772L24.1113 7.53175L22.2324 7.48087L22.4642 7.7111C22.5949 7.84084 22.5949 8.05072 22.4642 8.17918L20.4061 10.2232L21.4012 11.2115ZM4.07514 15.217H6.98501C7.16944 15.217 7.318 15.3658 7.318 15.5477V17.6095C7.318 17.7927 7.16815 17.9402 6.98501 17.9402H4.07514V18.7644C4.07514 18.9476 3.9253 19.0951 3.74088 19.0951C3.6333 19.0951 3.53724 19.0442 3.47704 18.9654L1.41761 16.8056C1.29594 16.6784 1.29722 16.4787 1.41761 16.3528C2.1105 15.6227 2.80723 14.8951 3.5014 14.1676C3.62692 14.0353 3.83695 14.0302 3.97016 14.1549C4.03932 14.2197 4.0739 14.3062 4.0739 14.394H4.07519L4.07514 15.217ZM6.65202 15.8797H3.74216C3.55773 15.8797 3.40917 15.7309 3.40917 15.549V15.2234L2.11561 16.5793L3.40917 17.9365V17.6108C3.40917 17.4277 3.55902 17.2801 3.74216 17.2801H6.65202V15.8797ZM8.24401 7.94398L10.3022 9.98799C10.4328 10.1177 10.4328 10.3276 10.3022 10.4561L8.83441 11.9137C8.70377 12.0435 8.49244 12.0435 8.36309 11.9137L6.30494 9.86973L5.71834 10.4523C5.58771 10.582 5.37637 10.582 5.24703 10.4523C5.17274 10.3785 5.14072 10.278 5.15097 10.1826L5.23294 7.2012C5.23806 7.02567 5.38022 6.88448 5.55569 6.88066C6.56491 6.85522 7.57545 6.82597 8.58467 6.79798C8.76782 6.7929 8.92149 6.93663 8.92664 7.11852C8.9292 7.21264 8.89206 7.29914 8.82931 7.36146L8.83059 7.36273L8.24401 7.94398ZM9.59521 10.2221L7.53705 8.17803C7.40641 8.04829 7.40641 7.83841 7.53705 7.70995L7.76887 7.47973L5.88999 7.53061L5.83876 9.39658L6.07058 9.16635C6.20122 9.03661 6.41255 9.03661 6.5419 9.16635L8.60005 11.2104L9.59521 10.2221ZM16.3717 5.72946V8.61935C16.3717 8.80251 16.2218 8.95005 16.0387 8.95005H13.9626C13.7782 8.95005 13.6296 8.80123 13.6296 8.61935V5.72946H12.7997C12.6153 5.72946 12.4667 5.58065 12.4667 5.39876C12.4667 5.29192 12.5179 5.19652 12.5974 5.13674L14.7733 3.09015C14.9014 2.96932 15.1025 2.97059 15.2293 3.09015C15.9644 3.77828 16.697 4.47023 17.4296 5.15963C17.5628 5.28428 17.5679 5.49287 17.4424 5.62517C17.3771 5.69386 17.2887 5.7282 17.2016 5.7282V5.72947L16.3717 5.72946ZM15.7044 8.28865V5.39876C15.7044 5.2156 15.8542 5.06806 16.0374 5.06806H16.3652L14.9987 3.78339L13.6321 5.06806H13.96C14.1444 5.06806 14.293 5.21688 14.293 5.39876V8.28865H15.7044ZM17.8189 15.0925C16.9096 15.5758 15.9592 15.8162 15.0077 15.8162C14.0509 15.8162 13.0955 15.5746 12.1836 15.0938C12.1772 15.0899 12.1708 15.0861 12.1644 15.0823C12.0914 15.0416 12.0273 15.0009 11.9736 14.9589C10.1382 15.8264 8.95867 17.4736 8.42958 19.2581C8.11579 20.3176 8.03256 21.423 8.17599 22.4444C8.31815 23.4518 8.68318 24.3701 9.26974 25.0709C9.96519 25.9015 10.9821 26.4281 12.3205 26.4281H17.6806C19.0189 26.4281 20.0359 25.9015 20.7313 25.0709C21.3179 24.3701 21.6829 23.4517 21.8251 22.4444C21.9698 21.4243 21.8853 20.3177 21.5715 19.2581C21.0438 17.4735 19.863 15.8264 18.0275 14.9589C17.9686 15.0047 17.8996 15.0492 17.8189 15.0925ZM11.7316 14.3395C9.68498 15.2896 8.37355 17.106 7.7906 19.0711C7.4499 20.2209 7.35898 21.4229 7.51651 22.5334C7.67533 23.6578 8.09029 24.6919 8.75885 25.492C9.57726 26.4701 10.7645 27.0908 12.3192 27.0908H17.6793C19.2341 27.0908 20.4227 26.4701 21.2397 25.492C21.9082 24.6932 22.3232 23.6578 22.482 22.5334C22.6395 21.423 22.5486 20.2197 22.2079 19.0711C21.6265 17.1046 20.3137 15.2883 18.2669 14.3395C18.2618 14.323 18.2554 14.3064 18.2477 14.2886C18.199 14.1729 18.1093 14.0749 17.9941 13.9961C17.9467 13.9643 17.8942 13.9337 17.8378 13.9058L18.6626 13.0612C18.815 12.9047 18.9034 12.7241 18.9265 12.5333C18.9495 12.34 18.9047 12.1441 18.7894 11.9635C18.6818 11.7943 18.5281 11.662 18.3437 11.573C18.272 11.5386 18.1964 11.5106 18.1157 11.489C18.1772 11.2626 18.094 11.0553 17.8993 10.8683C17.4715 10.4562 16.2228 10.2502 14.9958 10.2502V10.2489C13.7689 10.2489 12.5214 10.455 12.0923 10.8683C11.8977 11.0566 11.8144 11.2639 11.8759 11.489C11.7965 11.5106 11.7196 11.5386 11.6479 11.573C11.4635 11.662 11.3098 11.7956 11.2022 11.9635C11.0869 12.1453 11.0421 12.3412 11.0652 12.5333C11.0882 12.7241 11.1766 12.9047 11.329 13.0612L12.1538 13.9058C12.0974 13.9337 12.0449 13.963 11.9976 13.9961C11.8836 14.0749 11.7939 14.1729 11.7452 14.2886C11.7427 14.3064 11.7363 14.323 11.7312 14.3395L11.7316 14.3395ZM12.9663 13.7849L11.811 12.6007C11.7636 12.5524 11.7368 12.5028 11.7316 12.4557C11.7265 12.4112 11.7393 12.3629 11.7688 12.3146C11.8072 12.2535 11.8674 12.2026 11.943 12.167C12.0275 12.1263 12.1312 12.1034 12.2439 12.1034H12.3374L13.5669 13.3639C13.695 13.4949 13.905 13.4975 14.037 13.3703C14.1689 13.2431 14.1715 13.0345 14.0434 12.9035L12.7332 11.5603C12.7229 11.5476 12.7114 11.5361 12.6986 11.5247L12.6166 11.4407C12.5616 11.3835 12.5462 11.353 12.559 11.3402C12.8574 11.054 13.9166 10.9103 14.9988 10.9103V10.909C16.0798 10.909 17.1389 11.0528 17.4387 11.3402C17.4515 11.353 17.4361 11.3848 17.381 11.4407L17.2991 11.5247C17.2862 11.5361 17.276 11.5476 17.2645 11.5603L15.9658 12.892C15.8377 13.023 15.8403 13.2316 15.9722 13.3588C16.1041 13.486 16.3142 13.4835 16.4422 13.3525L17.6602 12.1047H17.7537C17.8677 12.1047 17.9702 12.1276 18.0547 12.1683C18.1303 12.2052 18.1905 12.2548 18.2289 12.3158C18.2596 12.3642 18.2724 12.4125 18.266 12.457C18.2609 12.5041 18.234 12.5537 18.1866 12.602L17.0314 13.7862C16.2783 14.1296 15.6354 14.3013 14.9976 14.3013C14.3623 14.3001 13.7193 14.1283 12.9663 13.7849ZM15.0078 15.1535C14.1587 15.1535 13.3082 14.9373 12.4937 14.5086L12.4796 14.5023L12.4629 14.4934C12.5398 14.4565 12.6345 14.426 12.7306 14.4043C13.5592 14.777 14.2778 14.964 15.0014 14.964C15.725 14.964 16.4435 14.777 17.2722 14.4043C17.3669 14.426 17.4617 14.4565 17.5398 14.4934L17.5078 14.5112C16.6971 14.9398 15.8531 15.1535 15.0078 15.1535ZM15.0001 24.846C16.0644 24.846 17.0288 24.4173 17.7268 23.7241C18.4248 23.0309 18.8564 22.0731 18.8564 21.0161C18.8564 19.9591 18.4248 19.0013 17.7268 18.3081C17.0288 17.6149 16.0644 17.1863 15.0001 17.1863C13.9358 17.1863 12.9714 17.6149 12.2734 18.3081C11.5754 19.0013 11.1438 19.9591 11.1438 21.0161C11.1438 22.0731 11.5754 23.0309 12.2734 23.7241C12.9714 24.4173 13.9345 24.846 15.0001 24.846ZM18.1981 24.1934C19.0165 23.3807 19.5237 22.2575 19.5237 21.0174C19.5237 19.7772 19.0178 18.6541 18.1981 17.8413C17.3797 17.0285 16.2488 16.5261 15.0001 16.5261C13.7514 16.5261 12.6205 17.0285 11.8021 17.8413C10.9837 18.6541 10.4765 19.7772 10.4765 21.0174C10.4765 22.2575 10.9824 23.3807 11.8021 24.1934C12.6205 25.0062 13.7514 25.5087 15.0001 25.5087C16.2488 25.5087 17.3797 25.0062 18.1981 24.1934Z" fill="url(#paint0_linear_391_464)"/>
<defs>
<linearGradient id="paint0_linear_391_464" x1="15" y1="3" x2="15" y2="27.0908" gradientUnits="userSpaceOnUse">
<stop stop-color="#FDFFE5"/>
<stop offset="1" stop-color="#D49A51"/>
</linearGradient>
</defs>
</svg>
