<svg width="30" height="30" viewBox="0 0 30 30" fill="none" xmlns="http://www.w3.org/2000/svg">
<path d="M4.3245 20.8812C4.26297 20.7751 4.16231 20.6973 4.04412 20.6646C3.92592 20.6318 3.7996 20.6467 3.69223 20.7059C3.58486 20.7652 3.505 20.8642 3.46976 20.9817C3.43453 21.0992 3.44673 21.2258 3.50375 21.3344C8.38344 30.3342 21.6183 30.3321 26.4963 21.3342C26.5561 21.2254 26.5703 21.0973 26.5357 20.978C26.5012 20.8587 26.4207 20.758 26.312 20.698C26.2033 20.638 26.0752 20.6236 25.9559 20.6579C25.8365 20.6923 25.7357 20.7726 25.6755 20.8812C24.6229 22.7912 23.0772 24.3839 21.1995 25.493C19.3217 26.6022 17.1808 27.1873 15 27.1873C12.8191 27.1873 10.6782 26.6022 8.80051 25.493C6.9228 24.3839 5.37707 22.7912 4.3245 20.8812Z" fill="url(#paint0_linear_391_471)"/>
<path d="M24.2436 7.06851C24.3252 7.1601 24.4394 7.21608 24.5618 7.22443C24.6842 7.23277 24.8049 7.19283 24.8982 7.11316C24.9914 7.03349 25.0498 6.92045 25.0606 6.79828C25.0715 6.67611 25.0341 6.55454 24.9563 6.45966C19.9411 0.388193 10.0583 0.388639 5.04365 6.45984C4.96572 6.5547 4.92812 6.67635 4.93892 6.79864C4.94973 6.92093 5.00809 7.03409 5.10144 7.11381C5.1948 7.19354 5.31571 7.23345 5.43818 7.22497C5.56066 7.2165 5.67491 7.16031 5.7564 7.06849C10.4128 1.43217 19.5878 1.43277 24.2436 7.06851Z" fill="url(#paint1_linear_391_471)"/>
<path d="M8.87055 6.71119C8.77342 6.78627 8.70962 6.89647 8.69286 7.01809C8.6761 7.13971 8.70772 7.26305 8.78093 7.36161C8.85413 7.46017 8.96308 7.52608 9.08435 7.54517C9.20563 7.56427 9.32956 7.53503 9.4295 7.46373C11.0431 6.27398 12.9952 5.63211 15 5.63212C17.0048 5.63213 18.9569 6.27402 20.5705 7.4638C20.6705 7.53488 20.7943 7.56396 20.9155 7.54478C21.0367 7.52561 21.1455 7.45971 21.2186 7.36123C21.2917 7.26275 21.3234 7.13953 21.3067 7.018C21.29 6.89647 21.2264 6.78632 21.1294 6.71117C19.3541 5.40176 17.206 4.69531 15 4.69531C12.794 4.69532 10.6459 5.40177 8.87055 6.71119Z" fill="url(#paint2_linear_391_471)"/>
<path d="M15 25.3127C16.5552 25.3159 18.0908 24.9652 19.4904 24.2872C20.89 23.6092 22.1171 22.6216 23.0786 21.3993C23.1529 21.3015 23.1859 21.1786 23.1705 21.0568C23.1552 20.935 23.0926 20.824 22.9964 20.7478C22.9002 20.6716 22.7779 20.6362 22.6558 20.6491C22.5337 20.662 22.4216 20.7223 22.3434 20.817C18.7479 25.5313 11.2516 25.5308 7.65656 20.8169C7.57839 20.7223 7.46624 20.6621 7.34419 20.6492C7.22213 20.6363 7.09989 20.6718 7.00369 20.748C6.90749 20.8242 6.845 20.9351 6.82961 21.0569C6.81423 21.1786 6.84719 21.3016 6.92141 21.3993C7.88295 22.6216 9.10998 23.6092 10.5096 24.2872C11.9093 24.9652 13.4448 25.3159 15 25.3127Z" fill="url(#paint3_linear_391_471)"/>
<path d="M2.12242 16.2036C1.95758 16.5168 1.87593 16.8672 1.88529 17.221C1.89465 17.5749 1.99472 17.9204 2.1759 18.2245C2.35708 18.5286 2.6133 18.781 2.92003 18.9577C3.22675 19.1344 3.57371 19.2294 3.92766 19.2335L9.1437 19.2335C9.14192 19.5429 9.20111 19.8496 9.31791 20.1361C9.43471 20.4226 9.60682 20.6833 9.82441 20.9033C10.042 21.1232 10.3008 21.2981 10.586 21.418C10.8712 21.5379 11.1773 21.6004 11.4867 21.602L18.5133 21.602C18.8231 21.6018 19.1298 21.5402 19.4156 21.4208C19.7015 21.3014 19.9608 21.1265 20.1787 20.9063C20.3965 20.6861 20.5686 20.4249 20.6849 20.1377C20.8012 19.8506 20.8594 19.5433 20.8563 19.2335H26.0724C26.4263 19.2294 26.7733 19.1344 27.08 18.9577C27.3867 18.781 27.643 18.5286 27.8241 18.2245C28.0053 17.9204 28.1053 17.5748 28.1147 17.221C28.1241 16.8671 28.0424 16.5168 27.8775 16.2036C27.2367 15.0163 26.1756 14.1112 24.9021 13.6656C25.2581 13.3914 25.5464 13.0393 25.7449 12.6363C25.9435 12.2333 26.0469 11.7901 26.0472 11.3408C25.9075 7.4457 20.2999 7.44558 20.1608 11.3408C20.1612 11.7902 20.2647 12.2335 20.4632 12.6365C20.6618 13.0396 20.9503 13.3918 21.3063 13.6659C20.1574 14.0705 19.179 14.8517 18.53 15.8825C18.0436 15.5559 17.5142 15.2985 16.957 15.1178C17.4019 14.8048 17.765 14.3895 18.0158 13.9068C18.2666 13.4241 18.3978 12.8882 18.3982 12.3442C18.2395 7.84818 11.761 7.84638 11.6018 12.3443C11.6022 12.8882 11.7334 13.4241 11.9842 13.9068C12.235 14.3895 12.5981 14.8048 13.043 15.1178C12.4855 15.2986 11.9559 15.5561 11.4694 15.8829C10.8192 14.8532 9.84132 14.0723 8.69324 13.6662C9.04943 13.3921 9.33798 13.0399 9.53664 12.6367C9.73531 12.2336 9.83881 11.7902 9.83916 11.3408C9.7042 7.44945 4.09044 7.44353 3.95278 11.3408C3.95313 11.7901 4.05655 12.2333 4.25507 12.6363C4.45359 13.0393 4.74192 13.3914 5.09788 13.6655C3.82441 14.1112 2.76327 15.0163 2.12242 16.2036ZM21.0983 11.3408C21.1034 10.8122 21.3169 10.3069 21.6925 9.93489C22.0681 9.56287 22.5754 9.35417 23.104 9.35418C23.6327 9.35418 24.14 9.56289 24.5155 9.93492C24.8911 10.3069 25.1047 10.8122 25.1097 11.3408C25.1047 11.8695 24.8911 12.3747 24.5155 12.7467C24.1399 13.1187 23.6326 13.3274 23.104 13.3274C22.5753 13.3274 22.0681 13.1187 21.6925 12.7467C21.3169 12.3747 21.1034 11.8694 21.0983 11.3408ZM23.1007 14.2838C23.9116 14.2832 24.7074 14.5028 25.4033 14.9191C26.0991 15.3354 26.6689 15.9328 27.0518 16.6476C27.1416 16.8178 27.1862 17.0082 27.1813 17.2006C27.1765 17.393 27.1223 17.5809 27.024 17.7463C26.9257 17.9117 26.7866 18.0492 26.6199 18.1454C26.4533 18.2417 26.2648 18.2935 26.0723 18.296H20.6479C20.3106 17.6021 19.843 16.9796 19.2706 16.4624C19.6674 15.8003 20.2285 15.2518 20.8995 14.8702C21.5706 14.4885 22.3287 14.2865 23.1007 14.2838ZM12.5393 12.3442C12.6427 9.09225 17.3578 9.09301 17.4607 12.3443C17.3573 15.5965 12.6422 15.5957 12.5393 12.3442ZM19.7504 18.5835C19.864 18.7984 19.9204 19.0389 19.9143 19.2818C19.9082 19.5248 19.8398 19.7621 19.7156 19.971C19.5914 20.1799 19.4156 20.3534 19.2051 20.4749C18.9945 20.5963 18.7563 20.6616 18.5133 20.6645L11.4867 20.6645C11.2427 20.664 11.0031 20.6002 10.7911 20.4794C10.5792 20.3585 10.4023 20.1848 10.2776 19.9751C10.153 19.7654 10.0849 19.5269 10.0799 19.283C10.075 19.0391 10.1335 18.7981 10.2496 18.5835C12.2141 14.8229 17.7864 14.8232 19.7504 18.5835ZM4.89029 11.3408C4.89528 10.8121 5.10879 10.3068 5.48439 9.93472C5.86 9.56265 6.36731 9.35391 6.896 9.35392C7.4247 9.35392 7.932 9.56267 8.3076 9.93475C8.6832 10.3068 8.8967 10.8122 8.90167 11.3408C8.89669 11.8695 8.68317 12.3748 8.30757 12.7469C7.93197 13.119 7.42465 13.3277 6.89596 13.3277C6.36727 13.3277 5.85996 13.1189 5.48436 12.7469C5.10877 12.3748 4.89527 11.8694 4.89029 11.3408ZM6.8916 14.2837C7.66472 14.2859 8.42419 14.4876 9.09649 14.8693C9.76878 15.2511 10.3311 15.8 10.7291 16.4628C10.1568 16.9799 9.6893 17.6023 9.35207 18.296H3.92761C3.7352 18.2935 3.54665 18.2416 3.38003 18.1454C3.21341 18.0491 3.07429 17.9117 2.976 17.7463C2.87772 17.5808 2.82355 17.3929 2.81869 17.2006C2.81383 17.0082 2.85844 16.8178 2.94825 16.6476C3.33051 15.934 3.89906 15.3373 4.59344 14.921C5.28781 14.5048 6.08203 14.2845 6.8916 14.2837Z" fill="url(#paint4_linear_391_471)"/>
<defs>
<linearGradient id="paint0_linear_391_471" x1="15.0021" y1="20.6396" x2="15.0021" y2="28.0834" gradientUnits="userSpaceOnUse">
<stop stop-color="#FDFFE5"/>
<stop offset="1" stop-color="#D49A51"/>
</linearGradient>
<linearGradient id="paint1_linear_391_471" x1="14.9998" y1="1.90625" x2="14.9998" y2="7.22609" gradientUnits="userSpaceOnUse">
<stop stop-color="#FDFFE5"/>
<stop offset="1" stop-color="#D49A51"/>
</linearGradient>
<linearGradient id="paint2_linear_391_471" x1="14.9998" y1="4.69531" x2="14.9998" y2="7.55088" gradientUnits="userSpaceOnUse">
<stop stop-color="#FDFFE5"/>
<stop offset="1" stop-color="#D49A51"/>
</linearGradient>
<linearGradient id="paint3_linear_391_471" x1="15.0001" y1="20.6465" x2="15.0001" y2="25.3127" gradientUnits="userSpaceOnUse">
<stop stop-color="#FDFFE5"/>
<stop offset="1" stop-color="#D49A51"/>
</linearGradient>
<linearGradient id="paint4_linear_391_471" x1="15" y1="8.41943" x2="15" y2="21.602" gradientUnits="userSpaceOnUse">
<stop stop-color="#FDFFE5"/>
<stop offset="1" stop-color="#D49A51"/>
</linearGradient>
</defs>
</svg>
