<svg width="30" height="30" viewBox="0 0 30 30" fill="none" xmlns="http://www.w3.org/2000/svg">
<path fill-rule="evenodd" clip-rule="evenodd" d="M16.3986 19.1587C16.5151 19.2999 16.4947 19.5072 16.3525 19.623C16.2103 19.7388 16.0016 19.7184 15.885 19.5772C15.7954 19.4691 15.6698 19.3788 15.5174 19.3139C15.365 19.2491 15.1896 19.2122 15 19.2122C14.7003 19.2122 14.4339 19.3037 14.2444 19.4526C14.0779 19.5836 13.9741 19.7591 13.9741 19.9486C13.9741 20.1381 14.0779 20.3137 14.2444 20.4447C14.4339 20.5935 14.7003 20.6851 15 20.6851C15.4508 20.6851 15.8645 20.8326 16.1668 21.0705C16.4921 21.3261 16.6932 21.6835 16.6932 22.0842C16.6932 22.4849 16.4921 22.8423 16.1668 23.098C15.9401 23.2761 15.6519 23.4032 15.333 23.4554V23.9591C15.333 24.1423 15.1832 24.2898 15 24.2898C14.8156 24.2898 14.667 24.141 14.667 23.9591V23.4554C14.4852 23.4249 14.3123 23.3715 14.1573 23.2977C13.8922 23.173 13.6719 22.9886 13.522 22.766C13.4196 22.6147 13.4606 22.4099 13.613 22.3081C13.7654 22.2064 13.9716 22.2471 14.074 22.3984C14.156 22.5205 14.2841 22.6248 14.4429 22.6999C14.6043 22.7762 14.7951 22.8195 15 22.8195C15.2997 22.8195 15.5661 22.7279 15.7556 22.5791C15.9221 22.448 16.0259 22.2725 16.0259 22.083C16.0259 21.8935 15.9221 21.718 15.7556 21.587C15.5661 21.4381 15.2997 21.3466 15 21.3466C14.5492 21.3466 14.1355 21.199 13.8332 20.9612C13.5079 20.7055 13.3068 20.3481 13.3068 19.9474C13.3068 19.5467 13.5079 19.1893 13.8332 18.9336C14.0599 18.7556 14.3481 18.6284 14.667 18.5762V18.0725C14.667 17.8893 14.8169 17.7418 15 17.7418C15.1844 17.7418 15.333 17.8906 15.333 18.0725V18.5762C15.4905 18.6016 15.6404 18.6462 15.78 18.7059C16.0272 18.8115 16.2398 18.968 16.3986 19.1587ZM25.9249 17.9415H23.0151C22.8306 17.9415 22.6821 17.7927 22.6821 17.6108V15.5489C22.6821 15.3658 22.8319 15.2182 23.0151 15.2182H25.9249V14.394C25.9249 14.2109 26.0748 14.0633 26.2579 14.0633C26.3655 14.0633 26.4616 14.1142 26.523 14.1931L28.5825 16.3541C28.7041 16.4813 28.7029 16.681 28.5825 16.8069C27.8896 17.537 27.1928 18.2646 26.4987 18.9921C26.3732 19.1244 26.1631 19.1295 26.0299 19.0048C25.9608 18.94 25.9262 18.8522 25.9262 18.7657H25.9249L25.9249 17.9415ZM23.3481 17.2788H26.2579C26.4423 17.2788 26.5909 17.4276 26.5909 17.6095V17.9351L27.8845 16.5779L26.5909 15.222V15.5476C26.5909 15.7308 26.4411 15.8783 26.2579 15.8783H23.3481V17.2788ZM23.6951 9.8696L21.637 11.9136C21.5063 12.0434 21.295 12.0434 21.1657 11.9136L19.6979 10.4559C19.5673 10.3262 19.5673 10.1163 19.6979 9.98786L21.7561 7.94385L21.1695 7.36128C21.0388 7.23154 21.0388 7.02166 21.1695 6.8932C21.2438 6.81943 21.3449 6.78763 21.4423 6.7978L24.4443 6.87921C24.6211 6.88429 24.7632 7.02548 24.7671 7.19974C24.7927 8.20203 24.8222 9.20563 24.8503 10.2079C24.8555 10.3898 24.7107 10.5424 24.5276 10.5475C24.4328 10.5501 24.3457 10.5132 24.283 10.4509L24.2817 10.4521L23.6951 9.8696ZM21.4013 11.2115L23.4595 9.1675C23.5901 9.03776 23.8014 9.03776 23.9308 9.1675L24.1626 9.39772L24.1114 7.53175L22.2325 7.48087L22.4643 7.7111C22.5949 7.84084 22.5949 8.05072 22.4643 8.17918L20.4062 10.2232L21.4013 11.2115ZM4.07521 15.217H6.98508C7.16951 15.217 7.31807 15.3658 7.31807 15.5477V17.6095C7.31807 17.7927 7.16822 17.9402 6.98508 17.9402H4.07521V18.7644C4.07521 18.9476 3.92536 19.0951 3.74095 19.0951C3.63337 19.0951 3.53731 19.0442 3.47711 18.9654L1.41768 16.8056C1.29601 16.6784 1.29729 16.4787 1.41768 16.3528C2.11057 15.6227 2.8073 14.8951 3.50147 14.1676C3.62698 14.0353 3.83702 14.0302 3.97023 14.1549C4.03939 14.2197 4.07397 14.3062 4.07397 14.394H4.07525L4.07521 15.217ZM6.65209 15.8797H3.74223C3.5578 15.8797 3.40924 15.7309 3.40924 15.549V15.2234L2.11568 16.5793L3.40924 17.9365V17.6108C3.40924 17.4277 3.55909 17.2801 3.74223 17.2801H6.65209V15.8797ZM8.24408 7.94398L10.3022 9.98799C10.4329 10.1177 10.4329 10.3276 10.3022 10.4561L8.83448 11.9137C8.70384 12.0435 8.49251 12.0435 8.36316 11.9137L6.30501 9.86973L5.71841 10.4523C5.58777 10.582 5.37644 10.582 5.24709 10.4523C5.17281 10.3785 5.14079 10.278 5.15104 10.1826L5.23301 7.2012C5.23813 7.02567 5.38029 6.88448 5.55575 6.88066C6.56498 6.85522 7.57551 6.82597 8.58474 6.79798C8.76788 6.7929 8.92156 6.93663 8.92671 7.11852C8.92927 7.21264 8.89213 7.29914 8.82937 7.36146L8.83065 7.36273L8.24408 7.94398ZM9.59527 10.2221L7.53712 8.17803C7.40648 8.04829 7.40648 7.83841 7.53712 7.70995L7.76894 7.47973L5.89006 7.53061L5.83883 9.39658L6.07065 9.16635C6.20129 9.03661 6.41262 9.03661 6.54197 9.16635L8.60012 11.2104L9.59527 10.2221ZM16.3717 5.72946V8.61935C16.3717 8.80251 16.2219 8.95005 16.0388 8.95005H13.9627C13.7782 8.95005 13.6297 8.80123 13.6297 8.61935V5.72946H12.7998C12.6153 5.72946 12.4668 5.58065 12.4668 5.39876C12.4668 5.29192 12.518 5.19652 12.5974 5.13674L14.7734 3.09015C14.9015 2.96932 15.1026 2.97059 15.2294 3.09015C15.9645 3.77828 16.6971 4.47023 17.4297 5.15963C17.5629 5.28428 17.568 5.49287 17.4425 5.62517C17.3772 5.69386 17.2888 5.7282 17.2017 5.7282V5.72947L16.3717 5.72946ZM15.7045 8.28865V5.39876C15.7045 5.2156 15.8543 5.06806 16.0374 5.06806H16.3653L14.9987 3.78339L13.6322 5.06806H13.96C14.1445 5.06806 14.293 5.21688 14.293 5.39876V8.28865H15.7045ZM17.819 15.0925C16.9097 15.5758 15.9593 15.8162 15.0077 15.8162C14.051 15.8162 13.0956 15.5746 12.1837 15.0938C12.1773 15.0899 12.1709 15.0861 12.1645 15.0823C12.0914 15.0416 12.0274 15.0009 11.9736 14.9589C10.1383 15.8264 8.95873 17.4736 8.42965 19.2581C8.11586 20.3176 8.03263 21.423 8.17606 22.4444C8.31822 23.4518 8.68324 24.3701 9.26981 25.0709C9.96526 25.9015 10.9822 26.4281 12.3206 26.4281H17.6806C19.019 26.4281 20.0359 25.9015 20.7314 25.0709C21.318 24.3701 21.683 23.4517 21.8251 22.4444C21.9699 21.4243 21.8853 20.3177 21.5715 19.2581C21.0439 17.4735 19.863 15.8264 18.0276 14.9589C17.9686 15.0047 17.8997 15.0492 17.819 15.0925ZM11.7317 14.3395C9.68505 15.2896 8.37362 17.106 7.79066 19.0711C7.44997 20.2209 7.35905 21.4229 7.51658 22.5334C7.6754 23.6578 8.09036 24.6919 8.75892 25.492C9.57733 26.4701 10.7646 27.0908 12.3193 27.0908H17.6794C19.2342 27.0908 20.4227 26.4701 21.2397 25.492C21.9083 24.6932 22.3232 23.6578 22.4821 22.5334C22.6396 21.423 22.5487 20.2197 22.208 19.0711C21.6265 17.1046 20.3138 15.2883 18.267 14.3395C18.2618 14.323 18.2554 14.3064 18.2477 14.2886C18.1991 14.1729 18.1094 14.0749 17.9942 13.9961C17.9468 13.9643 17.8943 13.9337 17.8379 13.9058L18.6627 13.0612C18.8151 12.9047 18.9035 12.7241 18.9265 12.5333C18.9496 12.34 18.9048 12.1441 18.7895 11.9635C18.6819 11.7943 18.5282 11.662 18.3438 11.573C18.2721 11.5386 18.1965 11.5106 18.1158 11.489C18.1773 11.2626 18.094 11.0553 17.8994 10.8683C17.4716 10.4562 16.2228 10.2502 14.9959 10.2502V10.2489C13.7689 10.2489 12.5215 10.455 12.0924 10.8683C11.8977 11.0566 11.8145 11.2639 11.876 11.489C11.7966 11.5106 11.7197 11.5386 11.648 11.573C11.4636 11.662 11.3099 11.7956 11.2023 11.9635C11.087 12.1453 11.0422 12.3412 11.0652 12.5333C11.0883 12.7241 11.1767 12.9047 11.3291 13.0612L12.1539 13.9058C12.0975 13.9337 12.045 13.963 11.9976 13.9961C11.8836 14.0749 11.794 14.1729 11.7453 14.2886C11.7427 14.3064 11.7363 14.323 11.7312 14.3395L11.7317 14.3395ZM12.9663 13.7849L11.8111 12.6007C11.7637 12.5524 11.7368 12.5028 11.7317 12.4557C11.7266 12.4112 11.7394 12.3629 11.7688 12.3146C11.8073 12.2535 11.8675 12.2026 11.943 12.167C12.0275 12.1263 12.1313 12.1034 12.244 12.1034H12.3375L13.567 13.3639C13.6951 13.4949 13.9051 13.4975 14.0371 13.3703C14.169 13.2431 14.1715 13.0345 14.0435 12.9035L12.7332 11.5603C12.723 11.5476 12.7115 11.5361 12.6987 11.5247L12.6167 11.4407C12.5616 11.3835 12.5463 11.353 12.5591 11.3402C12.8575 11.054 13.9167 10.9103 14.9989 10.9103V10.909C16.0799 10.909 17.139 11.0528 17.4387 11.3402C17.4515 11.353 17.4362 11.3848 17.3811 11.4407L17.2991 11.5247C17.2863 11.5361 17.2761 11.5476 17.2645 11.5603L15.9659 12.892C15.8378 13.023 15.8404 13.2316 15.9723 13.3588C16.1042 13.486 16.3142 13.4835 16.4423 13.3525L17.6603 12.1047H17.7538C17.8678 12.1047 17.9702 12.1276 18.0548 12.1683C18.1303 12.2052 18.1905 12.2548 18.229 12.3158C18.2597 12.3642 18.2725 12.4125 18.2661 12.457C18.261 12.5041 18.2341 12.5537 18.1867 12.602L17.0315 13.7862C16.2784 14.1296 15.6354 14.3013 14.9976 14.3013C14.3624 14.3001 13.7194 14.1283 12.9663 13.7849ZM15.0079 15.1535C14.1587 15.1535 13.3083 14.9373 12.4937 14.5086L12.4796 14.5023L12.463 14.4934C12.5398 14.4565 12.6346 14.426 12.7307 14.4043C13.5593 14.777 14.2778 14.964 15.0015 14.964C15.7251 14.964 16.4436 14.777 17.2722 14.4043C17.367 14.426 17.4618 14.4565 17.5399 14.4934L17.5079 14.5112C16.6972 14.9398 15.8531 15.1535 15.0079 15.1535ZM15.0002 24.846C16.0645 24.846 17.0289 24.4173 17.7269 23.7241C18.4249 23.0309 18.8565 22.0731 18.8565 21.0161C18.8565 19.9591 18.4249 19.0013 17.7269 18.3081C17.0289 17.6149 16.0645 17.1863 15.0002 17.1863C13.9359 17.1863 12.9715 17.6149 12.2735 18.3081C11.5754 19.0013 11.1438 19.9591 11.1438 21.0161C11.1438 22.0731 11.5754 23.0309 12.2735 23.7241C12.9715 24.4173 13.9346 24.846 15.0002 24.846ZM18.1982 24.1934C19.0166 23.3807 19.5238 22.2575 19.5238 21.0174C19.5238 19.7772 19.0179 18.6541 18.1982 17.8413C17.3798 17.0285 16.2489 16.5261 15.0002 16.5261C13.7514 16.5261 12.6205 17.0285 11.8021 17.8413C10.9837 18.6541 10.4766 19.7772 10.4766 21.0174C10.4766 22.2575 10.9825 23.3807 11.8021 24.1934C12.6205 25.0062 13.7514 25.5087 15.0002 25.5087C16.2489 25.5087 17.3798 25.0062 18.1982 24.1934Z" fill="url(#paint0_linear_549_10701)"/>
<defs>
<linearGradient id="paint0_linear_549_10701" x1="1.3269" y1="15.0454" x2="28.6732" y2="15.0454" gradientUnits="userSpaceOnUse">
<stop stop-color="#D2A83A"/>
<stop offset="1" stop-color="#D49A51"/>
</linearGradient>
</defs>
</svg>
