<svg width="30" height="30" viewBox="0 0 30 30" fill="none" xmlns="http://www.w3.org/2000/svg">
<path d="M5.19915 4.91785C5.39262 4.91785 5.54954 5.07769 5.54954 5.27473C5.54954 5.47177 5.39261 5.63161 5.19915 5.63161H4.91109C4.71762 5.63161 4.5607 5.47177 4.5607 5.27473C4.5607 5.07769 4.71763 4.91785 4.91109 4.91785H5.19915ZM6.32774 4.91785C6.13427 4.91785 5.97735 5.07769 5.97735 5.27473C5.97735 5.47177 6.13428 5.63161 6.32774 5.63161H6.6158C6.80927 5.63161 6.96619 5.47177 6.96619 5.27473C6.96619 5.07769 6.80926 4.91785 6.6158 4.91785H6.32774ZM7.74329 4.91785C7.54982 4.91785 7.39291 5.07769 7.39291 5.27473C7.39291 5.47177 7.54983 5.63161 7.74329 5.63161H8.03136C8.22483 5.63161 8.38174 5.47177 8.38174 5.27473C8.38174 5.07769 8.22482 4.91785 8.03136 4.91785H7.74329ZM12.4661 5.27473C12.4661 5.47178 12.623 5.63161 12.8165 5.63161H17.9628C18.1563 5.63161 18.3132 5.47177 18.3132 5.27473C18.3132 5.07769 18.1563 4.91785 17.9628 4.91785H12.8165C12.623 4.91785 12.4661 5.07769 12.4661 5.27473ZM7.8872 12.5821H5.96002C5.43441 12.5821 5.00772 12.1464 5.00772 11.6121V9.64927C5.00772 9.11393 5.43551 8.67934 5.96002 8.67934H7.8872C8.41281 8.67934 8.8395 9.11505 8.8395 9.64927V11.6121C8.8395 12.1475 8.41171 12.5821 7.8872 12.5821ZM5.96109 11.8672H7.88827C8.02693 11.8672 8.13871 11.7523 8.13871 11.6121V9.64925C8.13871 9.50803 8.02585 9.39418 7.88827 9.39418H5.96109C5.82244 9.39418 5.71065 9.50913 5.71065 9.64925V11.6121C5.71065 11.7533 5.82351 11.8672 5.96109 11.8672ZM10.0304 10.9881H11.906C12.0995 10.9881 12.2564 10.8283 12.2564 10.6313C12.2564 10.4342 12.0995 10.2744 11.906 10.2744H10.0304C9.83694 10.2744 9.68002 10.4342 9.68002 10.6313C9.68002 10.8283 9.83695 10.9881 10.0304 10.9881ZM7.86783 9.84523C7.73133 9.7051 7.50883 9.704 7.37125 9.84304L6.61242 10.6094L6.51998 10.4714C6.41035 10.3083 6.19216 10.2667 6.03202 10.3784C5.87187 10.49 5.83102 10.7123 5.94066 10.8754L6.27063 11.3669C6.32974 11.4545 6.42325 11.5114 6.52751 11.5213C6.53826 11.5224 6.55008 11.5224 6.56083 11.5224C6.65327 11.5224 6.7414 11.4851 6.80804 11.4184L7.8657 10.3499C8.00328 10.2109 8.00435 9.98425 7.86785 9.84412L7.86783 9.84523ZM23.9228 20.186C24.0389 20.6283 23.9346 21.0991 23.6433 21.4472C23.352 21.7953 22.9103 21.9748 22.4642 21.9278C20.4145 21.711 18.3283 21.4899 16.1936 21.4931L17.4888 25.1168C17.6425 25.5482 17.6232 26.0145 17.4329 26.4305C17.2427 26.8465 16.9041 27.1618 16.4806 27.3195C16.2914 27.3895 16.0969 27.4224 15.9056 27.4224C15.2166 27.4224 14.5674 26.9888 14.3181 26.2926L12.6875 21.7309C11.8922 21.8437 11.0892 22.0024 10.2777 22.2181C10.0262 22.2849 9.77258 22.3166 9.52321 22.3166C8.19364 22.3166 6.97048 21.408 6.61038 20.0406L6.56308 19.8611H4.02216C3.45894 19.8611 3 19.3936 3 18.82V4.04109C3 3.46744 3.45896 3 4.02216 3H13.2529C13.4464 3 13.6033 3.15983 13.6033 3.35688C13.6033 3.55392 13.4464 3.71375 13.2529 3.71375H4.02216C3.84589 3.71375 3.70185 3.86045 3.70185 4.03999V6.83598H19.9684V4.03999C19.9684 3.86046 19.8244 3.71375 19.6481 3.71375H14.5865C14.3931 3.71375 14.2362 3.55392 14.2362 3.35688C14.2362 3.15983 14.3931 3 14.5865 3H19.6481C20.2113 3 20.6702 3.46746 20.6702 4.04109V7.19282V7.19392V7.19501V8.96084C20.9099 9.14476 21.0873 9.40751 21.1668 9.71074L23.9228 20.186ZM6.37509 19.146L6.24504 18.6523C5.81832 17.0288 6.76311 15.345 8.35281 14.8994C12.5878 13.7127 15.8723 11.2889 19.0474 8.94404C19.3172 8.7448 19.6439 8.65614 19.9685 8.68568V7.55043H3.702V18.8197C3.702 18.9993 3.84602 19.146 4.02231 19.146L6.37509 19.146ZM11.3021 21.2447L9.7167 15.2192C9.33085 15.3528 8.93853 15.4765 8.53869 15.5881C7.31982 15.9297 6.59539 17.2204 6.92321 18.4663L7.28865 19.8534C7.61647 21.0992 8.87832 21.848 10.1016 21.5239C10.5025 21.4178 10.9034 21.3247 11.3033 21.2437L11.3021 21.2447ZM16.8278 25.361L15.4499 21.5031C14.7727 21.5217 14.0902 21.5644 13.4023 21.6399L14.977 26.0475C15.1629 26.5664 15.7283 26.8357 16.2388 26.6474C16.486 26.5554 16.6838 26.3715 16.7945 26.1285C16.9052 25.8854 16.917 25.6128 16.8278 25.3621L16.8278 25.361ZM23.2445 20.3711L20.4885 9.8955C20.4316 9.67765 20.2789 9.50906 20.0704 9.43463C19.8619 9.35909 19.6394 9.39193 19.4599 9.52439C16.8298 11.4665 13.8987 13.6287 10.3797 14.9784L11.9952 21.1188C12.2735 21.0717 12.5519 21.0312 12.8292 20.9951C12.8604 20.9863 12.8916 20.983 12.9217 20.983C13.8374 20.8681 14.7446 20.8101 15.641 20.7925C15.6711 20.7882 15.7012 20.7871 15.7302 20.7904C18.1099 20.7499 20.4035 20.9929 22.536 21.2184C22.7563 21.2414 22.9648 21.1571 23.1089 20.9852C23.2529 20.8133 23.3023 20.59 23.2443 20.3722L23.2445 20.3711ZM23.5519 12.6916C23.6315 12.6916 23.7121 12.6642 23.7776 12.6084L26.0251 10.6871C26.1735 10.5601 26.1928 10.3346 26.0681 10.1835C25.9434 10.0325 25.722 10.0127 25.5737 10.1397L23.3262 12.061C23.1779 12.188 23.1585 12.4135 23.2832 12.5646C23.3531 12.6489 23.452 12.6927 23.5519 12.6927L23.5519 12.6916ZM27.2107 13.3156C27.1602 13.1251 26.9678 13.0124 26.7808 13.0627L23.9464 13.8356C23.7593 13.8871 23.6476 14.083 23.6981 14.2735C23.74 14.4333 23.8819 14.5384 24.0367 14.5384C24.0668 14.5384 24.0969 14.5341 24.128 14.5264L26.9624 13.7535C27.1495 13.7021 27.2612 13.5061 27.2107 13.3156ZM27.474 16.1969L24.5849 15.678C24.3936 15.644 24.2119 15.7732 24.1786 15.9681C24.1453 16.163 24.2721 16.348 24.4634 16.3819L27.3526 16.9008C27.373 16.9041 27.3934 16.9063 27.4139 16.9063C27.5805 16.9063 27.7288 16.7848 27.7589 16.6107C27.7922 16.4159 27.6654 16.2308 27.474 16.1969Z" fill="url(#paint0_linear_549_10687)"/>
<defs>
<linearGradient id="paint0_linear_549_10687" x1="3" y1="15.2112" x2="27.7642" y2="15.2112" gradientUnits="userSpaceOnUse">
<stop stop-color="#D2A83A"/>
<stop offset="1" stop-color="#D49A51"/>
</linearGradient>
</defs>
</svg>
