<svg width="30" height="30" viewBox="0 0 30 30" fill="none" xmlns="http://www.w3.org/2000/svg">
<path d="M22.9829 15C25.8716 10.9441 27.3446 6.75234 25.2962 4.7039C23.2477 2.65546 19.0559 4.12851 15.0001 7.01718C10.9442 4.12851 6.75241 2.65546 4.70398 4.7039C2.65554 6.75234 4.12859 10.9441 7.01726 15C4.12859 19.0559 2.65554 23.2477 4.70398 25.2961C5.36374 25.9559 6.24499 26.25 7.27155 26.25C9.43718 26.25 12.2497 24.941 15.0059 22.9828C17.7505 24.941 20.563 26.25 22.7344 26.25C23.761 26.25 24.6434 25.9547 25.302 25.2961C27.3446 23.2477 25.8716 19.0559 22.9829 15ZM23.9708 6.02929C24.8661 6.9246 24.2614 9.82617 21.8005 13.4449C21.0219 12.4811 20.193 11.5592 19.3173 10.6828C18.4408 9.80823 17.5188 8.98052 16.5551 8.20312C20.1739 5.74218 23.0755 5.13281 23.9708 6.02929ZM20.6591 15C19.8298 16.049 18.9392 17.048 17.9919 17.9918C17.0481 18.9391 16.0491 19.8297 15.0001 20.659C13.951 19.8297 12.952 18.9391 12.0083 17.9918C11.061 17.048 10.1703 16.049 9.34109 15C11.0048 12.9035 12.9035 11.0047 15.0001 9.34101C16.0491 10.1703 17.0481 11.0609 17.9919 12.0082C18.9392 12.952 19.8298 13.951 20.6591 15ZM6.02937 6.02929C6.28718 5.77031 6.71257 5.63671 7.2739 5.63671C8.65905 5.63671 10.8704 6.44531 13.4438 8.20312C12.4811 8.98115 11.5595 9.80884 10.6829 10.6828C9.80831 11.5593 8.9806 12.4812 8.2032 13.4449C5.74226 9.82617 5.13406 6.9246 6.02937 6.02929ZM6.02937 23.9707C5.13406 23.0754 5.74226 20.1738 8.2032 16.5551C8.98174 17.5188 9.81063 18.4408 10.6864 19.3172C11.5623 20.1911 12.4831 21.0187 13.445 21.7969C9.82624 24.2578 6.92468 24.8672 6.02937 23.9707ZM23.9708 23.9707C23.0755 24.8672 20.1739 24.2613 16.5551 21.8004C17.5184 21.0212 18.4403 20.1924 19.3173 19.3172C20.1918 18.4407 21.0195 17.5188 21.7969 16.5551C24.2579 20.1738 24.8661 23.0754 23.9708 23.9707ZM16.4063 15C16.4063 15.2781 16.3238 15.55 16.1693 15.7813C16.0148 16.0125 15.7952 16.1928 15.5382 16.2992C15.2813 16.4056 14.9985 16.4335 14.7257 16.3792C14.4529 16.325 14.2024 16.191 14.0057 15.9944C13.809 15.7977 13.6751 15.5471 13.6208 15.2743C13.5666 15.0016 13.5944 14.7188 13.7009 14.4618C13.8073 14.2049 13.9875 13.9853 14.2188 13.8307C14.4501 13.6762 14.7219 13.5937 15.0001 13.5937C15.373 13.5937 15.7307 13.7419 15.9944 14.0056C16.2582 14.2693 16.4063 14.627 16.4063 15Z" fill="url(#paint0_linear_549_10680)"/>
<defs>
<linearGradient id="paint0_linear_549_10680" x1="3.75024" y1="15.0001" x2="26.2517" y2="15.0001" gradientUnits="userSpaceOnUse">
<stop stop-color="#D2A83A"/>
<stop offset="1" stop-color="#D49A51"/>
</linearGradient>
</defs>
</svg>
