<svg width="30" height="30" viewBox="0 0 30 30" fill="none" xmlns="http://www.w3.org/2000/svg">
<path d="M4.32445 20.8814C4.26292 20.7753 4.16227 20.6976 4.04407 20.6648C3.92588 20.632 3.79955 20.6469 3.69218 20.7062C3.58481 20.7655 3.50495 20.8645 3.46972 20.982C3.43448 21.0994 3.44668 21.226 3.5037 21.3346C8.38339 30.3344 21.6183 30.3323 26.4962 21.3344C26.556 21.2256 26.5702 21.0975 26.5357 20.9782C26.5011 20.859 26.4207 20.7583 26.3119 20.6983C26.2032 20.6382 26.0751 20.6238 25.9558 20.6582C25.8365 20.6925 25.7356 20.7728 25.6754 20.8814C24.6229 22.7914 23.0771 24.3841 21.1994 25.4933C19.3217 26.6025 17.1808 27.1876 14.9999 27.1876C12.8191 27.1876 10.6782 26.6025 8.80046 25.4933C6.92275 24.3841 5.37703 22.7914 4.32445 20.8814Z" fill="url(#paint0_linear_549_10708)"/>
<path d="M24.2435 7.06862C24.3251 7.16021 24.4393 7.21619 24.5617 7.22453C24.6841 7.23288 24.8048 7.19294 24.8981 7.11327C24.9914 7.0336 25.0497 6.92056 25.0605 6.79839C25.0714 6.67621 25.034 6.55465 24.9562 6.45977C19.9411 0.3883 10.0582 0.388746 5.04355 6.45995C4.96563 6.55481 4.92802 6.67646 4.93883 6.79874C4.94964 6.92103 5.00799 7.0342 5.10135 7.11392C5.19471 7.19364 5.31562 7.23355 5.43809 7.22508C5.56056 7.2166 5.67482 7.16041 5.75631 7.06859C10.4127 1.43228 19.5877 1.43288 24.2435 7.06862Z" fill="url(#paint1_linear_549_10708)"/>
<path d="M8.87056 6.71137C8.77342 6.78646 8.70962 6.89665 8.69287 7.01827C8.67611 7.13989 8.70773 7.26324 8.78093 7.36179C8.85414 7.46035 8.96308 7.52626 9.08436 7.54536C9.20564 7.56445 9.32956 7.53521 9.42951 7.46392C11.0431 6.27416 12.9952 5.63229 15 5.6323C17.0048 5.63231 18.957 6.27421 20.5705 7.46398C20.6705 7.53507 20.7944 7.56414 20.9155 7.54497C21.0367 7.52579 21.1455 7.4599 21.2186 7.36141C21.2917 7.26293 21.3234 7.13971 21.3067 7.01818C21.29 6.89666 21.2264 6.7865 21.1294 6.71136C19.3541 5.40195 17.206 4.69549 15 4.6955C12.794 4.6955 10.6459 5.40196 8.87056 6.71137Z" fill="url(#paint2_linear_549_10708)"/>
<path d="M15 25.3125C16.5552 25.3157 18.0908 24.965 19.4904 24.287C20.89 23.609 22.1171 22.6214 23.0786 21.3991C23.1529 21.3014 23.1859 21.1784 23.1705 21.0566C23.1552 20.9348 23.0927 20.8239 22.9964 20.7476C22.9002 20.6714 22.7779 20.636 22.6558 20.6489C22.5337 20.6619 22.4216 20.7221 22.3435 20.8168C18.748 25.5311 11.2516 25.5306 7.65658 20.8167C7.5784 20.7221 7.46626 20.6619 7.3442 20.649C7.22215 20.6361 7.09991 20.6716 7.00371 20.7478C6.90751 20.824 6.84501 20.9349 6.82963 21.0567C6.81425 21.1784 6.8472 21.3014 6.92143 21.3991C7.88296 22.6215 9.11 23.609 10.5096 24.287C11.9093 24.965 13.4448 25.3157 15 25.3125Z" fill="url(#paint3_linear_549_10708)"/>
<path d="M2.12237 16.2038C1.95753 16.5171 1.87588 16.8674 1.88525 17.2212C1.89461 17.5751 1.99467 17.9206 2.17585 18.2247C2.35703 18.5288 2.61325 18.7813 2.91998 18.9579C3.22671 19.1346 3.57366 19.2296 3.92761 19.2337L9.14366 19.2338C9.14187 19.5431 9.20107 19.8498 9.31787 20.1363C9.43466 20.4228 9.60678 20.6835 9.82436 20.9035C10.042 21.1234 10.3007 21.2983 10.586 21.4182C10.8712 21.5381 11.1772 21.6006 11.4866 21.6022L18.5133 21.6022C18.8231 21.602 19.1297 21.5405 19.4156 21.421C19.7014 21.3016 19.9608 21.1268 20.1786 20.9065C20.3965 20.6863 20.5685 20.4251 20.6848 20.138C20.8011 19.8508 20.8594 19.5435 20.8562 19.2338H26.0723C26.4263 19.2296 26.7732 19.1346 27.08 18.9579C27.3867 18.7813 27.6429 18.5288 27.8241 18.2247C28.0052 17.9206 28.1053 17.5751 28.1147 17.2212C28.124 16.8674 28.0423 16.517 27.8775 16.2038C27.2367 15.0165 26.1755 14.1114 24.9021 13.6658C25.258 13.3917 25.5464 13.0395 25.7449 12.6365C25.9434 12.2335 26.0468 11.7903 26.0472 11.341C25.9074 7.44592 20.2999 7.4458 20.1608 11.341C20.1612 11.7904 20.2646 12.2337 20.4632 12.6368C20.6618 13.0398 20.9502 13.392 21.3063 13.6661C20.1574 14.0707 19.179 14.8519 18.5299 15.8827C18.0436 15.5561 17.5142 15.2987 16.9569 15.118C17.4018 14.805 17.765 14.3897 18.0158 13.907C18.2666 13.4243 18.3977 12.8884 18.3982 12.3444C18.2394 7.84839 11.761 7.8466 11.6018 12.3445C11.6022 12.8884 11.7333 13.4243 11.9841 13.907C12.235 14.3897 12.5981 14.805 13.043 15.118C12.4855 15.2988 11.9558 15.5563 11.4693 15.8831C10.8192 14.8534 9.84127 14.0725 8.69319 13.6664C9.04939 13.3923 9.33793 13.0401 9.5366 12.6369C9.73527 12.2338 9.83876 11.7904 9.83911 11.341C9.70415 7.44966 4.09039 7.44374 3.95273 11.341C3.95309 11.7903 4.05651 12.2335 4.25503 12.6365C4.45355 13.0395 4.74188 13.3916 5.09783 13.6657C3.82436 14.1114 2.76323 15.0165 2.12237 16.2038ZM21.0983 11.341C21.1033 10.8124 21.3169 10.3071 21.6925 9.9351C22.0681 9.56308 22.5753 9.35438 23.104 9.35439C23.6326 9.3544 24.1399 9.5631 24.5155 9.93513C24.8911 10.3072 25.1046 10.8124 25.1097 11.341C25.1046 11.8697 24.8911 12.3749 24.5155 12.7469C24.1399 13.119 23.6326 13.3277 23.1039 13.3277C22.5753 13.3276 22.068 13.1189 21.6924 12.7469C21.3169 12.3749 21.1033 11.8696 21.0983 11.341ZM23.1007 14.284C23.9115 14.2834 24.7074 14.503 25.4032 14.9193C26.0991 15.3356 26.6689 15.933 27.0517 16.6479C27.1416 16.818 27.1862 17.0084 27.1813 17.2008C27.1764 17.3932 27.1222 17.5811 27.0239 17.7465C26.9256 17.9119 26.7865 18.0494 26.6199 18.1456C26.4533 18.2419 26.2647 18.2937 26.0723 18.2962H20.6479C20.3106 17.6024 19.843 16.9798 19.2705 16.4626C19.6674 15.8005 20.2285 15.252 20.8995 14.8704C21.5705 14.4887 22.3287 14.2867 23.1007 14.284ZM12.5392 12.3444C12.6427 9.09247 17.3577 9.09323 17.4607 12.3445C17.3573 15.5967 12.6421 15.5959 12.5392 12.3444ZM19.7504 18.5837C19.864 18.7986 19.9204 19.0391 19.9143 19.282C19.9082 19.525 19.8398 19.7623 19.7156 19.9712C19.5914 20.1802 19.4156 20.3536 19.205 20.4751C18.9945 20.5965 18.7563 20.6618 18.5133 20.6647L11.4866 20.6647C11.2427 20.6642 11.003 20.6004 10.7911 20.4796C10.5792 20.3587 10.4022 20.185 10.2776 19.9753C10.1529 19.7656 10.0848 19.5271 10.0799 19.2832C10.075 19.0393 10.1334 18.7983 10.2495 18.5837C12.214 14.8231 17.7864 14.8234 19.7504 18.5837ZM4.89024 11.341C4.89523 10.8123 5.10875 10.307 5.48435 9.93493C5.85995 9.56286 6.36727 9.35413 6.89596 9.35413C7.42465 9.35414 7.93196 9.56288 8.30755 9.93496C8.68315 10.307 8.89665 10.8124 8.90163 11.341C8.89664 11.8697 8.68313 12.375 8.30752 12.7471C7.93192 13.1192 7.42461 13.3279 6.89592 13.3279C6.36722 13.3279 5.85991 13.1191 5.48432 12.7471C5.10872 12.375 4.89522 11.8697 4.89024 11.341ZM6.89156 14.284C7.66468 14.2861 8.42414 14.4878 9.09644 14.8696C9.76873 15.2513 10.3311 15.8002 10.729 16.463C10.1567 16.9801 9.68925 17.6025 9.35203 18.2962H3.92757C3.73515 18.2937 3.54661 18.2419 3.37998 18.1456C3.21336 18.0493 3.07425 17.9119 2.97596 17.7465C2.87767 17.581 2.8235 17.3931 2.81864 17.2008C2.81378 17.0084 2.8584 16.818 2.94821 16.6478C3.33046 15.9342 3.89902 15.3375 4.59339 14.9212C5.28776 14.505 6.08198 14.2848 6.89156 14.284Z" fill="url(#paint4_linear_549_10708)"/>
<defs>
<linearGradient id="paint0_linear_549_10708" x1="3.44995" y1="24.3618" x2="26.5542" y2="24.3618" gradientUnits="userSpaceOnUse">
<stop stop-color="#D2A83A"/>
<stop offset="1" stop-color="#D49A51"/>
</linearGradient>
<linearGradient id="paint1_linear_549_10708" x1="4.93701" y1="4.56628" x2="25.0624" y2="4.56628" gradientUnits="userSpaceOnUse">
<stop stop-color="#D2A83A"/>
<stop offset="1" stop-color="#D49A51"/>
</linearGradient>
<linearGradient id="paint2_linear_549_10708" x1="8.68848" y1="6.12328" x2="21.3111" y2="6.12328" gradientUnits="userSpaceOnUse">
<stop stop-color="#D2A83A"/>
<stop offset="1" stop-color="#D49A51"/>
</linearGradient>
<linearGradient id="paint3_linear_549_10708" x1="6.82593" y1="22.9794" x2="23.1742" y2="22.9794" gradientUnits="userSpaceOnUse">
<stop stop-color="#D2A83A"/>
<stop offset="1" stop-color="#D49A51"/>
</linearGradient>
<linearGradient id="paint4_linear_549_10708" x1="1.88452" y1="15.0109" x2="28.1154" y2="15.0109" gradientUnits="userSpaceOnUse">
<stop stop-color="#D2A83A"/>
<stop offset="1" stop-color="#D49A51"/>
</linearGradient>
</defs>
</svg>
