<svg width="30" height="30" viewBox="0 0 30 30" fill="none" xmlns="http://www.w3.org/2000/svg">
<path fill-rule="evenodd" clip-rule="evenodd" d="M6.29803 6.72429C7.51838 6.72429 8.61874 7.45953 9.08491 8.58641C9.55233 9.71456 9.29462 11.012 8.43178 11.8748C7.56767 12.7377 6.27025 12.9967 5.14336 12.5292C4.01522 12.0618 3.27998 10.9614 3.27998 9.74108C3.27998 8.07478 4.63047 6.72429 6.29803 6.72429ZM22.7071 20.996V23.515C22.7059 24.3173 22.0565 24.9653 21.2556 24.9679H8.7387C7.93774 24.9653 7.2884 24.3173 7.28714 23.515V20.996C7.28714 18.242 8.75639 15.6963 11.1415 14.3192C13.5279 12.9409 16.4664 12.9409 18.8529 14.3192C21.238 15.6962 22.7071 18.2418 22.7071 20.996ZM14.9971 4.99987C16.4891 4.99987 17.8357 5.89934 18.4068 7.27764C18.9778 8.65717 18.662 10.2439 17.6058 11.3002C16.551 12.3551 14.9642 12.6709 13.5846 12.0999C12.2063 11.5289 11.3068 10.1834 11.3068 8.69019C11.3068 6.65246 12.9594 4.99987 14.9971 4.99987ZM23.6961 6.72429C24.9165 6.72429 26.0168 7.45953 26.4843 8.58641C26.9517 9.71456 26.6927 11.012 25.8299 11.8748C24.967 12.7377 23.6696 12.9967 22.5415 12.5292C21.4146 12.0618 20.6793 10.9614 20.6793 9.74108C20.6793 8.07478 22.0298 6.72429 23.6961 6.72429ZM6.53638 22.953V21.0125C6.53891 18.4505 7.70369 16.0275 9.70226 14.4244C8.42758 13.6045 6.90022 13.2722 5.4006 13.4882C3.90099 13.7043 2.52909 14.4534 1.53619 15.5992C0.544493 16.7451 -0.00125911 18.2092 2.18136e-06 19.7253V21.7756C0.00252897 22.43 0.533109 22.9606 1.18753 22.9632L6.53638 22.953ZM30 19.7189C30.0013 18.2029 29.4555 16.7387 28.4638 15.5928C27.4708 14.447 26.1001 13.6979 24.5994 13.4818C23.0999 13.2658 21.5725 13.5981 20.2977 14.418C22.2963 16.0211 23.4611 18.4441 23.4636 21.0061V22.9466H28.8125C29.4618 22.944 29.9886 22.4235 30 21.7755V19.7189Z" fill="url(#paint0_linear_549_10693)"/>
<defs>
<linearGradient id="paint0_linear_549_10693" x1="0" y1="14.9839" x2="30" y2="14.9839" gradientUnits="userSpaceOnUse">
<stop stop-color="#D2A83A"/>
<stop offset="1" stop-color="#D49A51"/>
</linearGradient>
</defs>
</svg>
